<svg xmlns="http://www.w3.org/2000/svg" width="2800" height="2800" xml:space="preserve"><path fill="none" d="M0 0h2800v2800H0z"/><path fill="#DE5253" d="m1441.6 1250.2-138.2 32.3-32.7-137.6 43.7 27.4s60.6-207.7 227.1-140c-27.5 9.9-149.9 80.1-141.5 191.7l41.6 26.2z"/><path fill="#333" d="M1543.7 1029.1c-.4-.5-1.1-1-1.9-1.3-25.6-11.1-52.7-13-80.1-9.2-24.6 3.4-47.6 10.7-68.5 24.4-20 13.1-37.4 31.1-49.5 51.8-7 12.1-13.9 25.1-19 38.1-2.6 6.7-6 13-8.4 19.8-1 2.7-1.7 5.5-2.3 8.3-.3 1.3-.4 2.9-.7 4.5-11.4-7.9-23.3-15.1-35-22.6-3.4-2.2-6.6 0-7.6 3-.9 1.1-1.4 2.7-1 4.5 2.3 10.8 2.4 21.6 5.3 32.3 3.2 11.7 6.5 23.1 8.4 35.1 1.8 11.7 5.5 22.8 8.2 34.2 2.2 9.4 3.1 19.3 6.7 28.3.2.5.4.9.7 1.2 0 3.2 2.7 6.4 6.6 5.4 12-3.2 24.1-6.2 36.2-9.3 12.7-3.3 25.3-7.2 38.1-10.1 10.8-2.5 21.8-4.7 32.8-6.4 8.7-1.3 18-2.3 25.7-6.8.3-.1.5-.3.7-.5 4.2-1.3 6.4-7.4 1.4-9.5-7.8-3.4-15.1-7.9-22.1-12.6-5-3.4-9.2-7.9-14.3-11-3.7-13.8 1.4-27.3 6-40.3 4.2-11.8 6-24.1 13.7-34.4 4.2-5.5-5.2-10.9-9.2-5.4-8.1 10.8-10.9 24.3-14.8 37-4.4 14.2-9.6 27.7-6.8 42.4-.9 1.3-1.2 3.1-.9 4.6 0 3.5 3.2 6.9 6.7 5.3 1.8 1.1 3.3 2.6 5 4 2.9 2.6 6.1 4.8 9.3 7 3.8 2.6 7.6 5.1 11.6 7.4-5.3 1.4-11.1 1.9-16.3 2.7-10.5 1.6-21 3.9-31.3 6.2-12.1 2.7-24 6.5-36 9.6-11 2.9-22.1 5.7-33.1 8.5-2.7-7.9-3.8-16.4-5.6-24.5-2.4-11.4-6.2-22.3-8.2-33.8-2.1-12-4.8-23.5-8.2-35.2-1.7-5.8-3.1-11.5-3.7-17.6-.2-2.2-.4-4.4-.7-6.5 9.3 5.9 18.7 11.7 27.8 18.1.9.6 1.7.9 2.5 1 1.8 2.3 5.2 3.3 7.5.4 3.2-3.9 4-8.3 4.9-13.2 1.2-6.2 3.6-12 6.2-17.8 5.4-12 10.9-23.8 16.8-35.5 11.1-21.6 26.3-40.1 45.9-54.6 18.9-14 40.5-21.9 63.5-25.8 22.7-3.9 46.1-4 68.1 2.8-3.6 1.2-6.9 3.3-10.2 5.2-9.1 5.5-17.2 12.4-25.8 18.6-14.3 10.3-31.9 18.4-40.8 34.5-3.3 6 5.9 11.5 9.2 5.4 8.7-15.8 27.6-23.2 41.3-33.9 8.9-7 17.9-13.7 27.9-19 5.6-3 15.4-1 18.6-7.8 1.5-2.9.5-5.5-1.3-7z"/><path fill="#333" d="M1437 1109.4c-3-.8-5.6 1-6.6 3.7.2-.4.2-.2-.2.4-.3.5-.6 1.1-.9 1.6-.4.5-.8 1-1.4 1.7-1.3 1.4-2.7 2.7-4 4-4.9 4.9 2.7 12.4 7.6 7.6 3.8-3.7 7.4-7.3 9.2-12.4 1-2.8-1.1-5.9-3.7-6.6zM1347.2 1140.3c-1.1-2.7-3.5-4.6-6.6-3.7-2.6.7-4.8 3.9-3.7 6.6 1.4 3.5 2.6 7 2.7 10.7.2 6.9 10.9 6.9 10.7 0-.2-4.8-1.4-9.3-3.1-13.6zM1359.5 1132.6c-1.3-2.1-1.4-4.8-1.9-7.3-.6-3.4-2.2-6.2-5-8.2-2.4-1.7-5.9-.4-7.3 1.9-1.5 2.5-.6 5.3 1.5 7-.2-.2.1.1.3.9.3 1.1.5 2.2.6 3.3.5 2.8 1.1 5.4 2.6 7.8 3.5 5.9 12.8.5 9.2-5.4zM1366.6 1111.1c-.2-.2-.3-.4-.4-.7.2.2-.2-.8-.2-.9v-.2c-.1-.5-.1-.9-.2-1.4-.3-2.8-1-5-2.9-7.2s-5.6-2-7.6 0-1.9 4.9-.4 7.1c0 .1.1.3.2.6 0 .1 0 .3.1.3 0 .4.1.8.1 1.2.3 2.3.7 4.6 2 6.6 1.6 2.4 4.7 3.5 7.3 1.9 2.5-1.3 3.7-4.8 2-7.3zM1375.8 1087.4c-.7-2.8-3.9-4.5-6.6-3.7-2.9.8-4.4 3.7-3.7 6.6.5 2.4.5 5 .5 7.9 0 2.9 2.4 5.4 5.4 5.4 2.9 0 5.4-2.4 5.4-5.4-.1-3.7-.2-7.3-1-10.8zM1385.4 1069.2c-2.5-1.5-5.9-.6-7.3 1.9-1.3 2.2-.8 5.1 1.1 6.7.1.2.2.9.2 1.1 0 .4 0 .9.1 1.3 0 2.9 2.4 5.4 5.4 5.4 2.9 0 5.4-2.4 5.4-5.4-.1-4-1.1-8.7-4.9-11zM1406.5 1066.7c-.4-1.6-1.1-3.2-1.8-4.7-.1-.1-.1-.2-.1-.3-.1-.3-.2-.5-.3-.8-.3-.7-.5-1.3-.6-2-.8-2.8-3.8-4.5-6.6-3.7-2.8.8-4.5 3.8-3.7 6.6.4 1.6 1.1 3.2 1.8 4.7.1.1.1.2.1.3.1.3.2.5.3.8.3.7.5 1.3.6 2 .8 2.8 3.8 4.5 6.6 3.7 2.7-.8 4.4-3.8 3.7-6.6zM1422.9 1056c-.7-1.9-1.5-3.8-2.1-5.7-.9-2.8-3.6-4.6-6.6-3.7-2.7.7-4.7 3.8-3.7 6.6.7 1.9 1.5 3.8 2.1 5.7.9 2.8 3.6 4.6 6.6 3.7 2.6-.8 4.6-3.8 3.7-6.6z"/><g><path fill="#89C1CE" d="M1802 1353.7h-620.3c-3.2-35.4-34.5-63.4-73-63.4H728.3c-39.1 0-70.8 28.7-73.2 64.8-38.5 4-65.1 18.9-65.1 74.7l25.4 701c0 78 26.4 134 90.3 134h1081.9c63.9 0 96.7-49.3 96.7-127.3l17.2-707.7c0-77.9-35.6-76.1-99.5-76.1z"/><path fill="#6FB6C1" d="m623.3 2150.8 235.2-592.2h1039.9v-97.3H908.5c-80.1 0-112.1 30.2-136.1 50-57.4 47.3-65.6 129.7-72.9 164.7-25 119.5-76.2 474.8-76.2 474.8z"/><path fill="#A4DDED" d="m2036 1523.1-725.9-.3v.3l-321.2-.3c-84.1 1.9-153.9-11.2-192.2 63.8L619.1 2177c0 62.3 10.9 87.3 76 87.3l725.9.3v-.3l321.2.3c84.1-1.9 153.9 11.2 192.2-63.8l177.6-590.4c-.1-62.2-11-87.3-76-87.3z"/><path fill="#333" d="M2117.6 1595.6c-.1-1.5-.3-3-.4-4.5-.3-5.3-1.1-10.4-2.4-15.4-2.2-16-7.2-32.2-20.1-42.7-14.9-12.2-35.6-14.3-54.3-14.6-5.5-.5-11-.7-16.4-.7-19.5-.2-39.1.7-58.6.6-20.4-.2-40.8-.6-61.1-.7.6-22.9 1.1-45.8 1.7-68.8.4-18.1 1.1-36-2.9-53.8-4.2-18.9-15.1-33.6-33.5-40.3-.7-.3-1.5-.5-2.2-.8-.8-1.1-2-1.9-3.8-1.9h-2.9l-1.5-.3c-8.4-4-17.5-5.4-26.9-2.9-10.2-.2-20.5.2-30.2.2h-613.5c-1.7-16.5-9.9-32.3-21.5-44.1-6.9-7-15.7-12.5-25.4-14.7-3.1-.7-6.2-1-9.3-1.2-9.8-2.9-20-3.4-30.3-3.4H730.2c-33.9 0-64.7 19.7-75.7 50.5-2.3 5-4.2 10.1-6.3 15.2-19.4 2.9-37.8 9.5-49.8 26-9.4 13-12.9 30.7-13.1 46.9-.6 2.4-1.3 4.7-2.4 6.9-.9 2-.6 3.9.4 5.3l10.5 227.5c.1 2 .1 4.1.2 6.1l9.3 256.1c2.2 60.6 4.4 121.1 6.6 181.7.6 16 .6 32.3 1.8 48.3.6 6.9 1.4 13.8 2.5 20.8-1.3 6.9.3 16 .8 22.7.8 12.1 2.5 24.5 7.3 35.7.5 1.2 1.1 2.4 1.7 3.6 1.3 3.1 2.7 6.2 4.2 9.3 1 2 2.7 2.6 4.3 2.4 15.5 15.5 39.9 18.1 62.3 18.4 8.3.9 16.7.7 25 .6.7 1.2 2 2 3.9 2h1067.5c.8 1 1.9 1.8 3.5 1.9 7.5.5 14.9-.3 22.1-1.9h2.4c1.5 0 2.6-.6 3.4-1.4 2.5-.7 4.9-1.4 7.3-2.1 19.7-1.4 39.1-4.9 57.2-13.1 6.4-2.9 12.3-6.5 17.9-10.7 3.5-2.1 6.8-4.6 9.9-7.8 1.8-1.9 3.5-3.9 5.1-6 .3-.4.7-.8 1-1.2 6.7-7.6 15.1-17.9 18-27.7 1.4-4.7 2.9-9.5 4.3-14.2 2.3-7.8 4.7-15.6 7-23.4 8.9-24.9 16.1-50.4 23.1-75.9.8-3.1 1.7-6.1 2.5-9.2 11.4-38 22.9-76 34.3-114 5-13.6 10.1-27.2 14.8-41 19.5-56.6 34-114.8 50.1-172.4 7.6-26.9 15.4-53.8 24.6-80.2 4.8-11.4 9.2-23.1 12.8-34.9 4.2-13.2 6.3-26.9 5.1-40.8zM603.3 1663c-1.7-47.4-3.4-94.9-5.2-142.3-.9-23.6-1.7-47.2-2.6-70.8-.3-7.5-.6-14.9-.5-22.3 1.3-5.2 2.1-10.6 3.2-15.9 1.9-8.7 6.1-16.6 11.7-23.6 11.5-14.5 28.4-22.1 46.3-25.2 3.5-.6 4.4-3.8 3.4-6.4.1-.4.2-.8.2-1.3s.1-1 .2-1.5c3-5.9 5-12.4 7.6-18.5 1.8-4.3 4.1-8.3 6.9-12.1 5.5-5.5 12.2-9.6 19.5-13 21.6-10.1 46.5-10.5 69.8-10.6h368.3c23.5 8.2 42 27.6 44.7 54.2.2 1.7 1 3.2 2.3 4.1-.2 4.4 4.7 5.7 7.5 3.7H1858c14.8 8.5 26.6 27 32.1 41 6.4 16.2 5.5 33.1 3.9 50.1-2.1 21.7-6.1 43.1-6.6 64.9-11.6 0-23.2.2-34.8.8l-231.8-.1c-83.3 0-166.7-.1-250-.1h-60.9c-.6 0-1.2.1-1.7.3-71.7-.1-143.5-.2-215.2-.2-33.2 0-66.4-.1-99.6-.1-20.6 0-41.2.1-61.8.2-29.7.2-60.3 1.6-87.8 14.1-13 5.9-24.5 14.9-33.9 25.6-6.7 7.6-15.1 17.9-18 27.7-1.4 4.7-2.9 9.5-4.3 14.2-2.9 9.6-5.8 19.2-8.6 28.7-1.1 2.9-2.1 5.8-3.1 8.7-1.8 5.2-3.6 10.5-4.9 15.9-.4 1.6-.8 3.3-.8 5-2.3 7.5-4.5 15-6.8 22.6-12.7 42.1-25.4 84.3-38 126.4-11.2 32.8-22.7 65.5-33.4 98.5-9.6 29.7-18.9 59.6-27.8 89.5-8.2 27.4-15.6 54.9-24.5 82.1-5.1 15.7-10.6 31.9-15.1 48.3L603.3 1663zm1504.3-60.2c-.1 2.6-.4 5.2-.7 7.8-5.3 17.6-10.6 35.2-15.9 52.9l-4.6 15.4c-10.5 25.4-17.6 52.2-30.4 76.6-2.1 4 1.8 7.7 5.2 7.2-15.1 50.1-30.1 100.2-45.2 150.3-5.2 17.4-10.5 34.8-15.7 52.2-5.7 15.8-11.2 31.7-16 47.9-6.3 21.3-12 42.8-17.8 64.3-7.8 26-15.6 52-23.5 78-.6 2-1.2 3.9-1.8 5.9-1.8 5.1-3.7 10.3-5.6 15.4-6.2 16.1-12.7 33.1-22.6 47.3-.2.3-.4.6-.7.9-2.6 2.9-5.4 5.6-8.3 8.1-1.3 1.2-2.7 2.3-4 3.3-4.1 2.6-8.7 4.5-13.6 6-12.9 3.8-26.2 5.2-39 9.5-6.8 2.3-13.5 4.9-20.3 7.1-.9.1-1.9.3-2.8.4-9.9.6-19.8.6-29.7.6-.2-.1-.3-.1-.5-.2-.9.1-1.8.1-2.7.1-7.1-.1-14.1-.2-21.1-.2-75.5-.2-151 .1-226.5 0-41 0-81.9-.1-122.9-.1-.6 0-1.2.1-1.7.3-44 0-87.9 0-131.9-.1-93.8 0-187.6-.1-281.4-.1-83.3 0-166.7-.1-250-.1h-56.3c-8.4-.7-16.7-2.2-24.5-5.2.2-2.5-1.4-5.3-4.6-5.6-3.3-.3-6.5-.9-9.5-1.8-20.3-14-30.2-36.4-35.2-60.3.9-.9 1.5-2.2 1.5-4l-.6-14c2.1-7.1 4.3-14.2 6.4-21.3l29.1-96.6c24.7-82.1 49.4-164.3 74.1-246.4 7.3-21.1 14.4-42.1 20.8-63.5 8.7-29.3 17-58.7 27.2-87.5 4.3-12 9.8-23.3 15.2-34.8 5-10.6 10-21.6 11.4-33.3.3-2.8.5-5.5.3-8.2 1.5-2.7 3.2-5.4 5.1-8 5.9-8.1 13.7-14.8 22.3-19.9 17.6-10.5 38.4-14.3 58.6-16 14.4-1.2 28.8-1.2 43.2-1.2 1.5 0 2.6-.6 3.4-1.4H1762c25.7 6.1 52.4.6 78.3-2 2.6-.3 5.1-.4 7.7-.6h46.5v.1h9.6v-.1h110.5c.7 1.4 2.1 2.5 4.1 2.5 11.3 0 23.9-1.2 35.8-.3 8 1.8 15.8 4.6 23.1 8.9 15.7 9.4 24.8 24.5 28.4 41.3.4 3.7.6 7.4.8 11 .2 3.1.7 6.8.9 10.4-.1.3-.1.7-.1 1.1z"/><g fill="#333"><path d="M1777.1 1393.4c4.9 5.2 8.5 11.5 14 16.2 5.3 4.4 12.5-3.5 7.2-7.9-5.5-4.6-9.1-11-14-16.2-4.7-5.1-11.9 2.9-7.2 7.9zM1752.5 1393.4c4.9 5.2 8.5 11.5 14 16.2 5.3 4.4 12.5-3.5 7.2-7.9-5.5-4.6-9.1-11-14-16.2-4.7-5.1-11.9 2.9-7.2 7.9zM1727.8 1393.4c4.9 5.2 8.5 11.5 14 16.2 5.3 4.4 12.5-3.5 7.2-7.9-5.5-4.6-9.1-11-14-16.2-4.7-5.1-11.9 2.9-7.2 7.9zM1703.2 1393.4c4.9 5.2 8.5 11.5 14 16.2 5.3 4.4 12.5-3.5 7.2-7.9-5.5-4.6-9.1-11-14-16.2-4.7-5.1-11.9 2.9-7.2 7.9zM1678.5 1393.4c4.9 5.2 8.5 11.5 14 16.2 5.3 4.4 12.5-3.5 7.2-7.9-5.5-4.6-9.1-11-14-16.2-4.7-5.1-11.9 2.9-7.2 7.9zM1653.9 1393.4c4.9 5.2 8.5 11.5 14 16.2 5.3 4.4 12.5-3.5 7.2-7.9-5.5-4.6-9.1-11-14-16.2-4.7-5.1-11.9 2.9-7.2 7.9zM1809.9 1394.1c-2.4 1.6-3.2 5-1.6 7.4 2.4 3.6 5.6 6.6 9.3 8.9 2.5 1.5 6 .2 7.2-2.3 1.4-2.7.2-5.7-2.3-7.2-1.9-1.2-3.9-3.2-5.2-5.2-1.7-2.5-5-3.2-7.4-1.6zM1836.3 1394.1c-2.4 1.6-3.2 5-1.6 7.4 2.4 3.6 5.6 6.6 9.3 8.9 2.5 1.5 6 .2 7.2-2.3 1.4-2.7.2-5.7-2.3-7.2-1.9-1.2-3.9-3.2-5.2-5.2-1.6-2.5-4.9-3.2-7.4-1.6z"/></g><g fill="#333"><path d="M983.3 1565c4.9 5.2 8.5 11.5 14 16.2 5.3 4.4 12.5-3.5 7.2-7.9-5.5-4.6-9.1-11-14-16.2-4.7-5-11.9 2.9-7.2 7.9zM958.7 1565c4.9 5.2 8.5 11.5 14 16.2 5.3 4.4 12.5-3.5 7.2-7.9-5.5-4.6-9.1-11-14-16.2-4.7-5-11.9 2.9-7.2 7.9zM934 1565c4.9 5.2 8.5 11.5 14 16.2 5.3 4.4 12.5-3.5 7.2-7.9-5.5-4.6-9.1-11-14-16.2-4.7-5-11.9 2.9-7.2 7.9zM909.4 1565c4.9 5.2 8.5 11.5 14 16.2 5.3 4.4 12.5-3.5 7.2-7.9-5.5-4.6-9.1-11-14-16.2-4.7-5-11.9 2.9-7.2 7.9zM884.7 1565c4.9 5.2 8.5 11.5 14 16.2 5.3 4.4 12.5-3.5 7.2-7.9-5.5-4.6-9.1-11-14-16.2-4.7-5-11.9 2.9-7.2 7.9zM860.1 1565c4.9 5.2 8.5 11.5 14 16.2 5.3 4.4 12.5-3.5 7.2-7.9-5.5-4.6-9.1-11-14-16.2-4.7-5-11.9 2.9-7.2 7.9zM1016 1565.7c-2.4 1.6-3.2 5-1.6 7.4 2.4 3.6 5.6 6.6 9.3 8.9 2.5 1.5 6 .2 7.2-2.3 1.4-2.7.2-5.7-2.3-7.2-1.9-1.2-3.9-3.2-5.2-5.2-1.6-2.4-4.9-3.2-7.4-1.6zM1042.5 1565.7c-2.4 1.6-3.2 5-1.6 7.4 2.4 3.6 5.6 6.6 9.3 8.9 2.5 1.5 6 .2 7.2-2.3 1.4-2.7.2-5.7-2.3-7.2-1.9-1.2-3.9-3.2-5.2-5.2-1.6-2.4-4.9-3.2-7.4-1.6z"/></g><g fill="#333"><path d="M1726.7 2220.7c4.9 5.2 8.5 11.5 14 16.2 5.3 4.4 12.5-3.5 7.2-7.9-5.5-4.6-9.1-11-14-16.2-4.7-5-11.9 2.9-7.2 7.9zM1702.1 2220.7c4.9 5.2 8.5 11.5 14 16.2 5.3 4.4 12.5-3.5 7.2-7.9-5.5-4.6-9.1-11-14-16.2-4.7-5-11.9 2.9-7.2 7.9zM1677.4 2220.7c4.9 5.2 8.5 11.5 14 16.2 5.3 4.4 12.5-3.5 7.2-7.9-5.5-4.6-9.1-11-14-16.2-4.7-5-11.9 2.9-7.2 7.9zM1652.8 2220.7c4.9 5.2 8.5 11.5 14 16.2 5.3 4.4 12.5-3.5 7.2-7.9-5.5-4.6-9.1-11-14-16.2-4.7-5-11.9 2.9-7.2 7.9zM1628.1 2220.7c4.9 5.2 8.5 11.5 14 16.2 5.3 4.4 12.5-3.5 7.2-7.9-5.5-4.6-9.1-11-14-16.2-4.7-5-11.9 2.9-7.2 7.9zM1603.5 2220.7c4.9 5.2 8.5 11.5 14 16.2 5.3 4.4 12.5-3.5 7.2-7.9-5.5-4.6-9.1-11-14-16.2-4.7-5-11.9 2.9-7.2 7.9zM1759.4 2221.4c-2.4 1.6-3.2 5-1.6 7.4 2.4 3.6 5.6 6.6 9.3 8.9 2.5 1.5 6 .2 7.2-2.3 1.4-2.7.2-5.7-2.3-7.2-1.9-1.2-3.9-3.2-5.2-5.2-1.6-2.4-4.9-3.2-7.4-1.6zM1785.9 2221.4c-2.4 1.6-3.2 5-1.6 7.4 2.4 3.6 5.6 6.6 9.3 8.9 2.5 1.5 6 .2 7.2-2.3 1.4-2.7.2-5.7-2.3-7.2-1.9-1.2-3.9-3.2-5.2-5.2-1.6-2.4-4.9-3.2-7.4-1.6z"/><g><path d="M1575.5 2220.7c4.9 5.2 8.5 11.5 14 16.2 5.3 4.4 12.5-3.5 7.2-7.9-5.5-4.6-9.1-11-14-16.2-4.7-5-11.9 2.9-7.2 7.9zM1550.9 2220.7c4.9 5.2 8.5 11.5 14 16.2 5.3 4.4 12.5-3.5 7.2-7.9-5.5-4.6-9.1-11-14-16.2-4.7-5-11.9 2.9-7.2 7.9zM1526.2 2220.7c4.9 5.2 8.5 11.5 14 16.2 5.3 4.4 12.5-3.5 7.2-7.9-5.5-4.6-9.1-11-14-16.2-4.7-5-11.9 2.9-7.2 7.9zM1501.6 2220.7c4.9 5.2 8.5 11.5 14 16.2 5.3 4.4 12.5-3.5 7.2-7.9-5.5-4.6-9.1-11-14-16.2-4.7-5-11.9 2.9-7.2 7.9zM1476.9 2220.7c4.9 5.2 8.5 11.5 14 16.2 5.3 4.4 12.5-3.5 7.2-7.9-5.5-4.6-9.1-11-14-16.2-4.7-5-11.9 2.9-7.2 7.9zM1452.3 2220.7c4.9 5.2 8.5 11.5 14 16.2 5.3 4.4 12.5-3.5 7.2-7.9-5.5-4.6-9.1-11-14-16.2-4.7-5-11.9 2.9-7.2 7.9z"/></g><g><path d="M1425 2220.7c4.9 5.2 8.5 11.5 14 16.2 5.3 4.4 12.5-3.5 7.2-7.9-5.5-4.6-9.1-11-14-16.2-4.7-5-11.9 2.9-7.2 7.9zM1400.4 2220.7c4.9 5.2 8.5 11.5 14 16.2 5.3 4.4 12.5-3.5 7.2-7.9-5.5-4.6-9.1-11-14-16.2-4.7-5-11.9 2.9-7.2 7.9zM1375.7 2220.7c4.9 5.2 8.5 11.5 14 16.2 5.3 4.4 12.5-3.5 7.2-7.9-5.5-4.6-9.1-11-14-16.2-4.7-5-11.9 2.9-7.2 7.9zM1351.1 2220.7c4.9 5.2 8.5 11.5 14 16.2 5.3 4.4 12.5-3.5 7.2-7.9-5.5-4.6-9.1-11-14-16.2-4.7-5-11.9 2.9-7.2 7.9zM1326.4 2220.7c4.9 5.2 8.5 11.5 14 16.2 5.3 4.4 12.5-3.5 7.2-7.9-5.5-4.6-9.1-11-14-16.2-4.7-5-11.9 2.9-7.2 7.9zM1301.8 2220.7c4.9 5.2 8.5 11.5 14 16.2 5.3 4.4 12.5-3.5 7.2-7.9-5.5-4.6-9.1-11-14-16.2-4.7-5-11.9 2.9-7.2 7.9z"/></g></g></g><g fill="#333"><path d="M921.3 2429.4c4.9 5.2 8.5 11.5 14 16.2 5.3 4.4 12.5-3.5 7.2-7.9-5.5-4.6-9.1-11-14-16.2-4.7-5-11.9 2.9-7.2 7.9zM896.6 2429.4c4.9 5.2 8.5 11.5 14 16.2 5.3 4.4 12.5-3.5 7.2-7.9-5.5-4.6-9.1-11-14-16.2-4.7-5-11.9 2.9-7.2 7.9zM872 2429.4c4.9 5.2 8.5 11.5 14 16.2 5.3 4.4 12.5-3.5 7.2-7.9-5.5-4.6-9.1-11-14-16.2-4.7-5-11.9 2.9-7.2 7.9zM847.3 2429.4c4.9 5.2 8.5 11.5 14 16.2 5.3 4.4 12.5-3.5 7.2-7.9-5.5-4.6-9.1-11-14-16.2-4.7-5-11.9 2.9-7.2 7.9zM822.7 2429.4c4.9 5.2 8.5 11.5 14 16.2 5.3 4.4 12.5-3.5 7.2-7.9-5.5-4.6-9.1-11-14-16.2-4.7-5-11.9 2.9-7.2 7.9zM798 2429.4c4.9 5.2 8.5 11.5 14 16.2 5.3 4.4 12.5-3.5 7.2-7.9-5.5-4.6-9.1-11-14-16.2-4.7-5-11.9 2.9-7.2 7.9zM954 2430.1c-2.4 1.6-3.2 5-1.6 7.4 2.4 3.6 5.6 6.6 9.3 8.9 2.5 1.5 6 .2 7.2-2.3 1.4-2.7.2-5.7-2.3-7.2-1.9-1.2-3.9-3.2-5.2-5.2-1.6-2.5-4.9-3.2-7.4-1.6zM980.4 2430.1c-2.4 1.6-3.2 5-1.6 7.4 2.4 3.6 5.6 6.6 9.3 8.9 2.5 1.5 6 .2 7.2-2.3 1.4-2.7.2-5.7-2.3-7.2-1.9-1.2-3.9-3.2-5.2-5.2-1.6-2.5-4.9-3.2-7.4-1.6z"/><g><path d="M770.1 2429.4c4.9 5.2 8.5 11.5 14 16.2 5.3 4.4 12.5-3.5 7.2-7.9-5.5-4.6-9.1-11-14-16.2-4.7-5-11.9 2.9-7.2 7.9zM745.4 2429.4c4.9 5.2 8.5 11.5 14 16.2 5.3 4.4 12.5-3.5 7.2-7.9-5.5-4.6-9.1-11-14-16.2-4.7-5-11.9 2.9-7.2 7.9zM720.8 2429.4c4.9 5.2 8.5 11.5 14 16.2 5.3 4.4 12.5-3.5 7.2-7.9-5.5-4.6-9.1-11-14-16.2-4.7-5-11.9 2.9-7.2 7.9zM696.1 2429.4c4.9 5.2 8.5 11.5 14 16.2 5.3 4.4 12.5-3.5 7.2-7.9-5.5-4.6-9.1-11-14-16.2-4.7-5-11.9 2.9-7.2 7.9zM671.5 2429.4c4.9 5.2 8.5 11.5 14 16.2 5.3 4.4 12.5-3.5 7.2-7.9-5.5-4.6-9.1-11-14-16.2-4.7-5-11.9 2.9-7.2 7.9zM646.8 2429.4c4.9 5.2 8.5 11.5 14 16.2 5.3 4.4 12.5-3.5 7.2-7.9-5.5-4.6-9.1-11-14-16.2-4.7-5-11.9 2.9-7.2 7.9z"/></g><g><path d="M619.6 2429.4c4.9 5.2 8.5 11.5 14 16.2 5.3 4.4 12.5-3.5 7.2-7.9-5.5-4.6-9.1-11-14-16.2-4.7-5-11.9 2.9-7.2 7.9zM594.9 2429.4c4.9 5.2 8.5 11.5 14 16.2 5.3 4.4 12.5-3.5 7.2-7.9-5.5-4.6-9.1-11-14-16.2-4.7-5-11.9 2.9-7.2 7.9zM570.3 2429.4c4.9 5.2 8.5 11.5 14 16.2 5.3 4.4 12.5-3.5 7.2-7.9-5.5-4.6-9.1-11-14-16.2-4.7-5-11.9 2.9-7.2 7.9zM545.6 2429.4c4.9 5.2 8.5 11.5 14 16.2 5.3 4.4 12.5-3.5 7.2-7.9-5.5-4.6-9.1-11-14-16.2-4.7-5-11.9 2.9-7.2 7.9zM521 2429.4c4.9 5.2 8.5 11.5 14 16.2 5.3 4.4 12.5-3.5 7.2-7.9-5.5-4.6-9.1-11-14-16.2-4.7-5-11.9 2.9-7.2 7.9zM496.3 2429.4c4.9 5.2 8.5 11.5 14 16.2 5.3 4.4 12.5-3.5 7.2-7.9-5.5-4.6-9.1-11-14-16.2-4.7-5-11.9 2.9-7.2 7.9z"/></g><g><path d="M2097 2495.5c4.9 5.2 8.5 11.5 14 16.2 5.3 4.4 12.5-3.5 7.2-7.9-5.5-4.6-9.1-11-14-16.2-4.7-5-11.9 2.9-7.2 7.9zM2072.4 2495.5c4.9 5.2 8.5 11.5 14 16.2 5.3 4.4 12.5-3.5 7.2-7.9-5.5-4.6-9.1-11-14-16.2-4.7-5-11.9 2.9-7.2 7.9zM2047.7 2495.5c4.9 5.2 8.5 11.5 14 16.2 5.3 4.4 12.5-3.5 7.2-7.9-5.5-4.6-9.1-11-14-16.2-4.7-5-11.9 2.9-7.2 7.9zM2023.1 2495.5c4.9 5.2 8.5 11.5 14 16.2 5.3 4.4 12.5-3.5 7.2-7.9-5.5-4.6-9.1-11-14-16.2-4.7-5-11.9 2.9-7.2 7.9zM1998.4 2495.5c4.9 5.2 8.5 11.5 14 16.2 5.3 4.4 12.5-3.5 7.2-7.9-5.5-4.6-9.1-11-14-16.2-4.7-5-11.9 2.9-7.2 7.9zM1973.8 2495.5c4.9 5.2 8.5 11.5 14 16.2 5.3 4.4 12.5-3.5 7.2-7.9-5.5-4.6-9.1-11-14-16.2-4.7-5-11.9 2.9-7.2 7.9zM2129.7 2496.2c-2.4 1.6-3.2 5-1.6 7.4 2.4 3.6 5.6 6.6 9.3 8.9 2.5 1.5 6 .2 7.2-2.3 1.4-2.7.2-5.7-2.3-7.2-1.9-1.2-3.9-3.2-5.2-5.2-1.6-2.4-4.9-3.2-7.4-1.6zM2156.2 2496.2c-2.4 1.6-3.2 5-1.6 7.4 2.4 3.6 5.6 6.6 9.3 8.9 2.5 1.5 6 .2 7.2-2.3 1.4-2.7.2-5.7-2.3-7.2-1.9-1.2-3.9-3.2-5.2-5.2-1.6-2.4-4.9-3.2-7.4-1.6z"/><g><path d="M1945.8 2495.5c4.9 5.2 8.5 11.5 14 16.2 5.3 4.4 12.5-3.5 7.2-7.9-5.5-4.6-9.1-11-14-16.2-4.7-5-11.9 2.9-7.2 7.9zM1921.2 2495.5c4.9 5.2 8.5 11.5 14 16.2 5.3 4.4 12.5-3.5 7.2-7.9-5.5-4.6-9.1-11-14-16.2-4.7-5-11.9 2.9-7.2 7.9zM1896.5 2495.5c4.9 5.2 8.5 11.5 14 16.2 5.3 4.4 12.5-3.5 7.2-7.9-5.5-4.6-9.1-11-14-16.2-4.7-5-11.9 2.9-7.2 7.9zM1871.9 2495.5c4.9 5.2 8.5 11.5 14 16.2 5.3 4.4 12.5-3.5 7.2-7.9-5.5-4.6-9.1-11-14-16.2-4.7-5-11.9 2.9-7.2 7.9zM1847.2 2495.5c4.9 5.2 8.5 11.5 14 16.2 5.3 4.4 12.5-3.5 7.2-7.9-5.5-4.6-9.1-11-14-16.2-4.7-5-11.9 2.9-7.2 7.9zM1822.6 2495.5c4.9 5.2 8.5 11.5 14 16.2 5.3 4.4 12.5-3.5 7.2-7.9-5.5-4.6-9.1-11-14-16.2-4.7-5-11.9 2.9-7.2 7.9z"/></g><g><path d="M1795.3 2495.5c4.9 5.2 8.5 11.5 14 16.2 5.3 4.4 12.5-3.5 7.2-7.9-5.5-4.6-9.1-11-14-16.2-4.7-5-11.9 2.9-7.2 7.9zM1770.7 2495.5c4.9 5.2 8.5 11.5 14 16.2 5.3 4.4 12.5-3.5 7.2-7.9-5.5-4.6-9.1-11-14-16.2-4.7-5-11.9 2.9-7.2 7.9zM1746 2495.5c4.9 5.2 8.5 11.5 14 16.2 5.3 4.4 12.5-3.5 7.2-7.9-5.5-4.6-9.1-11-14-16.2-4.7-5-11.9 2.9-7.2 7.9zM1721.4 2495.5c4.9 5.2 8.5 11.5 14 16.2 5.3 4.4 12.5-3.5 7.2-7.9-5.5-4.6-9.1-11-14-16.2-4.7-5-11.9 2.9-7.2 7.9zM1696.7 2495.5c4.9 5.2 8.5 11.5 14 16.2 5.3 4.4 12.5-3.5 7.2-7.9-5.5-4.6-9.1-11-14-16.2-4.7-5-11.9 2.9-7.2 7.9zM1672.1 2495.5c4.9 5.2 8.5 11.5 14 16.2 5.3 4.4 12.5-3.5 7.2-7.9-5.5-4.6-9.1-11-14-16.2-4.7-5-11.9 2.9-7.2 7.9z"/></g></g><path d="M1161.4 2356.3H531.5c-6.9 0-6.9 10.7 0 10.7h629.9c6.9 0 6.9-10.7 0-10.7zM2086.9 2433.5h-955.6c-6.9 0-6.9 10.7 0 10.7h955.6c6.9 0 6.9-10.7 0-10.7zM1731.3 2364.9h-347.1c-6.9 0-6.9 10.7 0 10.7h347.1c6.9 0 6.9-10.7 0-10.7zM1907 2364.9h-115.7c-6.9 0-6.9 10.7 0 10.7H1907c6.9 0 6.9-10.7 0-10.7z"/></g><g><path fill="#F2E7E7" d="M2297.5 292.3c0-5.7-7.3-6.7-9.8-3-.5-.1-1-.2-1.5-.2H1776.7c-1.4-2.1-4.1-3.2-6.8-1.4-.7.5-1.4.9-2.1 1.4H1658c-3.1-1.1-7.4.5-7.4 4.8v158.5c0 2.5 1.4 4.1 3.1 4.8v448.9c0 3 2 4.7 4.3 5.1v260.6c0 1.6.6 2.8 1.4 3.6.5 2.1 2.2 3.9 5 3.9h626.7c3.8 0 5.5-3.2 5.1-6.1.8-.8 1.3-2 1.3-3.5V292.3z"/><path fill="#333" d="M2297.5 292.3c0-5.7-7.3-6.7-9.8-3-.5-.1-1-.2-1.5-.2H1776.7c-1.4-2.1-4.1-3.2-6.8-1.4-.7.5-1.4.9-2.1 1.4H1658c-3.1-1.1-7.4.5-7.4 4.8v158.5c0 2.5 1.4 4.1 3.1 4.8v448.9c0 3 2 4.7 4.3 5.1v260.6c0 1.6.6 2.8 1.4 3.6.5 2.1 2.2 3.9 5 3.9h626.7c3.8 0 5.5-3.2 5.1-6.1.8-.8 1.3-2 1.3-3.5V292.3zm-10.7 876.3h-67c-.7-1.8-2.3-3.2-4.8-3.2h-546.3s-5.8-732.3-5.8-735.9c0 0-1.1-35.6-1.6-35.1v-94.5H1815c1.4 0 2.4.4 3.3 1.1h430c1.4 0 2.4-.4 3.3-1.1h28.9V708c0 3.9 3.4 5.6 6.4 5.1v455.5z"/><g><path fill="#FFF" d="M2236.2 328.4h-499.5v110h-112.2v775.8h630.3V328.4z"/><path fill="#E2D5D5" d="M1752.4 329.3s10 119.8-4 130.4c-14 10.6-134.3 5.1-134.3 5.1l138.3-135.5z"/><path fill="#333" d="M2227.6 826.2c-3.2 5.2-7.5 9.8-10.7 15-3.6 5.9 5.6 11.3 9.2 5.4 3.2-5.2 7.5-9.8 10.7-15 3.7-5.9-5.6-11.3-9.2-5.4zM2228.7 850.8c-3.1 5.1-6.6 9.9-9.6 15-3.6 5.9 5.7 11.3 9.2 5.4 3.1-5.1 6.6-9.9 9.6-15 3.6-5.9-5.7-11.3-9.2-5.4zM2233 877.6c-4.1 5.9-9.5 10.7-12.9 17.1-3.2 6.1 6 11.5 9.2 5.4 3.3-6.4 8.8-11.2 12.9-17.1 3.9-5.7-5.4-11.1-9.2-5.4zM2227.6 915.1c-3.2 5.2-7.5 9.8-10.7 15-3.6 5.9 5.6 11.3 9.2 5.4 3.2-5.2 7.5-9.8 10.7-15 3.7-5.9-5.6-11.3-9.2-5.4zM2228.7 939.7c-3.1 5.1-6.6 9.9-9.6 15-3.6 5.9 5.7 11.3 9.2 5.4 3.1-5.1 6.6-9.9 9.6-15 3.6-5.9-5.7-11.3-9.2-5.4zM2233 966.5c-4.1 5.9-9.5 10.7-12.9 17.1-3.2 6.1 6 11.5 9.2 5.4 3.3-6.4 8.8-11.2 12.9-17.1 3.9-5.7-5.4-11-9.2-5.4zM2239.2 998.6c-2-2-5.5-2.1-7.6 0-3 3.1-5.3 6.8-6.7 10.9-1 2.8 1.1 5.9 3.7 6.6 3 .8 5.6-1 6.6-3.7.7-2.1 2.3-4.5 4-6.2 2.1-2.1 2.1-5.5 0-7.6zM1769.3 1170.6c4.9 5.2 8.5 11.6 14 16.2 5.3 4.4 12.5-3.5 7.2-7.9-5.5-4.6-9.1-11-14-16.2-4.7-5-11.9 2.9-7.2 7.9zM1744.7 1170.6c4.9 5.2 8.5 11.6 14 16.2 5.3 4.4 12.5-3.5 7.2-7.9-5.5-4.6-9.1-11-14-16.2-4.8-5-12 2.9-7.2 7.9zM1720 1170.6c4.9 5.2 8.5 11.6 14 16.2 5.3 4.4 12.5-3.5 7.2-7.9-5.5-4.6-9.1-11-14-16.2-4.7-5-11.9 2.9-7.2 7.9zM1695.4 1170.6c4.9 5.2 8.5 11.6 14 16.2 5.3 4.4 12.5-3.5 7.2-7.9-5.5-4.6-9.1-11-14-16.2-4.8-5-11.9 2.9-7.2 7.9zM1670.7 1170.6c4.9 5.2 8.5 11.6 14 16.2 5.3 4.4 12.5-3.5 7.2-7.9-5.5-4.6-9.1-11-14-16.2-4.7-5-11.9 2.9-7.2 7.9zM1646.1 1170.6c4.9 5.2 8.5 11.6 14 16.2 5.3 4.4 12.5-3.5 7.2-7.9-5.5-4.6-9.1-11-14-16.2-4.8-5-11.9 2.9-7.2 7.9zM1802 1171.3c-2.4 1.6-3.2 5-1.6 7.4 2.4 3.6 5.6 6.6 9.3 8.9 2.5 1.5 6 .2 7.2-2.3 1.4-2.7.2-5.7-2.3-7.2-1.9-1.2-3.9-3.2-5.2-5.2-1.6-2.4-4.9-3.2-7.4-1.6zM1828.5 1171.3c-2.4 1.6-3.2 5-1.6 7.4 2.4 3.6 5.6 6.6 9.3 8.9 2.5 1.5 6 .2 7.2-2.3 1.4-2.7.2-5.7-2.3-7.2-1.9-1.2-3.9-3.2-5.2-5.2-1.6-2.4-4.9-3.2-7.4-1.6z"/><g fill="#333"><path d="M2061.9 365.7c4.9 5.2 8.5 11.6 14 16.2 5.3 4.4 12.5-3.5 7.2-7.9-5.5-4.6-9.1-11-14-16.2-4.7-5-11.9 3-7.2 7.9zM2037.2 365.7c4.9 5.2 8.5 11.6 14 16.2 5.3 4.4 12.5-3.5 7.2-7.9-5.5-4.6-9.1-11-14-16.2-4.7-5-11.9 3-7.2 7.9zM2012.6 365.7c4.9 5.2 8.5 11.6 14 16.2 5.3 4.4 12.5-3.5 7.2-7.9-5.5-4.6-9.1-11-14-16.2-4.7-5-11.9 3-7.2 7.9zM1987.9 365.7c4.9 5.2 8.5 11.6 14 16.2 5.3 4.4 12.5-3.5 7.2-7.9-5.5-4.6-9.1-11-14-16.2-4.7-5-11.9 3-7.2 7.9zM1963.3 365.7c4.9 5.2 8.5 11.6 14 16.2 5.3 4.4 12.5-3.5 7.2-7.9-5.5-4.6-9.1-11-14-16.2-4.7-5-11.9 3-7.2 7.9zM1938.6 365.7c4.9 5.2 8.5 11.6 14 16.2 5.3 4.4 12.5-3.5 7.2-7.9-5.5-4.6-9.1-11-14-16.2-4.7-5-11.9 3-7.2 7.9zM2094.6 366.4c-2.4 1.6-3.2 5-1.6 7.4 2.4 3.6 5.6 6.6 9.3 8.9 2.5 1.5 6 .2 7.2-2.3 1.4-2.7.2-5.7-2.3-7.2-1.9-1.2-3.9-3.2-5.2-5.2-1.6-2.4-4.9-3.2-7.4-1.6zM2121 366.4c-2.4 1.6-3.2 5-1.6 7.4 2.4 3.6 5.6 6.6 9.3 8.9 2.5 1.5 6 .2 7.2-2.3 1.4-2.7.2-5.7-2.3-7.2-1.9-1.2-3.9-3.2-5.2-5.2-1.6-2.4-4.9-3.2-7.4-1.6z"/></g><path fill="#F2E7E7" d="M1736.7 328.4v110h-112.2z"/><path fill="#333" d="M2259 328.6c0-5.7-7.3-6.7-9.8-3-.5-.1-1-.2-1.5-.2H1746s-3.5 0-7.5.3c-1.4-2.3-4.1-3.6-7-1.8-44.3 28.4-71.4 75.1-111.1 108.7-.9.2-1.8.7-2.5 1.4-1 1-1.5 2.4-1.5 3.7-.7.8-1.1 1.9-1.1 3.3v501.3c0 3 2 4.7 4.3 5.1V1208c0 1.6.6 2.8 1.4 3.6.5 2.1 2.2 3.9 5 3.9h626.7c3.8 0 5.5-3.2 5.1-6.1.8-.8 1.3-2 1.3-3.5V328.6zm-527.6 11.3v7.8c-.8 13.3-.2 26.7-.5 40.1-.2 9.7-.2 19.4-.4 29.1-.1 5.3-.6 10.8-.4 16.1h-91.8l93.1-93.1zm516.9 865h-67c-.7-1.8-2.3-3.2-4.8-3.2h-546.3V449.5c15.7 2 31.6 2.3 47.4 2.3 19.6.1 39-2 58.6-2.1 2.9 0 4.5-1.9 5-4 .8-1.1 1.2-2.6.7-4.4-.1-.3-.2-.7-.3-1 .4-1.1.4-2.3.1-3.5.3-.6.4-1.3.4-2.1v-88.1c.2-3.1.5-6.3.9-9.4h466.7c1.4 0 2.4-.4 3.3-1.1h28.9v408.1c0 3.9 3.4 5.6 6.4 5.1v455.6z"/><path fill="#333" d="M2157.8 758.8c-16.3-.1-32.6-1.2-48.9-.4-17.1.8-34.1 2.6-51.2 3.6-34.8 1.9-69.6 2.6-104.4 2.8-70 .4-140.1-1.8-210.1-2.5-13.9-.1-27.8-.2-41.8-.2-6.9 0-6.9 10.7 0 10.7 70 0 139.9 2.2 209.9 2.7 34.9.3 69.9.1 104.8-1 17.3-.5 34.7-1.3 52-2.3 16.8-1 33.7-3 50.6-3.3 13.1-.2 26.1.7 39.2.7 6.8 0 6.8-10.7-.1-10.8zM2157.8 818.9c-16.3-.1-32.6-1.2-48.9-.4-17.1.8-34.1 2.6-51.2 3.6-34.8 1.9-69.6 2.6-104.4 2.8-70 .4-140.1-1.8-210.1-2.5-13.9-.1-27.8-.2-41.8-.2-6.9 0-6.9 10.7 0 10.7 70 0 139.9 2.2 209.9 2.7 34.9.3 69.9.1 104.8-1 17.3-.5 34.7-1.3 52-2.3 16.8-1 33.7-3 50.6-3.3 13.1-.2 26.1.7 39.2.7 6.8-.1 6.8-10.8-.1-10.8zM2157.8 881c-16.3-.1-32.6-1.2-48.9-.4-17.1.8-34.1 2.6-51.2 3.6-34.8 1.9-69.6 2.6-104.4 2.8-70 .4-140.1-1.8-210.1-2.5-13.9-.1-27.8-.2-41.8-.2-6.9 0-6.9 10.7 0 10.7 70 0 139.9 2.2 209.9 2.7 34.9.3 69.9.1 104.8-1 17.3-.5 34.7-1.3 52-2.3 16.8-1 33.7-3 50.6-3.3 13.1-.2 26.1.7 39.2.7 6.8-.1 6.8-10.8-.1-10.8zM2157.8 947.3c-16.3-.1-32.6-1.2-48.9-.4-17.1.8-34.1 2.6-51.2 3.6-34.8 1.9-69.6 2.6-104.4 2.8-70 .4-140.1-1.8-210.1-2.5-13.9-.1-27.8-.2-41.8-.2-6.9 0-6.9 10.7 0 10.7 70 0 139.9 2.2 209.9 2.7 34.9.3 69.9.1 104.8-1 17.3-.5 34.7-1.3 52-2.3 16.8-1 33.7-3 50.6-3.3 13.1-.2 26.1.7 39.2.7 6.8-.1 6.8-10.8-.1-10.8zM2157.8 1007.3c-16.3-.1-32.6-1.2-48.9-.4-17.1.8-34.1 2.6-51.2 3.6-34.8 1.9-69.6 2.6-104.4 2.8-70 .4-140.1-1.8-210.1-2.5-13.9-.1-27.8-.2-41.8-.2-6.9 0-6.9 10.7 0 10.7 70 0 139.9 2.2 209.9 2.7 34.9.3 69.9.1 104.8-1 17.3-.5 34.7-1.3 52-2.3 16.8-1 33.7-3 50.6-3.3 13.1-.2 26.1.7 39.2.7 6.8-.1 6.8-10.8-.1-10.8zM2157.8 1069.4c-16.3-.1-32.6-1.2-48.9-.4-17.1.8-34.1 2.6-51.2 3.6-34.8 1.9-69.6 2.6-104.4 2.8-70 .4-140.1-1.8-210.1-2.5-13.9-.1-27.8-.2-41.8-.2-6.9 0-6.9 10.7 0 10.7 70 0 139.9 2.2 209.9 2.7 34.9.3 69.9.1 104.8-1 17.3-.5 34.7-1.3 52-2.3 16.8-1 33.7-3 50.6-3.3 13.1-.2 26.1.7 39.2.7 6.8 0 6.8-10.7-.1-10.8z"/></g></g><g><path fill="#FBAA3B" d="M1076 994.4c.3-2.3-.8-4.7-3.8-5.2-5.8-1.1-11.8-1.2-17.5-2.7v-1.8c3.6-1.9 7.2-4.3 11-4.7 2.4-.2 4.5-1.6 5.1-3.9 2.1-1 3.6-3.2 2.9-6.1-1.5-5.6-3.6-11-5.7-16.4-.6-1.5-1.6-2.8-3-3.4-1-1.9-3.1-3.2-5.8-2.1-5.3 2.1-10.8 3.5-16 5.8-2-2.1-3.6-4.6-5.3-7 3.6-4.5 6.9-9.1 10.2-13.8 1.5-2.2 1.1-4.3-.3-5.8-.2-1-.7-2-1.7-2.8-4-3.6-8.3-6.6-12.1-10.4-1.5-1.5-3.3-1.8-4.9-1.4-2-.5-4.3.1-5.6 2.4-2.3 4.2-6 7.4-9.4 10.7-3.3-.9-6.5-2.3-9.4-4.1 1.2-5.6 3-11.6 1.4-17.2-.3-.9-.7-1.7-1.3-2.2-.4-.6-1.1-1.2-1.9-1.7-5.9-3.2-12.9-3.9-19.5-3.9-1.9 0-3.2.8-4.1 1.9-1.6.8-2.8 2.3-3 4.5-.2 1.8-1.4 4.6-2.1 6.6-.7 2.2-.9 4.4-1.3 6.6-3.8 1-7.8 1.1-11.7 1.8-1.9-3.5-4-7.2-4.3-11.1-.2-3.6-3.2-5.9-6.8-5.2-7.1 1.5-13.8 4.7-20.2 8-3 1.6-3.5 6.1-1.1 8.4 2.8 2.6 4.5 8.1 5.3 12.5-.9.6-1.9 1.2-2.8 1.8-.8.6-1.7 1.1-2.5 1.6-.3.2-.6.4-1 .6-.1.1-1.7.8-.5.3l-1.2.6c-4.4-3.6-11.2-9.3-16.4-8-1.6-.5-3.5-.3-5.1 1.3-7.5 7.2-18 15.7-7.4 25.5 2 1.8 4.3 3.2 6.4 4.9.6.4.8.8.9 1-.5 1.4-1.5 2.8-2.1 4.1l-.6 1.2c-.4-.1-.8-.3-1.1-.4-4.4-1.5-8.6-2.9-13.4-3.2-2.8-.2-5.5 2.6-5.4 5.4.4 8.6-3.2 16.7-2.5 25.4.2 2.8 2.3 5.5 5.4 5.4 4.6-.2 8.9 1.7 13.5 2.5-.1 2.8.3 5.6.8 8.4-4.3 1.9-8.3 4.4-12.8 5.7-2.4.6-3.8 2.8-3.9 5.2-.5 7.7 5.2 14.9 8.2 21.6.5 1.1 1.2 1.9 2.1 2.3 0 .1.1.1.1.2 1.4 2.3 5 3.7 7.3 1.9 3.9-2.9 8.4-4.8 13.1-6.1 1.4 2.2 3 4.3 4.5 6.5-3.2 3.3-6.7 6.1-9.8 9.5-1.2 1.3-1.6 2.7-1.5 4-.6 2.5.4 5.6 3.5 6.7 5.5 2 9.4 7.4 13.7 11.1.9.8 1.8 1.2 2.7 1.3 1.1.8 2.6 1.2 4.3.8 3.6-.8 6.5-3.6 9-6.2 1.3-1.3 2.5-2.7 3.8-4 .7-.7 1.3-1.4 2-2.1.1-.1.7-.7 1.1-1 2.3.9 4.6 1.8 6.8 2.8-1.5 5.3-3.9 10.4-4.4 16-.1 1.5.2 2.6.9 3.4.1 2.6 1.9 5.1 5.2 5.1 6 .2 11.8 1.9 17.8 2.4 3 2.2 8.6.8 9-4.2.3-3.8 2.3-7.4 3.4-11.1.8-2.6 1-5.4 1.3-8.1 1.3-.4 2.7-.8 4-1 .1.1.2.3.3.4 4 4.4 7.4 9.8 9.3 15.5 1 3 3.8 4 6.2 3.6 1.4.9 3.3 1.1 5.2-.1 2.6-1.6 5.7-2.3 8.4-3.7 2.8-1.3 5.1-3.6 7.6-5.3 1.4-.9 2.2-2.2 2.4-3.6 1-1.9 1.1-4.2-.6-6.3-3.3-4.1-5.4-9-8-13.6 2.2-1.6 4.4-3.2 6.5-4.9 1.3.9 2.7 3.1 3.8 4.2 2 2 5.5 2.9 6.8 5.4 1.1 2.1 2.8 2.8 4.6 2.7 1.8.9 3.9.7 5.6-1.2 5.4-6.1 10.7-12.1 16.1-18.2 1.6-1.8 1.7-3.9 1-5.6-.2-.8-.6-1.6-1.4-2.3-2.3-2.3-5.4-3.5-8.2-5-3.4-1.9-6.5-4.5-9.5-7 1.8-3 3.9-6 5.3-9.2 6.9 1.6 16 3.3 20.1-1.4 2.9-3.3 3.1-8.5 3.6-12.6.6-2.6 1.1-6.2.4-9.2zm-65.8 5.4c-2.6 12.2-10.3 19.3-21.8 23.3-10 3.4-25.6 1.9-33.5-5.8-8.5-8.3-10.1-21.9-8.2-33.1.1-.5.2-1 .3-1.6 1.1-.6 1.9-1.7 2.1-3.4.2-1.2.4-2.3.7-3.3 4.1-6.8 11.5-12.1 19.1-12 2.5 0 4.1-1.4 4.8-3.1 4-.3 8.1 0 11.9.6 8.5 1.3 16.3 4.3 21.1 11.8 5.1 7.8 5.4 17.9 3.5 26.6z"/><path fill="#333" d="M1076 994.4c.3-2.3-.8-4.7-3.8-5.2-5.8-1.1-11.8-1.2-17.5-2.7v-1.8c3.6-1.9 7.2-4.3 11-4.7 2.4-.2 4.5-1.6 5.1-3.9 2.1-1 3.6-3.2 2.9-6.1-1.5-5.6-3.6-11-5.7-16.4-.6-1.5-1.6-2.8-3-3.4-1-1.9-3.1-3.2-5.8-2.1-5.3 2.1-10.8 3.5-16 5.8-2-2.1-3.6-4.6-5.3-7 3.6-4.5 6.9-9.1 10.2-13.8 1.5-2.2 1.1-4.3-.3-5.8-.2-1-.7-2-1.7-2.8-4-3.6-8.3-6.6-12.1-10.4-1.5-1.5-3.3-1.8-4.9-1.4-2-.5-4.3.1-5.6 2.4-2.3 4.2-6 7.4-9.4 10.7-3.3-.9-6.5-2.3-9.4-4.1 1.2-5.6 3-11.6 1.4-17.2-.3-.9-.7-1.7-1.3-2.2-.4-.6-1.1-1.2-1.9-1.7-5.9-3.2-12.9-3.9-19.5-3.9-1.9 0-3.2.8-4.1 1.9-1.6.8-2.8 2.3-3 4.5-.2 1.8-1.4 4.6-2.1 6.6-.7 2.2-.9 4.4-1.3 6.6-3.8 1-7.8 1.1-11.7 1.8-1.9-3.5-4-7.2-4.3-11.1-.2-3.6-3.2-5.9-6.8-5.2-7.1 1.5-13.8 4.7-20.2 8-3 1.6-3.5 6.1-1.1 8.4 2.8 2.6 4.5 8.1 5.3 12.5-.9.6-1.9 1.2-2.8 1.8-.8.6-1.7 1.1-2.5 1.6-.3.2-.6.4-1 .6-.1.1-1.7.8-.5.3l-1.2.6c-4.4-3.6-11.2-9.3-16.4-8-1.6-.5-3.5-.3-5.1 1.3-7.5 7.2-18 15.7-7.4 25.5 2 1.8 4.3 3.2 6.4 4.9.6.4.8.8.9 1-.5 1.4-1.5 2.8-2.1 4.1l-.6 1.2c-.4-.1-.8-.3-1.1-.4-4.4-1.5-8.6-2.9-13.4-3.2-2.8-.2-5.5 2.6-5.4 5.4.4 8.6-3.2 16.7-2.5 25.4.2 2.8 2.3 5.5 5.4 5.4 4.6-.2 8.9 1.7 13.5 2.5-.1 2.8.3 5.6.8 8.4-4.3 1.9-8.3 4.4-12.8 5.7-2.4.6-3.8 2.8-3.9 5.2-.5 7.7 5.2 14.9 8.2 21.6.5 1.1 1.2 1.9 2.1 2.3 0 .1.1.1.1.2 1.4 2.3 5 3.7 7.3 1.9 3.9-2.9 8.4-4.8 13.1-6.1 1.4 2.2 3 4.3 4.5 6.5-3.2 3.3-6.7 6.1-9.8 9.5-1.2 1.3-1.6 2.7-1.5 4-.6 2.5.4 5.6 3.5 6.7 5.5 2 9.4 7.4 13.7 11.1.9.8 1.8 1.2 2.7 1.3 1.1.8 2.6 1.2 4.3.8 3.6-.8 6.5-3.6 9-6.2 1.3-1.3 2.5-2.7 3.8-4 .7-.7 1.3-1.4 2-2.1.1-.1.7-.7 1.1-1 2.3.9 4.6 1.8 6.8 2.8-1.5 5.3-3.9 10.4-4.4 16-.1 1.5.2 2.6.9 3.4.1 2.6 1.9 5.1 5.2 5.1 6 .2 11.8 1.9 17.8 2.4 3 2.2 8.6.8 9-4.2.3-3.8 2.3-7.4 3.4-11.1.8-2.6 1-5.4 1.3-8.1 1.3-.4 2.7-.8 4-1 .1.1.2.3.3.4 4 4.4 7.4 9.8 9.3 15.5 1 3 3.8 4 6.2 3.6 1.4.9 3.3 1.1 5.2-.1 2.6-1.6 5.7-2.3 8.4-3.7 2.8-1.3 5.1-3.6 7.6-5.3 1.4-.9 2.2-2.2 2.4-3.6 1-1.9 1.1-4.2-.6-6.3-3.3-4.1-5.4-9-8-13.6 2.2-1.6 4.4-3.2 6.5-4.9 1.3.9 2.7 3.1 3.8 4.2 2 2 5.5 2.9 6.8 5.4 1.1 2.1 2.8 2.8 4.6 2.7 1.8.9 3.9.7 5.6-1.2 5.4-6.1 10.7-12.1 16.1-18.2 1.6-1.8 1.7-3.9 1-5.6-.2-.8-.6-1.6-1.4-2.3-2.3-2.3-5.4-3.5-8.2-5-3.4-1.9-6.5-4.5-9.5-7 1.8-3 3.9-6 5.3-9.2 6.9 1.6 16 3.3 20.1-1.4 2.9-3.3 3.1-8.5 3.6-12.6.6-2.6 1.1-6.2.4-9.2zm-10.7 8.3c-.1 1.4-.4 2.8-.6 4.1-.1.5-.2 1-.3 1.6-.4 0-.9.1-1.4.1-1.5 0-3-.3-4.5-.5-2.8-.4-5.6-1-8.4-1.6-2.6-.6-6.1.8-6.6 3.7-.7 4.3-3.7 7.9-5.9 11.6-.8 1.4-.9 2.7-.6 3.9-2.1 1.9-2.8 5 0 7.2 3.6 2.9 7.2 5.8 10.9 8.5 1.5 1.1 3.4 1.9 5.3 2.9l-9 10.2c-1.5-1.1-3.2-2.1-4.8-3.5-2.9-2.6-4.8-6-8.6-7.2-2.2-1.7-4.9-1.2-7.1.5-3.4 2.7-6.9 5.2-10.3 7.7-.3.2-.5.4-.8.7-.8.3-1.5.7-2.1 1.2-2.3 2.3-1.8 5.3 0 7.6 3.4 4.4 5.5 9.6 8.3 14.4-1.3 1-2.7 2-4.1 2.8-1.8 1-3.8 1.6-5.8 2.4-2.4-5.5-5.8-10.6-9.7-15.2-.4-2.6-2.6-4.5-5.3-4.6-4.3-.3-8.4 1-12.5 2.2-2.2-.1-4.3 1-4.8 3.9-.8 4.2-1.1 8.5-2.2 12.7-.6 2-1.3 3.9-1.9 5.7-4.2-.4-8.4-1.3-12.6-1.9.9-4.9 3.5-9.5 4.5-14.4.6-2.7-.7-4.7-2.5-5.8-.3-1.3-1.1-2.5-2.4-3.1-4-1.8-8.1-3.2-12.1-5-2.7-1.2-5.7-.8-7.3 1.9-.2.4-.4.8-.5 1.3-2 1.8-3.9 3.8-5.7 5.8-1.2 1.3-2.5 2.6-3.8 3.8-.3.2-.4.3-.4.4-3.4-3.1-6.5-6.3-10.2-8.9 3.1-2.9 6.4-5.8 9.1-9.1 1.8-2.3 2.2-5.3 0-7.6 0 0-.1 0-.1-.1-.1-.1-.1-.2-.2-.3-2.1-3.4-5.5-6.5-7-10.1-1-2.5-3.3-4.4-6-3.9-.4 0-.8 0-1.3.1-5.1 1-10.3 2.8-15 5.4-1.8-3.3-4.3-7-5.3-10.6 4.6-2 8.9-4.8 13.8-5.9 4.2-.9 4.7-5.3 2.8-8.1 0-.2-.1-.4-.1-.6-.9-3.6-1.5-7.4-.7-11.1.8-3.6-1.9-6.2-4.7-6.6-.8-.5-1.8-.9-3-.9-4 0-7.6-1.5-11.4-2.3.3-4.7 1.5-9.4 2.2-14.1 5.1 1.7 10.5 4.6 15.3 2 2.6-1.4 3.4-4.8 4.6-7.2 1.4-2.9 3.7-6.2 3.2-9.6-.7-6.1-6.5-8.7-10.7-12.3-1-.9-1.2-1.7-1.5-1.4.7-1.1 1.6-2 2.5-2.9 1.4-1.5 2.9-2.8 4.4-4.1h1.1c.2.1.3.1.4.2 1.3.7 2.5 1.6 3.7 2.4 2.5 1.7 3.1 2.3 5 3.8 2 1.6 4.7 2.1 6.8.6 1 .4 2.1.4 3.1 0 4-1.6 7.2-4.3 10.9-6.3.2-.1.4-.3.6-.4 2-.6 3.6-2.2 3.5-4.9-.2-5.2-1.7-11.9-4.5-17.3 2.3-1.1 4.6-2 7-2.8 1.5 4.6 4 8.8 6.1 13.2 1 2.1 3.9 3.1 6 2.5 5.5-1.5 11.3-1.3 16.8-2.9.4-.1.7-.3 1.1-.4 2-.1 4-1.3 4.8-3.7 1.1-3.2 1.1-6.6 2-9.8.5-1.7 1.1-3.4 1.6-5.1 3.4.1 6.9.5 10 1.8.3 3.8-1.5 8.2-2.1 11.8-.3 1.4-.1 2.8.5 4 .1 1.8 1.1 3.4 2.6 4.5 4 3 9 5.1 13.8 6.5 1.8 2.4 5.2 3.4 7.7.5 3.6-4.1 7.8-7.7 11.2-11.9 2.3 2 4.7 3.8 7 5.8-2.9 4-5.8 8-9 11.8-1.1 1.3-1.6 2.9-1.5 4.5-.2 1.6.4 3.2 1.5 4.5 2.8 3.3 4.8 7.2 7.9 10.4.6.6 1.2 1 1.8 1.2 1.4 2.3 4.2 3.8 7.2 2.1 4.4-2.5 9.3-3.8 14.1-5.4 1.3 3.4 2.6 6.8 3.6 10.2-2.1.5-4.2 1.2-6.3 2.2-3 1.4-5.6 3.3-8.7 4.3-1.8.6-2.9 1.9-3.4 3.3-.5 1.1-.7 2.4-.3 3.7 0 .1.2.8.2.9v1.3c0 1.1-.1 2.1-.1 3.2 0 .6.1 1.2.3 1.8.1 2.1 1.2 4.2 3.6 5.2 5.7 2.2 11.7 2.5 17.6 3.3-.1 1.1-.2 2.3-.3 3.6zm-111.8-47.4c-6.8 3.5-11.6 9.7-13.7 16.8l-.9 1.8c-5.4 10.9-4.5 26.1-.3 37.2 10.4 27.7 48 30.7 69.2 13.9 9.6-7.6 13.6-21.4 14.2-33.1.5-11-3.1-22.1-10.7-30.2-13.3-14.3-41.3-14.9-57.8-6.4zm56.7 44.5c-2.6 12.2-10.3 19.3-21.8 23.3-10 3.4-25.6 1.9-33.5-5.8-8.5-8.3-10.1-21.9-8.2-33.1.1-.5.2-1 .3-1.6 1.1-.6 1.9-1.7 2.1-3.4.2-1.2.4-2.3.7-3.3 4.1-6.8 11.5-12.1 19.1-12 2.5 0 4.1-1.4 4.8-3.1 4-.3 8.1 0 11.9.6 8.5 1.3 16.3 4.3 21.1 11.8 5.1 7.8 5.4 17.9 3.5 26.6z"/><path fill="#333" d="M969.7 1040.8c-1.4 0-2.8.6-3.8 1.6-.7.7-1.1 1.5-1.3 2.4 0 0 0 .1-.1.1v-.1.2c-.1.2-.3.5-.4.7-2 2.1-2 5.4.1 7.5 2 2 5.6 2.1 7.6 0 1.8-1.9 3.2-4.4 3.4-7 .1-3-2.7-5.4-5.5-5.4zM988.8 1043.3c-.5-2.9-4-4.5-6.6-3.7-2.4.7-3.7 2.7-3.8 5-.4.6-.7 1.2-1.2 1.7-.8 1.1-.9 2.9-.5 4.1.4 1.3 1.3 2.5 2.5 3.2 1.2.7 2.7.9 4.1.5 1.5-.4 2.3-1.3 3.2-2.5.6-.8 1.1-1.5 1.6-2.4.9-1.9 1.1-3.8.7-5.9zM1001.3 1039.7c-.8-2.8-3.7-4.5-6.6-3.7-2.4.7-4.1 3.1-3.9 5.6-1.5 2.1-1.4 5 .5 6.9 2 2 5.6 2.1 7.6 0 2.1-2.4 3.3-5.6 2.4-8.8zM1014.9 1032.2c-.6-2.9-3.9-4.5-6.6-3.7-2.7.7-4.1 3.2-3.8 5.8-1.6 2.1-1.5 5.1.4 7.1 2 2 5.6 2.1 7.6 0 2.3-2.6 3.1-5.8 2.4-9.2zM1023.6 1018.4c-2.6-.7-6.1.9-6.6 3.7-.4 2.2-.8 4.3-1.4 6.4-.9 2.8 1 5.8 3.7 6.6 2.9.8 5.7-1 6.6-3.7.7-2.1 1.1-4.3 1.4-6.4.5-2.8-.7-5.7-3.7-6.6z"/><path fill="#FBAA3B" d="M2395.5 1774.9c.3-2.3-.8-4.7-3.8-5.2-5.8-1.1-11.8-1.2-17.5-2.7v-1.8c3.6-1.9 7.2-4.3 11-4.7 2.4-.2 4.5-1.6 5.1-3.9 2.1-1 3.6-3.2 2.9-6.1-1.5-5.6-3.6-11-5.7-16.4-.6-1.5-1.6-2.8-3-3.4-1-1.9-3.1-3.2-5.8-2.1-5.3 2.1-10.8 3.5-16 5.8-2-2.1-3.6-4.6-5.3-7 3.6-4.5 6.9-9.1 10.2-13.8 1.5-2.2 1.1-4.3-.2-5.8-.2-1-.7-2-1.7-2.8-4-3.6-8.3-6.6-12.1-10.4-1.5-1.5-3.3-1.8-4.9-1.4-2-.5-4.3.1-5.6 2.4-2.4 4.2-6 7.4-9.4 10.7-3.3-.9-6.5-2.3-9.4-4.1 1.2-5.6 3-11.6 1.4-17.2-.3-.9-.7-1.7-1.3-2.2-.4-.6-1.1-1.2-1.9-1.7-5.9-3.2-12.9-3.9-19.5-3.9-1.9 0-3.2.8-4.1 1.9-1.6.8-2.8 2.3-3 4.5-.2 1.8-1.4 4.6-2.1 6.6-.7 2.2-.9 4.4-1.3 6.6-3.8 1-7.8 1.2-11.7 1.8-1.9-3.5-4-7.2-4.3-11.1-.2-3.6-3.2-5.9-6.8-5.2-7.1 1.5-13.8 4.7-20.2 8-3 1.6-3.5 6.1-1.1 8.4 2.8 2.6 4.5 8.1 5.3 12.5-.9.6-1.9 1.2-2.8 1.8-.8.6-1.7 1.1-2.5 1.6-.3.2-.6.4-1 .6-.1.1-1.7.8-.5.3l-1.2.6c-4.4-3.6-11.2-9.3-16.4-8-1.6-.5-3.5-.3-5.1 1.3-7.5 7.2-18 15.7-7.4 25.5 2 1.8 4.3 3.2 6.4 4.9.6.4.8.8.9 1-.5 1.4-1.5 2.8-2.1 4.1-.2.4-.4.8-.5 1.2-.4-.1-.8-.3-1.1-.4-4.4-1.5-8.6-2.9-13.4-3.2-2.8-.2-5.5 2.6-5.4 5.4.4 8.6-3.2 16.7-2.5 25.4.2 2.8 2.3 5.5 5.4 5.4 4.6-.2 8.9 1.7 13.5 2.5-.1 2.8.3 5.6.8 8.4-4.3 1.9-8.3 4.4-12.8 5.7-2.4.6-3.8 2.8-3.9 5.2-.5 7.7 5.2 14.9 8.2 21.6.5 1.1 1.2 1.9 2.1 2.3 0 .1.1.1.1.2 1.4 2.3 5 3.7 7.3 1.9 3.9-2.9 8.4-4.8 13.1-6.1 1.4 2.2 3 4.3 4.5 6.5-3.2 3.3-6.7 6.1-9.8 9.5-1.2 1.3-1.6 2.7-1.5 4-.6 2.5.4 5.6 3.5 6.7 5.5 2 9.4 7.4 13.7 11.1.9.8 1.8 1.2 2.7 1.3 1.1.8 2.6 1.2 4.3.8 3.6-.8 6.5-3.6 9-6.2 1.3-1.3 2.5-2.7 3.8-4 .7-.7 1.3-1.4 2-2.1.1-.1.7-.7 1.1-1 2.3.9 4.6 1.8 6.8 2.8-1.5 5.3-3.9 10.4-4.4 16-.1 1.5.2 2.6.9 3.4.1 2.6 1.9 5.1 5.2 5.1 6 .2 11.8 1.9 17.8 2.4 3 2.2 8.6.8 9-4.2.3-3.8 2.3-7.4 3.4-11.1.7-2.6 1-5.4 1.3-8.1 1.3-.4 2.7-.8 4-1 .1.1.2.3.3.4 4 4.4 7.4 9.8 9.3 15.5 1 3 3.8 4 6.2 3.6 1.4.9 3.3 1.1 5.2-.1 2.6-1.6 5.7-2.3 8.4-3.7 2.8-1.3 5.1-3.6 7.6-5.3 1.4-.9 2.2-2.2 2.4-3.6 1-1.9 1.1-4.2-.6-6.3-3.3-4.1-5.4-9-8-13.6 2.2-1.6 4.4-3.2 6.5-4.9 1.3.9 2.7 3.1 3.8 4.2 2 2 5.5 2.9 6.8 5.4 1.1 2.1 2.8 2.8 4.6 2.7 1.8.9 3.9.7 5.6-1.2 5.4-6.1 10.7-12.1 16.1-18.2 1.6-1.8 1.7-3.9 1-5.6-.2-.8-.6-1.6-1.4-2.3-2.3-2.3-5.4-3.5-8.2-5-3.4-1.9-6.5-4.5-9.5-7 1.8-3 3.9-6 5.3-9.2 6.9 1.6 16 3.3 20.1-1.4 2.9-3.3 3.1-8.5 3.6-12.6.5-2.5 1-6.2.2-9.2zm-65.7 5.5c-2.6 12.2-10.3 19.3-21.8 23.3-10 3.4-25.6 1.9-33.5-5.8-8.5-8.3-10.1-21.9-8.2-33.1.1-.5.2-1 .3-1.6 1.1-.6 1.9-1.7 2.1-3.4.2-1.2.4-2.3.7-3.3 4.1-6.8 11.5-12.1 19.1-12 2.5 0 4.1-1.4 4.8-3.2 4-.3 8.1 0 11.9.6 8.5 1.3 16.3 4.3 21.1 11.8 5 7.8 5.3 17.9 3.5 26.7z"/><path fill="#333" d="M2395.5 1774.9c.3-2.3-.8-4.7-3.8-5.2-5.8-1.1-11.8-1.2-17.5-2.7v-1.8c3.6-1.9 7.2-4.3 11-4.7 2.4-.2 4.5-1.6 5.1-3.9 2.1-1 3.6-3.2 2.9-6.1-1.5-5.6-3.6-11-5.7-16.4-.6-1.5-1.6-2.8-3-3.4-1-1.9-3.1-3.2-5.8-2.1-5.3 2.1-10.8 3.5-16 5.8-2-2.1-3.6-4.6-5.3-7 3.6-4.5 6.9-9.1 10.2-13.8 1.5-2.2 1.1-4.3-.2-5.8-.2-1-.7-2-1.7-2.8-4-3.6-8.3-6.6-12.1-10.4-1.5-1.5-3.3-1.8-4.9-1.4-2-.5-4.3.1-5.6 2.4-2.4 4.2-6 7.4-9.4 10.7-3.3-.9-6.5-2.3-9.4-4.1 1.2-5.6 3-11.6 1.4-17.2-.3-.9-.7-1.7-1.3-2.2-.4-.6-1.1-1.2-1.9-1.7-5.9-3.2-12.9-3.9-19.5-3.9-1.9 0-3.2.8-4.1 1.9-1.6.8-2.8 2.3-3 4.5-.2 1.8-1.4 4.6-2.1 6.6-.7 2.2-.9 4.4-1.3 6.6-3.8 1-7.8 1.2-11.7 1.8-1.9-3.5-4-7.2-4.3-11.1-.2-3.6-3.2-5.9-6.8-5.2-7.1 1.5-13.8 4.7-20.2 8-3 1.6-3.5 6.1-1.1 8.4 2.8 2.6 4.5 8.1 5.3 12.5-.9.6-1.9 1.2-2.8 1.8-.8.6-1.7 1.1-2.5 1.6-.3.2-.6.4-1 .6-.1.1-1.7.8-.5.3l-1.2.6c-4.4-3.6-11.2-9.3-16.4-8-1.6-.5-3.5-.3-5.1 1.3-7.5 7.2-18 15.7-7.4 25.5 2 1.8 4.3 3.2 6.4 4.9.6.4.8.8.9 1-.5 1.4-1.5 2.8-2.1 4.1-.2.4-.4.8-.5 1.2-.4-.1-.8-.3-1.1-.4-4.4-1.5-8.6-2.9-13.4-3.2-2.8-.2-5.5 2.6-5.4 5.4.4 8.6-3.2 16.7-2.5 25.4.2 2.8 2.3 5.5 5.4 5.4 4.6-.2 8.9 1.7 13.5 2.5-.1 2.8.3 5.6.8 8.4-4.3 1.9-8.3 4.4-12.8 5.7-2.4.6-3.8 2.8-3.9 5.2-.5 7.7 5.2 14.9 8.2 21.6.5 1.1 1.2 1.9 2.1 2.3 0 .1.1.1.1.2 1.4 2.3 5 3.7 7.3 1.9 3.9-2.9 8.4-4.8 13.1-6.1 1.4 2.2 3 4.3 4.5 6.5-3.2 3.3-6.7 6.1-9.8 9.5-1.2 1.3-1.6 2.7-1.5 4-.6 2.5.4 5.6 3.5 6.7 5.5 2 9.4 7.4 13.7 11.1.9.8 1.8 1.2 2.7 1.3 1.1.8 2.6 1.2 4.3.8 3.6-.8 6.5-3.6 9-6.2 1.3-1.3 2.5-2.7 3.8-4 .7-.7 1.3-1.4 2-2.1.1-.1.7-.7 1.1-1 2.3.9 4.6 1.8 6.8 2.8-1.5 5.3-3.9 10.4-4.4 16-.1 1.5.2 2.6.9 3.4.1 2.6 1.9 5.1 5.2 5.1 6 .2 11.8 1.9 17.8 2.4 3 2.2 8.6.8 9-4.2.3-3.8 2.3-7.4 3.4-11.1.7-2.6 1-5.4 1.3-8.1 1.3-.4 2.7-.8 4-1 .1.1.2.3.3.4 4 4.4 7.4 9.8 9.3 15.5 1 3 3.8 4 6.2 3.6 1.4.9 3.3 1.1 5.2-.1 2.6-1.6 5.7-2.3 8.4-3.7 2.8-1.3 5.1-3.6 7.6-5.3 1.4-.9 2.2-2.2 2.4-3.6 1-1.9 1.1-4.2-.6-6.3-3.3-4.1-5.4-9-8-13.6 2.2-1.6 4.4-3.2 6.5-4.9 1.3.9 2.7 3.1 3.8 4.2 2 2 5.5 2.9 6.8 5.4 1.1 2.1 2.8 2.8 4.6 2.7 1.8.9 3.9.7 5.6-1.2 5.4-6.1 10.7-12.1 16.1-18.2 1.6-1.8 1.7-3.9 1-5.6-.2-.8-.6-1.6-1.4-2.3-2.3-2.3-5.4-3.5-8.2-5-3.4-1.9-6.5-4.5-9.5-7 1.8-3 3.9-6 5.3-9.2 6.9 1.6 16 3.3 20.1-1.4 2.9-3.3 3.1-8.5 3.6-12.6.5-2.5 1-6.2.2-9.2zm-10.7 8.3c-.1 1.4-.4 2.8-.6 4.1-.1.5-.2 1-.3 1.6-.4 0-.9.1-1.4.1-1.5-.1-3-.3-4.5-.5-2.8-.4-5.6-1-8.4-1.6-2.6-.6-6.1.8-6.6 3.7-.7 4.3-3.7 7.9-5.9 11.6-.8 1.4-.9 2.7-.6 3.9-2.1 1.9-2.8 5 0 7.2 3.6 2.9 7.2 5.8 10.9 8.5 1.5 1.1 3.4 1.9 5.3 2.9l-9 10.2c-1.5-1.1-3.2-2.1-4.8-3.5-2.9-2.6-4.8-6-8.6-7.2-2.2-1.7-4.9-1.2-7.1.5-3.4 2.7-6.9 5.2-10.3 7.7-.3.2-.5.4-.8.7-.8.3-1.5.7-2.1 1.2-2.3 2.3-1.8 5.3 0 7.6 3.4 4.4 5.5 9.6 8.3 14.4-1.3 1-2.7 2-4.1 2.8-1.8 1-3.8 1.6-5.8 2.4-2.4-5.5-5.8-10.6-9.7-15.2-.4-2.6-2.6-4.5-5.3-4.6-4.3-.3-8.4 1-12.5 2.2-2.2-.1-4.3 1-4.8 3.9-.8 4.2-1.1 8.5-2.2 12.7-.6 2-1.3 3.9-1.9 5.7-4.2-.4-8.4-1.3-12.6-1.9.9-4.9 3.5-9.5 4.5-14.4.6-2.7-.7-4.7-2.5-5.8-.3-1.3-1.1-2.5-2.4-3.1-4-1.8-8.1-3.2-12.1-5-2.7-1.2-5.7-.8-7.3 1.9-.2.4-.4.8-.5 1.3-2 1.8-3.9 3.8-5.7 5.8-1.2 1.3-2.5 2.6-3.8 3.8-.3.2-.4.3-.4.4-3.4-3.1-6.5-6.3-10.2-8.9 3.1-2.9 6.4-5.8 9.1-9.1 1.8-2.3 2.2-5.3 0-7.6 0 0-.1 0-.1-.1s-.1-.2-.1-.3c-2.1-3.4-5.5-6.5-7-10.1-1-2.5-3.3-4.3-6-3.9-.4 0-.8 0-1.3.1-5.1 1-10.3 2.8-15 5.4-1.8-3.3-4.3-7-5.3-10.6 4.6-2 8.9-4.8 13.8-5.9 4.2-.9 4.7-5.3 2.8-8.1 0-.2-.1-.4-.1-.6-.9-3.6-1.5-7.4-.7-11.1.8-3.6-1.9-6.2-4.7-6.6-.8-.5-1.8-.9-3-.9-4 0-7.6-1.5-11.4-2.3.3-4.7 1.5-9.3 2.2-14.1 5.1 1.7 10.5 4.6 15.3 2 2.6-1.4 3.4-4.8 4.6-7.2 1.4-2.9 3.7-6.2 3.2-9.6-.7-6.1-6.5-8.7-10.7-12.3-1-.9-1.2-1.7-1.5-1.4.7-1.1 1.6-2 2.5-2.9 1.4-1.5 2.9-2.8 4.4-4.1h1.1c.2.1.3.1.4.2 1.3.7 2.5 1.6 3.7 2.4 2.5 1.7 3.1 2.3 5 3.8 2 1.6 4.7 2.1 6.8.6 1 .4 2.1.4 3.1 0 4-1.6 7.2-4.3 10.9-6.3.2-.1.4-.3.6-.4 2-.6 3.6-2.2 3.5-4.9-.2-5.2-1.7-11.9-4.5-17.3 2.3-1.1 4.6-2 7-2.8 1.5 4.6 4 8.8 6.1 13.2 1 2.1 3.9 3.1 6 2.5 5.5-1.5 11.3-1.3 16.8-2.9.4-.1.7-.2 1.1-.4 2-.1 4-1.3 4.8-3.7 1.1-3.2 1.1-6.6 2-9.8.5-1.7 1.1-3.4 1.6-5.1 3.4.1 6.9.5 10 1.8.3 3.8-1.5 8.2-2.1 11.8-.3 1.4-.1 2.8.5 4 .1 1.8 1.1 3.4 2.6 4.5 4 3 9 5.1 13.8 6.5 1.8 2.4 5.2 3.4 7.7.5 3.6-4.1 7.8-7.7 11.2-11.9 2.3 2 4.7 3.8 7 5.8-2.8 4-5.8 8-9 11.8-1.1 1.3-1.6 2.9-1.5 4.5-.2 1.6.4 3.2 1.5 4.5 2.8 3.3 4.8 7.2 7.9 10.4.6.6 1.2 1 1.8 1.2 1.4 2.3 4.2 3.8 7.2 2.1 4.4-2.5 9.3-3.8 14.1-5.4 1.3 3.4 2.6 6.8 3.6 10.2-2.1.5-4.2 1.2-6.3 2.2-3 1.4-5.6 3.3-8.7 4.3-1.8.6-2.9 1.9-3.4 3.3-.5 1.1-.7 2.4-.3 3.7 0 .1.2.8.2.9v1.3c0 1.1-.1 2.1-.1 3.2 0 .6.1 1.2.3 1.8.1 2.1 1.2 4.2 3.6 5.2 5.7 2.2 11.7 2.5 17.6 3.3-.1 1.1-.2 2.4-.4 3.6zm-111.7-47.3c-6.8 3.5-11.6 9.7-13.7 16.8l-.9 1.8c-5.4 10.9-4.5 26.1-.3 37.2 10.4 27.7 48 30.7 69.2 13.9 9.6-7.6 13.6-21.4 14.2-33.1.5-11-3.1-22.1-10.7-30.2-13.4-14.4-41.4-14.9-57.8-6.4zm56.7 44.5c-2.6 12.2-10.3 19.3-21.8 23.3-10 3.4-25.6 1.9-33.5-5.8-8.5-8.3-10.1-21.9-8.2-33.1.1-.5.2-1 .3-1.6 1.1-.6 1.9-1.7 2.1-3.4.2-1.2.4-2.3.7-3.3 4.1-6.8 11.5-12.1 19.1-12 2.5 0 4.1-1.4 4.8-3.2 4-.3 8.1 0 11.9.6 8.5 1.3 16.3 4.3 21.1 11.8 5 7.8 5.3 17.9 3.5 26.7z"/><path fill="#333" d="M2289.2 1821.3c-1.4 0-2.8.6-3.8 1.6-.7.7-1.1 1.5-1.3 2.4 0 0 0 .1-.1.1v-.1.2c-.1.2-.3.5-.4.7-2 2.1-2 5.4.1 7.5 2 2 5.6 2.1 7.6 0 1.8-1.9 3.2-4.4 3.4-7 .1-3-2.7-5.4-5.5-5.4zM2308.3 1823.8c-.5-2.9-4-4.5-6.6-3.7-2.4.7-3.7 2.7-3.8 5-.3.6-.7 1.2-1.2 1.7-.8 1.1-.9 2.9-.5 4.1.4 1.3 1.3 2.5 2.5 3.2 1.2.7 2.7.9 4.1.5 1.5-.4 2.3-1.3 3.2-2.5.6-.8 1.1-1.5 1.6-2.4.9-1.9 1.1-3.7.7-5.9zM2320.8 1820.2c-.8-2.8-3.7-4.5-6.6-3.7-2.4.7-4.1 3.1-3.9 5.6-1.5 2.1-1.4 5 .5 6.9 2 2 5.6 2.1 7.6 0 2.2-2.3 3.4-5.6 2.4-8.8zM2334.4 1812.7c-.6-2.9-3.9-4.5-6.6-3.7-2.7.7-4.1 3.2-3.8 5.8-1.6 2.1-1.5 5.1.4 7.1 2 2 5.6 2.1 7.6 0 2.3-2.6 3.2-5.8 2.4-9.2zM2343.2 1799c-2.6-.7-6.1.9-6.6 3.7-.4 2.2-.8 4.3-1.4 6.4-.9 2.8 1 5.8 3.7 6.6 2.9.8 5.7-1 6.6-3.7.7-2.1 1.1-4.3 1.4-6.4.5-2.9-.7-5.8-3.7-6.6zM1311.3 687.6h-16.1v16.1c0 6.9-10.7 6.9-10.7 0v-16.1h-16.1c-6.9 0-6.9-10.7 0-10.7h16.1v-16.1c0-6.9 10.7-6.9 10.7 0v16.1h16.1c6.9 0 6.9 10.7 0 10.7zM1185.1 577.2c-1.2-.3-2.5-.2-3.8.5-10.5 5.7-16.9 20-10.5 30.9 6.4 10.9 25.6 10.5 32.8.8 9.9-13.3-5.2-36.5-18.5-32.2zm10 25.8c-2.4 4.4-12.4 4.2-15.1.3-2.5-3.5-1.2-8 1.4-11.5 1.8.2 3.8-.4 5.1-2.4.5-.7 1.1-1.5 1.7-1.9.4-.3.8-.3.8-.3 1.1.2 2.6 1.4 3.7 2.8 2.6 3.4 4.6 9 2.4 13zM547.7 1082.4h-16.1v16.1c0 6.9-10.7 6.9-10.7 0v-16.1h-16.1c-6.9 0-6.9-10.7 0-10.7H521v-16.1c0-6.9 10.7-6.9 10.7 0v16.1h16.1c6.8 0 6.8 10.7-.1 10.7zM514.3 773.2c.3-1.2.2-2.5-.5-3.8-5.7-10.5-20-16.9-30.9-10.5-10.9 6.4-10.5 25.6-.8 32.8 13.4 9.9 36.6-5.2 32.2-18.5zm-25.7 10c-4.4-2.4-4.2-12.4-.3-15.1 3.5-2.5 8-1.2 11.5 1.4-.2 1.8.4 3.8 2.4 5.1.7.5 1.5 1.1 1.9 1.7.3.4.3.8.3.8-.2 1.1-1.4 2.6-2.8 3.7-3.5 2.5-9 4.5-13 2.4zM345.5 2086.5h-16.1v16.1c0 6.9-10.7 6.9-10.7 0v-16.1h-16.1c-6.9 0-6.9-10.7 0-10.7h16.1v-16.1c0-6.9 10.7-6.9 10.7 0v16.1h16.1c6.9 0 6.9 10.7 0 10.7zM312.1 1777.2c.3-1.2.2-2.5-.5-3.8-5.7-10.5-20-16.9-30.9-10.5-10.9 6.4-10.5 25.6-.8 32.8 13.4 9.9 36.6-5.2 32.2-18.5zm-25.7 10c-4.4-2.4-4.2-12.4-.3-15.1 3.5-2.5 8-1.2 11.5 1.4-.2 1.8.4 3.8 2.4 5.1.7.5 1.5 1.1 1.9 1.7.3.4.3.8.3.8-.2 1.1-1.4 2.6-2.8 3.7-3.5 2.6-9 4.6-13 2.4zM2522.3 1403.6h-16.1v16.1c0 6.9-10.7 6.9-10.7 0v-16.1h-16.1c-6.9 0-6.9-10.7 0-10.7h16.1v-16.1c0-6.9 10.7-6.9 10.7 0v16.1h16.1c6.9 0 6.9 10.7 0 10.7zM2193.1 2175.4H2177v16.1c0 6.9-10.7 6.9-10.7 0v-16.1h-16.1c-6.9 0-6.9-10.7 0-10.7h16.1v-16.1c0-6.9 10.7-6.9 10.7 0v16.1h16.1c6.9 0 6.9 10.7 0 10.7zM765.3 355.1h-16.1v16.1c0 6.9-10.7 6.9-10.7 0v-16.1h-16.1c-6.9 0-6.9-10.7 0-10.7h16.1v-16.1c0-6.9 10.7-6.9 10.7 0v16.1h16.1c6.9 0 6.9 10.7 0 10.7zM817.9 429.7h-16.1v16.1c0 6.9-10.7 6.9-10.7 0v-16.1H775c-6.9 0-6.9-10.7 0-10.7h16.1v-16.1c0-6.9 10.7-6.9 10.7 0V419h16.1c6.9 0 6.9 10.7 0 10.7zM2488.9 1094.3c.3-1.2.2-2.5-.5-3.8-5.7-10.5-20-16.9-30.9-10.5-10.9 6.4-10.5 25.6-.8 32.8 13.4 9.9 36.6-5.1 32.2-18.5zm-25.7 10.1c-4.4-2.4-4.2-12.4-.3-15.1 3.5-2.5 8-1.2 11.5 1.4-.2 1.8.4 3.8 2.4 5.1.7.5 1.5 1.1 1.9 1.7.3.4.3.8.3.8-.2 1.1-1.4 2.6-2.8 3.7-3.5 2.5-9.1 4.5-13 2.4zM2429.6 2141.1c.3-1.2.2-2.5-.5-3.8-5.7-10.5-20-16.9-30.9-10.5-10.9 6.4-10.5 25.6-.8 32.8 13.4 9.9 36.6-5.2 32.2-18.5zm-25.7 10c-4.4-2.4-4.2-12.4-.3-15.1 3.5-2.5 8-1.2 11.5 1.4-.2 1.8.4 3.8 2.4 5.1.7.5 1.5 1.1 1.9 1.7.3.4.3.8.3.8-.2 1.1-1.4 2.6-2.8 3.7-3.5 2.5-9 4.6-13 2.4z"/></g></svg>