<svg xmlns="http://www.w3.org/2000/svg" width="2122pt" height="2122pt" viewBox="0 0 2122 2122"><path style="fill-rule:nonzero;fill:#fff;fill-opacity:1;stroke-width:399.119;stroke-linecap:round;stroke-linejoin:round;stroke:#005261;stroke-opacity:1;stroke-dasharray:19357.3,947.909,49.8899,598.679;stroke-miterlimit:10" d="M15218.398 9691.602c561.72 0 1062.618-264.883 1382.383-676.016 232.5-297.305 369.727-670.977 369.727-1076.602v-1050.39c0-967.813-784.219-1752.5-1752.11-1752.5H5994.805c-967.344 0-1752.11 784.687-1752.11 1752.5v1050.39c0 482.422 194.61 920 510.39 1236.797 317.774 318.828 756.837 515.82 1241.72 515.82" transform="matrix(.1 0 0 -.1 0 2122)"/><path style="stroke:none;fill-rule:nonzero;fill:#b1dfdf;fill-opacity:1" d="M1060.398 1380.621c16.801 0 32.024-10.832 43.09-28.351h.012l180.488-245.47c8.551-2.331 14.871-10.402 14.871-20.019 0-11.441-8.91-20.71-19.898-20.71h-83.55V601.94c0-24.632-10.013-46.941-26.192-63.082-16.11-16.05-38.328-25.93-62.86-25.93h-91.558c-49.188 0-89.051 39.86-89.051 89.012v464.13h-83.297c-10.992 0-19.906 9.269-19.906 20.699h-.094l.098.14c.058 9.43 6.18 17.352 14.508 19.79l182.21 248.562h.09c10.871 15.699 25.23 25.36 41.04 25.36"/><path style="fill:none;stroke-width:399.119;stroke-linecap:round;stroke-linejoin:round;stroke:#005261;stroke-opacity:1;stroke-dasharray:20804.1,898.019,49.8899,598.679;stroke-miterlimit:10" d="M10603.984 7413.79c168.008 0 320.235 108.32 430.899 283.515h.117l1804.883 2454.687c85.508 23.32 148.71 104.024 148.71 200.195 0 114.415-89.1 207.11-198.984 207.11h-835.507v4641.289c0 246.328-100.118 469.414-261.915 630.82-161.093 160.508-383.28 259.297-628.593 259.297h-915.586c-491.875 0-890.508-398.594-890.508-890.117v-4641.29h-832.969c-109.922 0-199.062-92.694-199.062-206.991h-.938l.977-1.407c.586-94.296 61.797-173.515 145.078-197.89l1822.11-2485.625h.898c108.71-156.992 252.304-253.594 410.39-253.594Zm0 0" transform="matrix(.1 0 0 -.1 0 2122)"/><path style="fill:none;stroke-width:399.119;stroke-linecap:round;stroke-linejoin:round;stroke:#005261;stroke-opacity:1;stroke-dasharray:20754.2,748.349,49.8899,598.679;stroke-miterlimit:10" d="M6096.563 6508.906h8705.742" transform="matrix(.1 0 0 -.1 0 2122)"/></svg>