<svg xmlns="http://www.w3.org/2000/svg" height="4000" width="4000" xml:space="preserve"><path style="fill:none;fill-opacity:1;fill-rule:nonzero;stroke:none" d="M16300 0H0v16300h16300V0" transform="matrix(.2454 0 0 -.2454 0 4000)"/><path style="fill:#f78e7d;fill-opacity:1;fill-rule:nonzero;stroke:none" d="M13203.4 12736.7C8996.68 15700.7 880.576 9795.27 701.471 5536.46 580.182 2652.28 11560.7 1684.01 14365.8 4347.92c2307.7 2191.42 1065.3 6819.18-1162.4 8388.78" transform="matrix(.2454 0 0 -.2454 0 4000)"/><path style="fill:#fddfd2;fill-opacity:1;fill-rule:nonzero;stroke:none" d="m12306.7 16300 158.4-4040.1-181.5-34.9-9139.39-1754-260.91 99.7-508.61 4853.9 163.32 214.1 9768.69 661.3" transform="matrix(.17832 0 0 -.17832 0 4000)"/><path style="fill:#fddfd2;fill-opacity:1;fill-rule:nonzero;stroke:none" d="m10306.6 6023.99-24.3-120.72c-280.3-54.5-532.57 42.86-532.57 42.86 152.55 105.08 750.57 381.52 750.57 381.52l35.1 62.29s289 121.71 412.7 315.31c105-42.79 303.6 0 303.6 0-245.3-416.53-945.1-681.26-945.1-681.26zM10002 8609.01s288.1 27.23 494.5 132.06l258.2-166.81 468.4-318.24-268.6-371.12s-105.1 46.71-256.9 162.2c-151.9 115.48-577.5 299.8-577.5 299.8 13 120.65-118.1 262.11-118.1 262.11zm6175.8 833.13c-122.2 273.27-442.6 516.82-679.6 587.26-236.9 70.5-649.2 0-649.2 0l-254.4-120.09-145.4 80.48s-36.3 145.31-90.8 184.21c-54.5 39-179.1 67.5-179.1 67.5s241.4 451.6 363.4 804.6c121.9 353 116.8 783.8-534.7 949.9-651.4 166.2-874.6-147.9-874.6-147.9l-32.5-65-54.5-136.1s-53.2-83.1-92.1-150.6c-38.9-67.5-113.1-221.9-193.4-317.9-80.4-96.1-166.1-194.7-166.1-194.7l201.1-81.8s-4.1-108.2 54.6-291.9 303.6-341.3 303.6-341.3l-3.8-457.03-550.3-311.26-480.1-301.05-478.9-376.36-837 377.67s-120.7 114.17-245.3 111.62c-124.5-2.62-762.88-48.03-831.09-37-68.2 11.02-138.28-66.84-138.28-66.84s-363.96 110.94-395.1 93.44c-31.15-17.51-46.72-83.72 31.14-159.65 77.87-75.87 140.15-89.51 140.15-89.51s-111-74-132.36-149.87c-21.43-75.93 155.72-195.78 155.72-195.78v-65.09l-404.88 4.05-473.03 313.25-2246.36-449.67s-122.61-56.43-177.11-110.93c-54.51-54.51-79.81-125.64-79.81-125.64l1174.58-647.13 721.37 182.94s276.38 3.93 473.03 42.86c196.59 38.93 245.24 63.16 245.24 63.16s194.65 1.37 402.95-.75c208.3-2.11 424.32 163.39 424.32 163.39l48.71-58.43s-3.92-128.44 83.65-153.79c87.65-25.29 151.99-107.02 151.99-107.02l291.87-317.3s-488.08 97.3-604.13 97.3c-116.11 0-262.11-13.58-295.19-110.94-33.07-97.3 39.31-277.25 149.87-357.79 110.63-80.54 223.87-154.17 223.87-154.17s-994.7-210.23-1335.37-393.17c-340.6-183.01-809.77-319.24-1084.21-751.41-274.45-432.1-179.09-829.2-144.02-881.77 35.01-52.57-657.34-422.39-1038.84-1504.67l1610.35-211.6 403.26 606.08s-49.95-410.31 345.09-558.12c395.04-147.81 5201.72-23.23 6219.12 755.39 0 0 462 321.85 654.1 975.89 192 654.05 477.5 1660.9 576.1 1933.48 98.6 272.58 503.5 1155.04 519.1 1450.92 15.6 295.87 75.5 832.37-46.7 1105.64" transform="matrix(.21405 0 0 -.21405 0 4000)"/><path style="fill:#211d1d;fill-opacity:1;fill-rule:nonzero;stroke:none" d="M9799.1 8419.65c-25.15.62-62.18-.99-82.31-3.6-67.32-8.66-42.36-28.3 30.84-24.21l68.62 3.78v-37.16c0-26.32 5.21-37.16 17.72-37.16 13.81 0 16.97 10.84 14.3 48.62-3.34 48.06-3.96 48.61-49.17 49.73zm1054.5-312.38c-156.6-45.77-124.7-66.27 45.8-29.42 85.7 18.58 111.2 31.77 98.9 51.34-8.8 13.93-36.1 9.79-144.7-21.92zM10183 5089.25c-91.6-99.53-113.9-197.13-66.2-290.52 30.9-60.63 63.3-79.46 47.1-27.44-5.6 18.21-10.2 69.74-10.2 114.33 0 76.98 2.8 85.77 53.8 168.14 61.7 99.52 50 116.37-24.5 35.49zM5215.74 6363.29c-11.12 1.92-23.74-5.7-28.4-17.15-11.18-27.44-11.93-2136.69-.76-2147.84 5.49-5.51 11.89-6.44 16.01-2.29 14.05 14 27.42 629.04 30.28 1391.84 2.72 727.38 1.73 772.22-17.13 775.44zm4490.71 665.63c49.17 0 167.03 74.26 167.03 105.22 0 36.17-108.44-17.15-165.17-81.19-19.26-21.73-19.45-24.03-1.86-24.03zm-117.17 98.35c-33.88-90.36-32.33-111.91 7.37-102.68 43.47 10.16 48.06 13.81 48.06 38.64 0 30.35 66.32 103.31 110.91 122.01 83.55 34.99 174.77 1.86 156.63-56.79-26.94-86.77-131.42-147.95-245.81-143.81-58.34 2.11-98.96-8.3-126.96-32.63-10.28-8.92-28.3-13.63-38.33-10.04-15.3 5.64-17.4 17.22-11.21 61.81 12.57 90.36 31.21 140.27 66.14 177.25 48.8 51.65 63.73 27.43 33.2-53.76zM3922.22 6028.18c-138.7 213.91-365.16 561.28-503.23 772.03-137.88 210.45-312.59 478.48-387.58 594.73-166.05 257.32-189.41 284.76-218.01 256.15-16.8-16.79 2.29-1848.21 19.45-1865.37 4.11-4.09 10.29-3.41 15.44 1.73 4.71 4.71 11.15 395.74 14.29 868.09l5.72 859.48 331.1-503.25c182.11-276.77 452.82-685.95 601.58-909.21 333.71-500.96 936.14-1418.16 1062.92-1618.38 167.33-264.2 163.15-258.56 188.87-254.85 12.58 1.8 24.42 11.77 26.3 22.11 1.89 10.41-60.04 112.65-138.21 228.22-173.92 256.95-678.2 1023.59-1018.64 1548.52zm1476.51 805.72c-83.49-15.97-134.38-30.9-134.38-39.45 0-19.94 134.96-28.05 177.28-10.65 18.85 7.74 371.69 89.37 783.43 181.21 1535.95 342.67 2000.5 447.27 2630.52 592.25 355.67 81.87 650.28 152.6 655.29 157.3 16.91 15.86-7.99 19.57-60.57 8.98-331.76-66.45-1370.16-294.85-3253.85-715.67-364.83-81.5-723.81-159.78-797.72-173.97zm3853.71 1143.19c-104.48-46.39-210.45-66.08-402.62-75-149.81-6.94-163.93-5.7-220.16 18.95l-60.01 26.26-145.85-57.72c-80.02-31.71-186.54-66.08-236.15-76.18-114.38-23.28-285.81-23.9-349.97-1.23-27.43 9.66-59.82 17.09-73.2 16.78-21.86-.5-20.62-3.47 13.68-32.58 20.75-17.58 64.11-40.56 96.12-50.97 117.86-38.33 381.99-15.6 592.43 50.91 100.64 31.83 115.38 33.63 200.16 24.22 200.11-22.17 413.46 20.87 598.14 120.7 51.46 27.81 96.61 55.3 100.14 61 12.08 19.64-36.11 8.92-112.71-25.14zm-603.9-661.86c166.97 37.47 315.05 70.85 328.24 73.95 21.98 5.26 24.71 0 31.83-60.63 10.04-85.78 70.6-211.56 132.66-275.6 49.85-51.46 146.53-104.1 191.24-104.1 39.14 0 32.02 13.75-26.32 50.72-75.49 47.75-129.62 107.14-162.45 178.05-48.74 105.22-31.64 194.96 44.66 234.66 47 24.4 194.4 43.72 266.49 34.87l61.74-7.62-38.58-57.23c-46.82-69.54-71.78-148.63-80.64-256.14-6.07-73.21 10.97-188.83 25.58-173.84 3.04 3.09 6.57 46.32 7.87 95.49 1.98 79.46 7.74 101.2 49.73 189.26 26.2 54.94 61.81 118.97 79.52 143 17.65 23.97 32.26 44.47 32.57 45.71.31 1.24 39.45-5.2 86.33-14.31 46.7-8.98 129.81-24.4 182.45-33.69l96.62-17.15 177.82-181.28c97.6-99.52 219.9-215.64 271.1-257.38l93.2-76.05-21.7-42.3c-42.8-83.48-17.9-188.95 62.8-265.93 49.7-47.32 51.1-40.57 7.5 37.22-48.1 85.77-54.1 131.48-24.7 188.7l24.1 46.88 94.4-60.63c51.5-33.07 111.2-67.13 131.5-74.93 20.6-7.87 37.2-17.84 37.2-22.3 0-36.78-122.4-165.85-204.7-215.83-64.3-39.08-14.9-44.22 69.8-7.24 92.5 40.44 174.6 99.52 209.8 151.04l28 41.19 100.7 1.67c118.5 1.98 225.3 35.36 345.4 107.89 131.5 79.45 137.1 108.25 7.9 40.99-152.1-79.2-356-95.8-502-40.87-88.9 33.51-273.4 158.42-443.8 300.55-78.6 65.59-285.1 261.66-458.63 435.5-173.47 173.84-321.54 316.22-328.79 316.22-7.06 0-13.13-6.81-13.13-14.87 0-17.77 140.46-196.69 214.53-273.29 28.74-29.73 50.48-54.94 47.38-54.94-3.16 0-33.75 8.24-68.06 18.33-34.13 9.97-111.54 27.38-170.99 38.28l-108.63 20.06 77.72 15.24c76.67 15.05 107.82 33.44 94.51 55.67-4.03 6.63-16.72 12.58-27 12.58-10.72 0-196.7-41.38-414.01-92.04-1005.33-234.34-1600.73-370.28-1927.11-439.95-503.25-107.45-1471.57-325.88-1795.64-405.09-150.96-36.91-276.8-64.78-279.63-61.93-2.86 2.84-7.2 40.56-9.78 85.15-5.69 98.41-26.22 100.08-41.05 3.47-5.62-36.6-11.93-69.61-13.79-72.09-1.88-2.47-239.03 110.24-527.24 250.7-1099.1 535.52-1469.28 714.25-1707.54 824.55-267.63 123.86-300.16 147.7-337.01 246.86-25.06 67.5-36.94 81.68-46.93 56.04-15.16-38.83 1.54-143.43 27.22-170.37 24.56-25.82 25.05-33.2 25.49-385.46.52-412.83 28.16-1495.94 38.44-1506.22 3.79-3.78 9.68.55 13.15 9.72 3.46 9.1 4.75 427.14 2.86 928.1-1.88 500.96-2.66 911.5-1.71 911.5.94 0 178.41-89.74 394.57-199.54 215.95-109.68 781.72-391.16 1256.36-625.01l863.48-425.47 89.79 13.69c49.18 7.56 96.24 16.35 104.07 19.45 11.52 4.64 15.53-229.89 20.59-1204.32 3.46-666.74 11.17-1225.42 17.15-1244.31l10.86-34.31 7.21 44.59c11.16 69.11 31.33 949.28 39.96 1744.16l7.74 713.63 91.49 20.63c50.33 11.27 194.44 43.53 320.24 71.65 372.86 83.24 996.26 228.71 1326.66 309.47 317.89 77.72 878.37 207.66 1411.34 327.18zM4038.3 7419.34c-1230.61 606.3-1447.16 707.62-1381.58 646.5 33.16-30.97 2517.95-1265.63 2547.02-1265.63 8.03 0 14.86 9.73 14.86 21.12 0 16.04-45.17 42.86-185.85 110.36-102.26 49.11-549.55 268.41-994.45 487.65zm3841.68 552.92c-116.68-20.5-168.14-47.01-168.14-86.71 0-23.96-9.11-24.58 185.3 12.45 247.04 47.01 635.84 200.78 599.3 236.95-3.71 3.66-27.43.56-51.46-6.69-67.45-20.31-144.12-15.73-237.88 14.25-19.45 6.19-26.32 4.21-26.32-7.62 0-8.92 22.85-25.95 51.46-38.34l51.47-22.29-145.85-41.19c-80.01-22.6-196.32-50.04-257.88-60.81zm4135.62-771.79c-3.2 0-26.3 17.59-52.6 40.01-26.3 22.48-55.5 40.07-66.4 40.07-10.7 0-60.5-47.5-110.9-105.78-50.4-58.34-123.3-136.62-162.4-174.46-38.9-37.59-86.4-87.94-105.2-111.47-32.1-40.07-32.8-42.92-11.4-42.92 34.1 0 241.9 160.15 320.5 247.04l67.1 74.38 44.7-53.76c24.6-29.72 48.4-59.39 53.2-66.32 17.8-26.08 306.7 315.6 434.2 513.47 211.6 328.23 424.5 776.05 366.9 771.6-5-.38-41.3-65.9-80.8-145.98-75.5-153.03-233-411.71-345.3-567.29-67.8-93.76-340.6-418.59-351.6-418.59zM6899.86 8462.38c-216.82-35.36-291.14-51.03-298.38-99.52-4.77-31.59.99-47.5 103.92-45.15 109.8 2.48 242.09 57.72 273.48 81.69 30.41 23.22 9.66 77.41-79.02 62.98zm-569.58-4.03c65.77 23.29 15.98 44.22-65.21 27.38-132.65-27.5-156.5-39.7-236.66-120.95-44.01-44.59-83.63-92.22-89.47-107.52-12.62-33.07.19-42.67 188.9-141.76 75.48-39.69 209.32-114.32 297.38-165.91 88.07-51.59 216.95-125.16 286.49-163.56 69.74-38.46 175.02-102.06 235.03-141.88 176.44-117.11 130.37-113.77 451.73-32.89 327.12 82.31 395.98 103.8 402.67 125.6 7.68 24.83-89.3 10.77-385.52-55.86l-255.03-57.35-64.59 55.49c-35.37 30.34-113.83 90.67-173.29 133.21-59.82 42.86-179.54 132.1-266.49 198.68-239.05 183.13-434.75 322.47-442.06 314.85-10.03-10.4 128.69-135.87 351.7-318.2 114.39-93.51 208.16-172.23 208.16-174.7 0-2.54-21.74 7.8-48 22.78-311.14 177.5-567.6 321.18-625.63 350.35l-72.05 36.29 60.6 65.15c56.82 61.13 146.4 117.11 241.34 150.8zm794.88-212.54 54.88-45.71 54.93-45.76 101.75 28.61 101.82 28.55-49.18 42.92c-27.5 23.9-54.25 42.6-60.63 42.3-6.25-.32-54.93-11.96-107.51-25.71zm306.5 24.21c25.15-21.49 52.21-39.32 60.01-39.63 7.93-.31 62.92 13.06 122.38 29.72l108.13 30.29-48.06 37.9c-54.87 43.35-54.87 43.35-168.14 14.18-128.07-32.94-124.61-29.54-74.32-72.46zm85.22-125.41c-26.32 21.86-48.24 39.2-49.17 38.9-1-.31-41.75-12.64-90.92-27.44-49.23-14.86-91.53-29.23-94.38-32.02-2.79-2.85 14.86-21.3 38.89-40.63l44.03-35.48 56.05 17.15c30.84 9.48 75.56 22.3 99.46 28.62l43.48 11.45zm-166.41-144.67c-25.21-1.3-197.75-50.22-205.86-58.34-3.22-3.16 21.74-26.57 56.05-52.64l61.74-46.88 96.06 29.17c52.64 15.98 100.2 33.07 105.22 37.78 5.02 4.64-13.75 27.55-41.18 50.28-27.44 22.79-60.2 41.25-72.03 40.63zm-255.09-30.9 109.8 33.19c60.63 18.27 111.85 35.18 114.39 37.72 2.54 2.54-15.42 20.31-40.57 40.01-25.2 19.75-49.79 34.8-55.49 33.87-40.01-6.13-220.72-61-220.72-67.01 0-3.71 21.12-23.04 46.32-42.3zm-134.95 104.1 118.41 34.31c97.17 28.18 116 37.16 105.22 50.29-7.31 8.92-31.46 30.28-54.31 48.06l-41.19 32.02-128.69-29.73c-70.91-16.41-128.38-32.33-128.07-35.49.31-3.15 29.17-26.63 64.59-52.57zm139.53 205.3c150.74 41.75 416.3 112.16 589.03 156.07 176.13 44.84 319.06 75.56 324.82 69.8 17.65-17.71-3.46-31.53-80.07-52.33l-76.61-20.88 33.13-25.76c26.32-20.37 30.22-28.67 18.89-40.01-11.46-11.45-21.74-7.06-51.46 21.74l-37.16 36.05-78.35-20.07-78.34-20 49.73-40.57c36.6-29.91 55.8-38.52 72.65-32.64 12.26 4.34 40.56 12.02 61.18 16.6 32.02 7.19 37.66 5.39 34.32-10.84-3.04-14.61-44.04-30.78-164.12-64.65-88.07-24.84-167.34-47.75-176.14-50.85-11.95-4.27-7.74-14.3 16.6-39.51 17.65-18.27 41.99-36.72 53.14-40.26 47.31-14.92 17.15-37.16-93.76-68.99l-115.51-33.13 37.72-32.2c78.9-67.26 78.9-67.26 150.99-42.67 57.16 19.57 65.96 20.18 71.47 5.13 3.34-9.16 4.15-18.82 1.73-20.74-8.61-6.69-438.04-132.53-451.79-132.35-19.94.25-18.27 22.17 2.3 29.92 12.26 4.64-1.74 20.8-48.62 56.23-36.6 27.74-72.09 50.04-80.01 50.35-8.06.31-14.31 5.08-14.31 10.84 0 18.89-107.51 92.64-134.95 92.64-19.44 0-25.64 4.71-21.18 16.05 4.09 10.34-21.74 37.34-73.2 76.6-43.48 33.14-79.46 63.98-79.46 68.07 0 4.02 14.25 7.18 31.4 6.87 17.34-.31 155.01 33.63 305.94 75.49zm107.51 216.89c19.45-6.51 137.3 21.18 145.35 34.12 3.04 4.89-9.22 8.79-26.38 8.3-42.3-1.11-139.16-35.67-118.97-42.42zm-41.12-42.61c-62.18 15.48-2.29 86.7 91.47 108.87 101.75 24.09 168.14-11.76 113.21-61.25-25.58-23.03-169.26-56.48-204.68-47.62zm380.26 109.31c12.69-.31 51.46 7.86 84.59 17.77 44.66 13.32 56.86 21.06 45.21 28.55-9.16 5.88-18.45 10.16-21.73 9.91-12.7-.99-86.96-29.97-108.63-42.48-22.36-12.82-22.3-13.2.56-13.75zm-52.03-1.67c0 23.03 23.97 41.36 85.78 65.52 19.45 7.55 46.7 13.81 62.86 14.37 34.31 1.17 83.17-30.17 72.89-46.76-12.01-19.26-98.04-52.83-141.51-55.12-69.74-3.78-80.02-.93-80.02 21.99zm402.56 70.47c54.93-.49 142.5 33.44 121.26 47.01-8.05 5.08-17.53 9.16-20.63 8.86-17.65-1.99-100.63-31.22-120.08-42.37-19.76-11.33-17.15-13.13 19.45-13.5zm2.29-34.49c-60.63-.31-94.76 19.88-78.28 46.32 11.39 18.27 98.84 55.68 157.18 67.2 26.32 5.14 51.15 9.97 54.93 10.59 3.78.61 16.1-9.17 27.44-21.74 17.46-19.45 18.14-25.77 4.21-42.3-26.7-31.77-103.74-59.76-165.48-60.07zm363.1 125.84c10.16-.31 36.6 7.12 57.22 15.98l38.28 16.6-34.87.55c-19.45.38-44.78-6.75-57.16-15.97-18.34-13.63-18.95-16.73-3.47-17.16zm-44.59-20c-14.43 14.92-13.13 20.31 9.72 41.74 14.93 13.93 41.18 28.8 60.63 34.31 46.88 13.38 106.77 14.24 114.45 1.67 19.2-31.21-16.1-55.74-117.92-81.93-41.12-10.59-53.32-9.85-66.88 4.21zm4526.86 289.34c56-120.83 79.4-240.17 79.4-403.73 0-72.02 4.6-127.52 10.3-123.92 15.4 9.66 38.4 255.46 33.8 361.8-3.6 84.78-9.6 107.51-51.5 193.29-63 129.24-122.1 188.14-217.9 217.43-75.5 23.1-141 29.42-140 13.57.3-4.46 35.9-24.78 80.5-45.89 105.4-49.92 153.1-99.34 205.4-212.55zm-3649.05 216.14c0-42.3 17.4-51.34 39.7-20.56 12.94 17.83 25.45 16.1 155.88-22.05 328.23-95.93 648.6-136.74 747.97-95.31 21.7 9.04 40 21.43 40 27 0 5.64-48 13.69-106.36 17.71-133.09 9.35-451.72 73.57-631.32 127.21-152.11 45.39-183.45 48.61-220.73 22.48-17.77-12.39-25.14-29.05-25.14-56.48zM13981.7 6245.5c88.6 213.85 204.7 503 253.4 631.32 27.8 73.2 39.8 89.18 107.9 143.62 111.2 89 233.3 171.11 454.1 305.32 282.5 171.73 402.9 262.15 592.4 444.98 162.4 156.62 275.1 307.23 334.9 447.63 46.2 108.63 108.3 310.89 94 306.13-6.9-2.29-31.8-63.67-55.2-135.69-73.6-227.6-151.6-356.05-324.4-534.16-191.9-197.68-360.4-328.17-653.1-505.66-213.9-129.69-331.4-206.54-431.3-282.16l-65.1-49.36 46.6 128.13c45.7 125.1 80.7 228.71 184.8 546.67 72.4 221.28 187.4 487.21 363.2 840.65 192.4 386.51 243.6 472.66 349.8 587.85 101.2 109.8 158.6 146.16 247.3 156.81 92.6 11.08 158.8-10.34 219.2-71.04 120.3-120.83 150.5-271.07 113.5-563.88-5.4-42.3-3.9-59.33 4.7-54.13 22.3 13.5 38.7 163.94 34.8 318.33-3.5 136.12-7.2 158.98-34.6 217.32-40.2 85.77-115.8 166.47-186.6 199.41-62.9 29.23-187.6 35.61-251.6 12.89-18.5-6.51-54.9-25.77-79-41.68-63.8-42.36-216.2-218.68-271.9-314.74-25.9-44.59-69.1-114.69-95.8-155.51-67.3-102.93-192.3-336.28-257.4-480.4-29.8-66.01-83.4-181.83-119.2-257.32-90.4-191-160.7-357.16-202.2-478.04-32-93.15-64.6-176.14-202.4-516.94-25.4-62.8-90.1-225.31-143.5-360.26-233.9-591.31-293.1-719.95-485.1-1052.21-307-531.86-372.4-632-607.4-932.12-102.2-130.36-502-537.06-607-617.39-124.8-95.44-439.2-272.12-600.4-337.46-136.2-55.12-507.8-168.95-651.9-199.67-351.1-74.87-394.6-89.55-394.6-133.27 0-38.65 49.2-47.81 211.6-39.58 220.7 11.28 676.9 89.68 709.1 121.88 16.4 16.48-8 13.82-160.1-17.58-172.7-35.68-398.1-63.79-502.1-62.62-97.8 1.12-81.2 7.56 130.4 50.23 84.6 17.09 211.2 48.86 280.1 70.35 173.9 54.13 451.8 166.47 555.9 224.69 279 155.94 433.7 250.01 531.8 323.46 228.1 170.69 563.2 501.46 785 774.76 79.5 98.04 253.3 366.02 371.5 572.99 47 82.37 95.1 163.25 106.7 179.6 57.5 80.88 227.6 415.12 299.2 587.85zm2050.8 3329.29c-92.4 129.93-241.6 250.32-383.4 309.28-56 23.29-114.3 34.74-114.3 22.42 0-2.54 36.6-30.04 82.3-61.81 210.4-146.28 308.4-252.93 388.7-423.11 123.1-261.17 147.4-719.39 60.4-1139.16-34.5-166.41-68-265.31-217.6-642.72-378.8-956.16-604-1646.01-811.5-2486.41-33.3-134.95-87.4-306.43-126.6-401.44-51-123.61-164.3-319.13-259.3-447.2-166.2-224.25-364.2-368.06-620.4-450.55-110.9-35.73-277.4-73.26-324.8-73.26-32.5 0 38.8 59.51 147.5 123.06 269.9 157.86 461.6 299.49 562.4 415.61 81.5 93.77 192.1 284.76 165 284.76-3.1 0-35.7-44.59-71.8-98.34-104.6-155.51-200-212.74-286.1-171.68-49.2 23.41-64.8 63.05-57.5 145.42 12 134.95 138.9 331.64 250.7 388.49 61.8 31.46 125.6 27.93 162.4-8.79 31.4-31.4 48-89.25 36.7-128.14-4-13.68-9.6-33.81-13.2-46.88-3.5-12.57-1.2-22.85 5.1-22.85 18 0 37.7 91.47 29.3 136.06-4.3 22.91-23.8 56.23-45.3 77.78-73.3 73.27-186 43.48-298.3-78.9-128.1-139.53-189.3-345.26-131.1-440.32 25.4-41.44 88.6-66.89 140.1-56.42l35.4 7.24-21.6-24.03c-55.8-62.05-355.8-257.88-524-341.98-44.6-22.29-108.1-66.08-143.5-98.9-59.4-55.18-62.8-60.94-52.1-90.92 17.1-48.61 55-61.75 177.4-61.75 127.7 0 247 29.3 419.7 103.06 231 98.72 379.4 192.67 463.9 293.8 130.5 156.25 318.6 499.78 408.7 746.82 26.4 72.16 70.1 211.56 96.9 308.79 59.5 216.14 128.8 458.11 188.2 657.65 24.5 82.31 58 199.67 74.9 263.02 87.1 325.39 251.1 792.6 529.7 1509.69 133.4 343.1 186.8 497.74 215 623.34 129.5 575.28 79.7 1073.01-138 1379.27zM10090.7 9871c-84.9-20.75-267.57-63.79-405.99-95.62-568.4-130.86-2469.25-570.82-2922.09-676.35-267.6-62.3-735.42-170.37-1040.79-240.35-1493.67-342.3-2947.51-689.67-2966.75-708.93-5.49-5.51-5.04-11.58 1.14-15.3 17.83-10.58 1227.19 255.28 2727.72 599.68 639.58 146.84 1568.02 358.46 3280.11 747.82 348.85 79.27 823.87 187.84 1054.5 240.97 231.05 53.2 431.05 96.62 444.95 96.62 55.3 0 240.1-67.45 797.1-291.08 319.1-128.07 619.5-249.02 668-268.97 86.9-35.73 112-37.34 112-7.24 0 17.71-315.7 155.26-960.7 418.71-141.8 57.97-262.4 109.31-268.8 114.52-27.3 22.47-304.2 125.65-333.9 124.54-17.6-.68-101.8-18.33-186.5-39.02zm-7136.62-943.83c39.02 10.53 768.56 149.5 2401.77 457.49 1152.85 217.44 1955.48 370.28 2281.67 434.57 157.24 31.02 697.65 134.32 1200.91 229.67 503.19 95.3 970.27 183.8 1037.9 196.7 67.44 12.8 122.93 28.1 122.93 33.7 0 9.3-56.05 10.9-91.47 2.6-37.78-8.8-1987.8-374.73-2373.2-445.27-226.48-41.5-491.48-90.48-589.03-108.87-2016.31-380.94-3847.25-725.28-3943.45-741.69-108.64-18.52-122.78-23.53-126-44.9-4.23-28.06 13.92-31.34 77.97-14zm8187.72 1082.73c11.4-10.45 24.2-18.81 28.6-18.81 9.7 0 41.2 77.81 41.2 101.81 0 10.2-7.3 29.7-15.5 41.2-14.8 20.9-16.6 20.5-45.2-8.1-35.4-35.4-39.5-88.4-9.1-116.1zm-216.1-178.91c0 6.2 12.6 11.46 27.4 11.46 34.2 0 119.1 46.88 155.3 85.78l26.6 28.54-24.8 26.33c-39.1 41.7-43.1 97.2-10.4 145.2 31.2 45.8 78.1 75.3 103.8 65.4 10.3-3.9 24.3-27.6 32-53.9 11.6-39.5 10.8-56.1-4.6-105.2l-18.3-58.38 53.8 7c124.7 16.16 397.9 192.58 490.6 316.68 36.7 49.2 60.6 70 60.6 52.6 0-21.5-94.8-155.6-160-226.5-65-70.4-100.1-97.3-185.9-142.35-101.8-53.32-109.6-55.49-205.9-56.6-84.6-.93-103.9-4.71-125.3-24.16-61.7-56.48-214.9-107.69-214.9-71.9zm2956.9 1160.81c29.8 81.2 30.5 87.4 12.6 114.4-23.5 35.4-53.1 36.7-53.1 2.3 0-13.8-8.8-67.5-19.5-119-10.6-51.4-15.9-97.3-11.7-101.7 15.5-16.1 41.5 21.7 71.7 104zm-743.9 423.2c20.7 0 24 6.9 18.6 38.9-3.3 19.9-47.2 21-82.6 2-45.5-24.2-79-83.2-79-139.2 0-50.6 16.1-65.1 67.5-61 50 4 59.8 20.9 55.9 96.4-2.9 56-.7 62.9 19.6 62.9zm-4408.97 337.4c0-6.9 4.59-11.5 11.46-11.5 8.67 0 512.36 97.8 629.04 122.2 21.73 4.6 24.58 3.1 12.01-6-9.17-6.7-13-15.6-8.61-20 12.95-13 150.99 44.6 150.99 62.8 0 20.5-15.98 24.3-51.46 12.1-15.74-5.3-170.44-36.1-343.1-68.1-352.27-65.4-400.33-76.4-400.33-91.5zm382 526.1c10.34 0 18.33 5 18.33 11.5 0 18.9-60.63 13.8-91.54-7.7-124.72-86.8-104.04-275.5 34.38-312.7 176.07-47.4 296.77 194.7 153.21 307.5-44.59 35.1-64.53 11.6-22.85-27 55.86-51.7 63.6-121.4 20.75-186.6-59.39-90.3-201.83-72-232.37 29.7-12.14 40.6-10.96 51.5 10.65 96.1 23.78 49.2 72.9 89.2 109.44 89.2zm-4246.53 0c5.14 0 17.16 8 27.45 18.3 13.72 13.7 14.94 22.3 4.88 34.3-17.25 20.6-26.77 20.6-43.77 0-13.58-16.4-5.72-52.6 11.44-52.6zm5.71-34.3c-43.45 0-71.14 79.8-38.88 112.1 28.88 28.9 112.09 0 112.09-38.9 0-21.7-51.47-73.2-73.21-73.2zm185.81 65.2c18.56-22.3 47.51-12.6 47.51 16s-15.62 35.3-40.03 17.2c-18.29-13.5-19.48-18.8-7.48-33.2zm-16.54-27.1c-37.09 31.9-30.88 68 16.01 92.9 40.77 21.7 75.58.5 80.18-48.6 2.78-29.8-2.21-38.4-31-53.2-32.02-16.6-36.36-16-65.19 8.9zm275.64 59.1c0 28.6-31.18 35.6-51.17 11.4-10.43-12.5-11.6-21.8-3.73-29.7 18.87-18.9 54.9-6.9 54.9 18.3zm-76.63-43.6c-29.74 26.8-26.31 54.6 10.29 83.4 21.74 17.1 39.69 22.1 60.62 17 35.04-8.5 45.82-23.6 46.06-64.8.31-51.5-74.22-74.2-116.97-35.6zm-565.72 85.9c-5.61 20.6-21.96 26.6-31.06 11.5-2.65-4.5 7.27-175 22.07-379.8 14.8-204.7 50.25-705.6 78.92-1115 28.65-409.5 59.99-859.1 69.76-1000.79 10.64-154.39 22.76-260.29 30.31-264.75 6.94-4.09 20.01-4.65 29.16-1.18 13.32 5.08 15.16 21.18 9.34 81.81-6.56 68.25-179.71 2319.41-196.26 2551.61-3.84 53.7-9.3 105.9-12.24 116.6zm4010.56-1852.8c0 138-99.46 1674.4-121.45 1876.8-9.47 87.3-27.25 83.5-27.25-5.7s64.48-1372.4 80.33-1598.9c17.71-252.7 25.14-346.9 29.17-371.7 2.04-12.6 4.02-27.5 4.46-33.1 1.3-18.9 107.88 2.3 611.13 121.6 137.24 32.5 257.57 65 267.61 72.4 23.04 16.9 8.05 39.3-26.26 39.3-15.11 0-200.72-43.8-412.34-97.3-211.55-53.4-389.48-97.1-395.12-97.1-5.63 0-10.28 42.3-10.28 93.7zm885.18 2009.5c2.54-2.5 6.38-436.9 8.61-965.2 3.84-923.1 4.83-960.8 25.14-960.8 20.07 0 21.12 17.2 20.13 337.4-1.73 568.4-13.69 1582.1-19.01 1609.2-4.52 23.3-11.4 26.2-59.46 25.2-29.72-.7-59.51-3-65.77-5.2-6.25-2.2-201.27-25-434.57-50.9-233.35-25.8-430.35-49.4-439.21-52.6-10.28-3.7-12.33-9.4-5.7-16 6.38-6.4 191.55 7.5 487.77 36.6 263.08 25.8 479.6 44.8 482.07 42.3zm-7260.29 128.1c-4.3-6.9-5.03-26.9-1.6-44 3.46-17.3 32.28-247.6 64.04-511.8 31.83-264.7 90.37-752.6 130.39-1086.6 40-333.8 112.18-940.1 160.68-1349.5 48.51-409.43 91.92-747.51 96.63-752.59 20.27-21.61 19.27 18.33-5.69 226.49-33.64 280.79-272.8 2327.4-350.69 3001.1-56.86 491.7-68.67 556.9-93.76 516.9zm6289.34-8805.3 148.63-.99c655.36-4.34 1390.31 211.74 1921.41 564.87 308.8 205.3 523.6 431.35 641.1 674.74 27.6 57.16 55.8 127.33 63.4 157.8 7.5 29.73 11.7 55.98 9.2 57.22-2.5 1.24-46.1-41.18-96.4-93.82-327.1-342.42-794.5-681.31-1264.6-916.71-438.29-219.54-783.43-334.49-1234.04-411.1zm5726.44 6085.59-7 35.42c-9.8 49.59-41 88.79-93.6 117.39-47.4 25.9-101.8 36.1-159 29.9-185.8-20-470.1-109.2-687.4-215.72-106.3-52.21-271.9-152.6-264.2-160.28 2.6-2.48 76.7 13.62 163.6 35.55 290.5 73.26 661 133.4 924.1 149.93zm-3216.6-1757.3c-2.3 5.33-68.6 53.76-147.5 107.52-79.1 53.81-209.9 143.06-291.1 198.42-81.2 55.43-170.5 110.43-198.4 122.38-27.5 11.7-51.8 21.18-52.7 20.56-.9-.62-26.9-11.46-58.9-24.59-32-13.13-67.2-27.74-80.1-33.19-68.6-29.3-129.6-43.97-182.9-43.97-97.24 0-103.68-6.82-56.2-59.46 37-40.99 40.9-51.46 37.3-100.7l-4-54.87 57.2-17.96c74.1-23.22 327.1-147.02 476.9-233.29 65.2-37.53 154.3-86.21 199.6-109l81.8-41.19 111.5 129.81c60.9 70.91 109.6 134.21 107.5 139.53zm-1187.74 293.68c-43.72 30.16-65.21 36.73-126.96 38.89-80.07 2.85-92.83-.25-140.71-33.63-23.96-16.78-30.84-30.71-30.84-62.73 0-104.17 195.58-179.29 316.78-121.69 83.17 39.51 75.47 114.44-18.27 179.16zm3571.74 3031.63-50.3 44.4c-61.7 54.5-128.1 89.5-228.8 120.4-41.1 12.6-95.7 26.3-122.3 30.6-53.6 8.7-58.4 3.6-76.9-81.1l-7.8-35.4 117.9-19.4c64.5-10.7 174.4-28.5 243-39.5zm-618.7 22.3c-24 4.1-70.4 7.4-103.5 7.4-53.8 0-61.3-3.1-71.4-29.7-25.8-67.5-4.6-191.7 39.9-233.6l24-22.6 72.5 116.7c92.4 148.6 93.3 152.3 38.5 161.8zm-4046.43-8353c0-23.53-198.99-37.84-399.15-28.73-172.72 7.86-272.25 35.42-400.32 110.92-120.08 70.78-170.25 126.65-196.51 218.61-12.13 42.3-24.96 76.61-28.8 76.61-3.71 0-28.3-29.73-53.88-65.15-90.79-125.84-104.16-136.8-177.12-145.54-52.64-6.25-65.21-4.64-65.21 8.24 0 32.45 277.14 418.59 389.85 543.26l63.05 69.79 204.74 4.77c223.02 5.27 480.16 29.67 444.92 42.36-11.96 4.28-52.65 11.46-90.36 15.92-335.11 39.76-822.13 173.47-1048.8 287.98-238.99 120.77-415.19 266.43-551.93 456.43-16.1 22.36-17.59 21.74-69.05-28.42-121.95-118.79-424.35-482.82-563.64-678.4-51.28-72.02-136.4-198.98-190.09-283.64-53.68-84.6-105.6-165.05-115.95-179.54-22-30.9-44.93-35.43-28.94-5.76 6.05 11.27 38.31 82.37 71.09 156.75 144.72 328.23 471.05 791.29 752.03 1067.19l72.03 70.73-25.7 66.39c-21.31 54.75-25.83 89.18-26.2 197.81-.56 152.22 21.43 245.92 95.19 406.02 97.54 211.61 287.79 444.23 461.07 563.75 106.65 73.46 329.41 199.67 462.07 261.66 253.11 118.23 706.82 286 964.14 356.54 220.72 60.45 651.27 143.37 705.64 135.88 39.76-5.45 29.73-9.6-116.61-48-63.11-16.6-188.71-50.72-280.24-76.17-801.69-222.9-1590.02-596.15-1834.83-868.84-244.38-272.18-386.08-653-322.97-868.08 31.03-105.78 116.31-236.21 224.94-343.91 166.15-164.8 385.45-286.18 711.4-393.75 333.49-110.05 611.87-156.81 1027.06-172.48l188.7-7.06 142.94 45.33c400.32 126.9 743.73 289.53 1085.37 513.91 106.4 69.85 329 230.01 370.6 266.55 5.7 5.08-17.2 36.54-51.5 70.85-83.3 83.29-239.5 316.77-307.6 459.77-30.6 64.23-70.4 172.11-87.5 237.32l-31.5 119.53-40-8.61c-22-4.71-122.4-14.43-223.06-21.68-191.18-13.62-229.89-11.51-771.97 41.56-301.98 29.54-834.34 9.54-1099.09-41.31-150.99-28.98-340.25-84.9-449.5-132.78-49.17-21.61-92.71-37.03-95.56-33.94-7.55 8.24-9.66 6.51 71.53 61.25 38.03 25.64 101.82 61.56 143 80.58 84.6 39.08 285.44 105.22 323.65 106.58 19.2.74 13.75 6.13-22.85 22.91-54.93 25.09-208.21 48.99-252.8 39.39-72.03-15.54-93.76-17.03-93.76-6.5 0 26.14 189.88 62.24 277.94 52.95 37.35-3.96 112.65-22.23 168.7-40.94l101.2-33.69 129.25 15.79c209.26 25.52 563.01 44.16 699.94 36.79 69.86-3.78 224.13-15.11 343.1-25.14 211.56-17.9 216.45-17.84 231.56 3.96 8.55 12.33 49.79 44.03 92.09 70.79 85.78 54.19 411.73 216.88 434.63 216.88 45.2 0-24.8 140.65-114.9 231.01-119.44 119.77-312.85 230.75-508.43 291.75-52.64 16.41-90.85 33.75-85.78 38.77 12.27 12.26 166.97-15.48 263.02-47.13 162.45-53.51 334.19-155.88 431.19-257.07 58.3-60.64 109.8-149.32 109.8-188.71 0-12.57 5.2-22.85 11.4-22.85 10.3 0 140.2 46.14 147.6 52.39 11.7 9.97-52.1 156.87-94 216.33-87 123.43-301.7 259.43-507.58 321.42-115.56 34.81-133.46 46.14-90.36 57.04 82.13 20.81 281.34-33.13 458.64-124.11 172.7-88.69 297.6-251.56 311.7-406.45 3.4-37.72 3.1-80.95-.7-96.06-7.8-31.28-14.8-34.93-299.6-155.01-100.6-42.43-244.48-110.61-319.67-151.49l-136.68-74.38 61.81-9.04c69.73-10.28 360.14-5.88 371.64 5.64 3.8 3.84 2.4 32.02-3.4 64.03-12.8 70.92-4.1 82.37 62.9 82.37 149.6 0 494.1 195.02 813.2 460.52 96 79.96 122.4 90.05 93.6 35.86-25.7-48.12-261.8-267.73-370.4-344.52-102.4-72.4-321.4-189.14-424.3-226.17-32.1-11.59-60.7-23.66-65.2-27.5-4.4-3.78-.2-37.72 9.2-75.49 52.7-209.27 142.1-418.91 248.4-582.09 61.8-94.94 217.4-269.96 239.9-269.96 13.2 0 54.9 36.23 242.5 211.06 185.3 172.66 370.8 378.71 458.7 509.51 40.2 59.76 116.5 170.37 169.7 245.86 192.9 274.11 322.6 474.64 521.3 806.34 111 185.24 273.2 448.26 359.9 583.27 86.7 134.95 182.1 284.57 211.6 331.64 29.7 47.32 142.6 221.9 251.6 388.86 109 167.03 239.3 367.32 290 446.09 324.1 503.19 626.2 900.54 811.4 1067.14 102.9 92.58 289.5 236.64 306.5 236.64 6.2 0 10.4 4.14 10.4 10.28 0 25.45-188.8 49.6-280.3 35.92-205.8-30.78-812.8-171.37-991.6-229.71-191.5-62.48-675.9-311.88-941.2-484.67-218.5-142.25-484.5-352.51-672.5-531.49-119-113.27-300.9-331.27-295.9-354.62 10.8-50.41 83.1-192.11 200.2-392.27 141.9-242.46 188.2-311.51 280.1-417.47 33.7-38.84 59.2-77.6 56.5-85.78-7.5-22.48-182.4 153.28-269.8 271.07-42.4 57.17-85 111.6-95.8 122.38-27 27-147.8 209.33-186.4 281.35l-33.2 61.75-37.7-44.04c-20.7-24.09-75.8-93.2-121.8-152.66l-84.1-108.62 55.5-74.38c30.7-41.19 55.5-78.41 55.7-83.48.3-15.74-31.7-7.99-47.5 11.45-46.1 56.61-577.2 378.03-854 516.75l-116.6 58.53-47.47-25.21c-25.76-13.62-75.49-27.25-108.69-29.72-54.87-4.09-65.89-9.73-107.08-54.87-54.5-59.64-129.68-209.33-149.5-297.4-11.33-50.28-18.95-63.04-41.37-68.74-39.76-10.16-105.96 28.73-124.91 73.32-20.94 49.18-8.74 68.69 20 32.02 25.08-32.02 71.96-38.95 101.51-14.98 9.53 7.74 26.26 49.29 37.71 93.94 11.52 44.6 41.62 115.51 68.06 160.1 26.45 44.59 47.75 81.56 48.06 83.48.31 1.86-22.29 13.56-49.73 25.76l-50.35 22.3-54.43-56.05c-53.89-55.43-102.25-155.57-102.25-211.62 0-14.86-7.87-33.93-17.16-41.68-28.36-23.53-31.34 32.58-6.75 128.63 23.97 93.77 52.39 156.07 95.13 208.16 25.51 31.21 26.19 36.04 11.14 81.74-14.61 44.28-13.99 53.2 6.82 100.08l22.91 51.47-69.79 12.14c-101.32 17.65-140.65 18.58-345.4 8.42-178.97-8.92-401.43 4.95-639.31 39.95-68.62 10.03-81.69 9.04-100.08-7.87-11.46-10.53-21.18-23.16-21.18-27.44 0-13.56 179.6-37.15 303.09-39.82 62.92-1.42 116.99-7.18 120.09-12.82 3.15-5.63-14.87-17.65-40.01-26.69-62.86-22.54-386.58-24.03-475.76-2.17-83.54 20.44-136.37 9.85-181.52-36.35l-35.79-36.6 37.71-3.97c20.87-2.22 81.2-16.78 134.95-32.57 76.18-22.42 132.72-29.98 260.79-34.81 173.84-6.5 189.57-13.68 115.5-52.39-33.19-17.34-60.63-19.69-187.59-15.79-123.49 3.84-163.62 9.72-237.25 34.93-49.24 16.78-97.61 30.28-108.69 30.28-10.9 0-70.36-37.59-130.92-82.92-60.63-45.28-128.08-92.53-148.7-104.05l-37.78-21.18 27.5-22.23c47.13-38.21 149.81-20.44 244.75 42.3 30.84 20.43 42.3 23.66 42.3 11.95 0-24.03-149.81-119.16-208.15-132.16-68.62-15.3-162.38.87-197.87 34.12-47.56 44.59-37.72 68.31 49.17 118.73 158.98 92.09 215.65 141.81 319.2 280.11 75.43 100.64 103.17 119.34 180.59 121.63 60.63 1.8 64.47 3.84 104.66 56.24l41.74 54.31 58.34-5.7c32.08-3.16 89.18-10.9 126.96-17.16 38.09-6.37 114.39-14.74 171.55-18.88l102.93-7.44-125.79 72.59c-69.79 40.31-154.64 91.47-190.43 114.94l-64.66 42.36-272.74-52.08c-149.81-28.55-388.74-74.81-530.13-102.68-308.79-60.76-1022.73-192.86-1147.09-212.24-62.92-9.79-92.77-10.34-101.26-1.86-8.6 8.61 5.14 17.16 48.62 30.28 80.88 24.34 675.92 149.01 1399.89 293.25l583.26 116.24 74.38-45.21c41.44-25.14 109.81-64.41 154.4-88.56 123.49-67.01 178.3-98.72 228.71-132.35l46.94-31.27 157.25 6.32 157.24 6.25-34.31 21.8c-102.93 65.28-109.62 227.85-11.46 278.69 43.48 22.48 55.24 12.39 24.9-21.43-31.21-34.74-41.5-84.59-25.58-123.49 17.78-43.35 110.49-72.15 182.57-56.79 72.03 15.42 286.06 75.8 320.25 90.36 23.97 10.22 24.9 12.26 5.7 12.82-61.56 1.8-267.61 62.55-376.3 110.98-124.66 55.49-201.27 114.51-201.27 154.83 0 25.2 14.55 27.18 33.44 4.58 33.38-39.88 313.06-144.36 491.49-183.56 41.18-9.05 104.85-23.04 140.15-30.84 58.27-12.95 70.84-11.9 128.63 10.59 74.32 28.85 81.72 18.7 20.62-28.62-95.56-73.94-232.18-135.62-411.78-185.91-83.48-23.35-94.51-29.42-91.47-50.54 2.66-18.89 19.45-28.67 77.78-45.58 81.38-23.6 88.07-23.9 263.02-13.38 288.25 17.4 457.15 63.48 574.15 156.75l30.9 24.59 45.2-29.73c24.4-16.16 73.2-52.52 106.3-79.52 33.8-27.44 145.9-106.15 249.9-175.57 104.1-69.37 211.8-142.45 240.2-162.94 46.9-33.88 52.5-35.43 62.8-17.72 27.8 47.75 202.5 258.44 290.2 349.97 52.6 54.88 94.4 102.69 91.9 105.16-2.6 2.54-37.7 18.4-78.9 35.49-40.9 16.97-202.5 94.69-359.2 172.73-156.6 77.97-344.4 165.72-417.4 194.95-115.5 46.33-146.1 53.88-236.7 58.34-64.6 3.22-157.8-2.29-245.9-14.55-178.43-24.77-413.4-27.99-465.54-6.32-20.56 8.61-35.36 18.09-32.58 20.87 2.85 2.85 48.06 7.5 100.64 10.28 52.52 2.85 167.59 15.18 255.68 27.38 307.6 42.67 353.6 47.07 444.8 43.04 105.2-4.65 193.9-38.71 270-103.61 23.8-20.32 70.9-46.82 104-58.53 105.6-37.15 456.4-190.18 594.7-259.36l131.6-65.77 96 85.34c131.6 116.8 345.1 287.98 428.9 343.78 184.3 122.74 577.6 335.48 768.6 415.74 86.9 36.54 133.4 64.1 177.3 105.22 159.3 149.32 483.7 312.43 801.7 403.13l67.5 19.2-46.9 26.7c-117.8 67.1-198.5 168.7-223.9 282.1l-12.9 57.2-58.6-78.9c-87.6-117.8-208.3-203-321.1-226.7-28.6-6.1-36.6-4-36.6 9.4 0 9.2 14.9 20.1 32.1 23.6 54.2 10.8 175.8 102.2 238 178.8 32.5 40.2 77.9 110.9 100.5 156.7 33.3 67.5 47.1 84.6 72.1 89.4 141.8 27.2 208.3 61.5 289.6 149.7 112.8 122.3 132.8 292.5 44.3 377.2-54.9 52.5-113.2 38.9-223-52.1-132.8-110-244.8-73.6-244.8 79.7 0 46.9 4.8 60.2 26.4 74 36.1 23.1 129.2 31.8 196.6 18.5 53.8-10.6 90-1.8 71 17.3-3.8 3.8-75.5 19.3-159 34.3-84 15.2-269.9 50-415.1 77.8-193.3 37-265.4 46.8-271.7 37.2-4.7-7.2-52.1-89.8-104.6-182.5-92.2-162.4-191.2-307-260.6-380.8l-33.4-35.5 49.2-13.1c27.5-7.4 69.4-17.2 95-22.3 44.2-8.9 45.8-10.9 48.6-60.1 1.5-28.2 5.9-78.3 9.7-112.6l6.8-61.8 60.6 6.3c76.6 7.8 187.6 63.8 246.2 124.1 31 32 45.5 40.7 45.5 27.4 0-82.3-206.1-276.1-261.9-246.2-13.7 7.4-24 17.6-24 23.8 0 6.2-10.3 10.9-24 10.9-20.7 0-22.9-4.6-16.3-32.1 12.8-52.2 91.8-175.5 146.6-228.9 33-32.2 73.2-57.1 112.1-69.7 74.3-23.9 76.6-31.9 50.4-178.3-10.2-57.1-21.1-124.77-24.6-152.09-11.9-93.2-32.6-45.76-42 96.09l-9 136.1-42.3 33.9c-191.6 153.7-281.2 314.9-294 528.8l-4.5 74.3-72 26c-178.4 64.1-176 58.7-74.7 165 86 90.4 186.7 215.8 178.7 222.6-2.6 2.2-14.8 9.2-28.5 16.3-32.5 16.8-83.7 115.7-92.2 177.4-6.9 51.5 29.6 205.3 52.1 219.1 9.2 5.6 149.9 24.4 265.4 35.5 52.6 5.1 66.3 11.1 76.7 33.6 14.8 31.8 4.5 35.6-139.6 51.8-128.1 14.4-192 38.6-257.4 97.4-141.2 127.2-190.2 369-108.6 535.9 65.2 133.5 185.3 218.8 348.8 247.7 64.3 11.4 110.9 11.4 236.8.1 173.8-15.7 252.7-9 454 39 139.5 33.3 291.5 37.2 409.4 10.7 216.2-48.7 473-222.5 603.5-408.4 72.6-103.4 100.3-179.6 104.5-287.1l3.4-86.9 34.3 8.8c58.4 14.9 149.8 6.4 208.2-19.5 66.3-29.4 117.8-76.2 117.8-107.1 0-22.9 0-22.9-25.2.6-38.6 35.9-123.5 70.7-173.8 71.1-41.2.3-43.3-1.2-27.5-19.1 59.3-67.6 85.7-204.8 66.4-345.4-15.5-113.6-45-207-103.3-327.1-56.6-116.9-96.3-176.2-314-468.9-125-168.1-195.6-275-235.2-356.3-31.2-64-56.6-119.1-56.6-122.9 0-3.8 10.2-6.9 22.9-6.9 40.1 0 124.6-46.9 164.8-91.5 36.1-40 63.9-105.2 63.9-149.84 0-12.02 18.3-22.92 53.8-31.84 70.9-17.89 65.2-18.57 172.7 21.12 116.6 43.04 247.4 76.66 356.8 91.86 67 9.2 104.1 8 187.6-6.5 128-22.1 212.9-47.33 235.5-70.06 15.3-15.24 11.5-16.1-34.3-7.99-28.5 5.08-107.5 7.74-177.2 5.95-197.9-5.08-523.1-97.3-708-200.72-123.3-68.99-308.3-261.54-500.8-521.15-311.2-419.77-311.2-419.77-864.8-1303.84-210.5-336.22-414-660.8-451.7-720.5-37.7-59.7-175.3-281.42-305.4-491.8-306.7-496.37-376.2-605.56-451.3-709.11-34.1-47.06-101.9-144.11-150.3-215.02-48.7-71.53-143.7-198.43-212.7-284.2-114.1-141.83-126.4-161.95-145.8-237.32-52.7-205.86-167.3-392.21-360.3-585.56-518-519.11-1418.75-862.89-2258.22-861.89-204.75.18-689.11 19.01-734.26 28.48-28.12 5.95-33.5.75-60.2-57.53-42.91-93.83-64.96-175.45-56.79-210.44 21.37-91.54 49.98-133.52 123.87-182.14 41.18-27.13 112.09-66.45 158.97-88.31 106.34-49.49 355.67-108.51 498.67-118.05 85.78-5.69 108.63-10.83 108.63-24.4zm-857.75 7061.8c-968.72-182.2-1332.81-251.74-1921.44-367.11-775.42-151.92-1094.39-218.93-1108.24-232.8-5.49-5.52-5.04-11.58 1.14-15.24 18.65-10.96 1059.06 176.13 2279.36 409.95 380.88 72.9 760.33 145.9 844.06 162.3 134.95 26.4 153.28 32.7 162.38 56 12.39 32 2.3 199-102.99 1703-25.14 359.1-46.82 672.4-48.3 697.6-3.22 56.3 9.53 54.7-271.82 33.5-310.09-23.5-1737.29-135-2481.84-193.9-355.68-28.1-658.53-54-673.63-57.4-19.45-4.5-23.79-10-14.87-18.9 8.94-8.9 136.1-3.8 439.18 17.6 1689.23 119.6 2398.53 170.7 2660.25 191.6 165.85 13.2 303.21 22.3 304.76 20.1 1.61-2.2 6.01-57.2 9.73-121.2 6.68-114.4 6.25-117.4-18.27-122.7-27.81-6.1-741.13-61.2-1260.36-97.4-718.25-50.1-1971.82-155.7-1983.18-167-16.17-16.2 32.02-17.3 224.16-5.3 417.45 26.4 1363.09 93.3 1707.55 121 313.37 25.2 935.72 71.7 1224.88 91.6l110.98 7.7 6.25-49.8c3.47-27.4 24.84-348.3 47.5-713.1 22.61-364.8 51.71-806.4 64.6-981.3 12.88-175 21.36-320.2 18.89-323.1-2.54-2.8-101.82-23.4-220.73-45.7zm-5395.99 2410.9c14.87 14.4 14.87 17.4 0 23.2-21.73 8.3-48.49-20.5-29.74-32 6.71-4.2 20.59-.1 29.74 8.8zm-49.95 24.6c20.97 32 61.27 33.7 80.59 3.4 8.9-13.9 6.5-24-10.06-42.3-43.22-47.8-104.99-13.7-70.53 38.9zm207.78-27.5c9.15 0 17.15 7.5 17.15 16 0 19.5-16.59 32.6-27.45 21.8-13.47-13.5-6.86-37.8 10.3-37.8zm-13.72-27.4c-36.6 22.8-43.77 46.9-21.49 72 24.8 28 32.92 29.6 64.95 12.3 28.44-15.3 27.44-47.9-2.29-75-17.16-15.6-27.45-17.9-41.17-9.3zm184.7 46.3c10.29-3.7 17.73-4.6 17.73-2.3s3.05 12 6.99 22.3c8.72 22.9-10.68 24.4-29.11 2.3-10.33-12.4-9.33-17.4 4.39-22.3zm13.15-30.3c-48.03 0-70.9 45.7-38.88 77.8 20.15 20.1 74.24 17.1 82.64-4.6 8.84-22.9-21.24-73.2-43.76-73.2zm22.88-3935.08c131.72 24.96 480.35 89.49 776.57 143.68 296.22 54.25 671.03 123.56 834.89 154.4 163.69 30.9 587.87 110.3 943.55 176.75 355.7 66.39 779.85 146.34 943.54 177.8 163.56 31.46 298.38 57.23 299.68 57.23 1.24 0 3.84-65.77 5.7-145.85 2.85-120.08 6.44-145.85 20.62-145.85 14 0 18.21 26.32 22.85 143l5.7 142.94 34.93 3.47c25.7 2.53 53.14-8.86 104.6-43.23 76.67-51.28 99.28-78.66 111.91-135.2 4.65-20.62 14.43-36.6 22.48-36.6 10.34 0 16.35 36.6 21.74 132.66 4.09 73.2 4.77 136.8 1.55 141.82-7.06 10.9-48.99 2.1 709.23 148.63 897.82 173.47 1925.87 372.89 2206.19 428.03 193.3 37.9 251.9 53.4 260.8 69 8.5 14.8 6.8 24.7-6.3 38.2-16.1 16.8-29.2 16.2-146.9-6.2-71.1-13.5-332.86-63.2-581.08-110.4-248.53-47.16-968.66-183.97-1601.17-304.12-1804.13-342.72-2075.79-395.67-4256.83-829.81-583.28-116.12-1064.32-211.06-1069.36-211.06-5.05 0-10.17 26.88-11.43 60.07-1.26 33.07-20.26 206.42-42.32 386.02-22.05 179.54-45.6 390.1-52.44 468.88-18.41 212.3-146.68 1466.22-286.62 2802.02-34.98 334-50.33 449.1-62.52 469-10.8 17.5-47.96 13.7-55.22-5.8-3.51-9.4-1.39-75.4 4.71-146.3 16.95-197.4 279.48-2559.6 342.81-3084.61 18.62-154.4 41.75-375.18 51.52-491.8 9.78-116.61 22.54-252.61 28.44-303.09 14.86-126.96 15.44-123.74-21-114.32-17.16 4.46-37.24 8.98-45.18 10.28-8.01 1.3-19.32 7.31-25.74 13.68-13.03 13.07-44.4 290.52-109.14 965.33-52.07 542.83-100.33 1021.33-204.77 2030.03-111.07 1072.8-106.39 1007.7-76.55 1065.9 25.2 49.2 31.5 83.5 15.34 83.5-5.01 0-27.09-21.7-48.79-48-57.58-69.8-57.58-69.8-45.15-171.6 6.37-52.2 60.48-558.1 120.25-1124.2 59.75-566.1 132.03-1235.2 160.62-1486.8 88.1-775.42 132.59-1198.22 133.45-1268.39.95-77.6 6.72-83.29 130.23-128.69 93.65-34.37 99.5-34 434.61 29.6zm7026.88 4438.28c6.07 0 11.46 8 11.46 17.2 0 20.2 11.39 20.5-274.54-6.5-122.69-11.5-1081.94-93.1-2132.97-181.3-1760.15-147.8-3067.11-258.5-4454.7-377.5-298.51-25.6-587.05-50.5-640.47-55.2-53.76-4.7-97.22-13.7-97.22-20 0-6.2 18.3-10 40.03-8.4 324.61 25 4929.35 411.6 5821.4 488.8 762.87 66 1692.14 142.9 1727.01 142.9zm157.85-2863.6c57.7 9.2 56.3-.2 46 324.6-4.6 141.4-16.1 502.1-25.7 800.6-33 1025.9-66.1 1813.1-76.8 1824.2-5.9 6.1-9.9-59.5-9.9-161.3 0-207 25.4-1104.8 57.6-2034.6l23.6-686.2-37.7-31.5c-44.3-36.9-38.9-45.5 22.9-35.8zm-83.5 3046.6c13.5 21.8-29.8 28.8-125.81 20.4-56.67-4.9-372.83-29.5-703.35-54.7-330.53-25.2-865.24-66.3-1189.45-91.5-323.78-25.2-998.45-76.7-1498.3-114.4-499.76-37.7-1032.82-78.8-1183.7-91.3-252.43-20.9-2059.8-158.8-2636.22-201.1-260.76-19.1-284.32-22.6-267.63-39.2 6.43-6.5 61.76-6.2 147.54.6 550.98 44 790.29 62.5 1401.03 107.9 380.28 28.4 1008.74 74.5 1395.31 102.5 387.34 28 1078.52 79.4 1538.3 114.3 459.77 35 973.61 73.8 1143.68 86.4 169.69 12.6 656.46 48.5 1080.82 79.8 829.13 61.1 889.28 66.4 897.78 80.3zm-7937.11-377.4c-19.32 31.5-1.31 33.2 1217.87 114.3 810.76 53.8 2008.33 134.9 2962.16 200.6 436.92 30 3417.35 249.5 3625.57 267 169.21 14.2 295.11 14.8 303.21 1.4 6.9-11.5 17.4-294 45.3-1223.8 9.6-317.9 25.2-765.2 34.6-995 9.5-229.9 22.3-545.9 28.6-703.4 6.3-157.8 14-323.3 17.2-369.4 4.7-68.6 2.5-84.7-12.1-90.4-10.2-3.9-21.8-2.5-27.4 3.5-5.4 5.7-15.4 195.5-22.3 422s-17.9 581.6-24.4 789.1c-10.7 342-38.3 1075.1-68.4 1812.8-6.1 153.3-13.1 280.6-15.3 282.5-2.2 1.9-163-6.6-357.42-18.9-194.46-12.2-849.76-53.4-1457.05-91.6-1520.9-95.5-2926.72-190.7-5339.92-361.4-747.98-52.9-897.94-59.4-910.22-39.3" transform="matrix(.2153 0 0 -.2153 0 4000)"/></svg>