<svg xmlns="http://www.w3.org/2000/svg" xmlns:xlink="http://www.w3.org/1999/xlink" width="1400" height="980" xml:space="preserve"><path fill="none" d="M0-.001h1399.991V980H0z"/><g opacity=".6"><path fill="none" d="M947.624 654.635c-36.707 30.392-41.819 84.777-11.425 121.479.52.627 1.064 1.225 1.598 1.835l98.82-136.172c-28.773-12.295-63.234-8.474-88.993 12.858zM1057.679 787.534c36.701-30.387 41.822-84.781 11.428-121.479a85.851 85.851 0 0 0-32.489-24.277l-98.82 136.172c30.662 35.007 83.806 39.459 119.881 9.584z"/><path fill="#0E2E3B" d="M936.199 776.114c-30.395-36.702-25.282-91.088 11.425-121.479 25.759-21.332 60.22-25.152 88.993-12.857l20.632-28.424c-41.583-21.044-93.439-16.902-131.623 14.718-51.377 42.54-58.524 118.673-15.99 170.038a120.085 120.085 0 0 0 7.535 8.261l20.626-28.421c-.533-.611-1.078-1.209-1.598-1.836z"/><path fill="#091A21" d="M1079.677 814.101c51.365-42.54 58.528-118.677 15.991-170.045-10.921-13.187-24.06-23.435-38.419-30.702l-20.632 28.424a85.846 85.846 0 0 1 32.489 24.277c30.395 36.698 25.273 91.093-11.428 121.479-36.075 29.875-89.219 25.423-119.882-9.585L917.17 806.37c43.54 43.74 114.032 47.87 162.507 7.731z"/><path fill="#091A21" d="M824.383 746.477a178.954 178.954 0 0 0 6.197 27.703l26.437-2.385 4.855 12.147-20.902 16.378a180.194 180.194 0 0 0 14.5 24.403l24.342-10.417 8.367 10.062-14.793 21.99c2.817 2.913 5.726 5.686 8.689 8.368l35.096-48.356a119.853 119.853 0 0 1-7.535-8.261c-42.534-51.365-35.387-127.498 15.99-170.038 38.184-31.62 90.04-35.762 131.623-14.718l24.646-33.966 4.986-17.47a177.91 177.91 0 0 0-26.063-11.248l-13.597 22.809-12.693-3.241-.948-26.495a182.32 182.32 0 0 0-28.283-2.66l-5.875 25.844-13.063.842-9.113-24.951a179.693 179.693 0 0 0-27.701 6.202l2.395 26.448-12.162 4.842-16.363-20.903A178.893 178.893 0 0 0 899 573.912l10.423 24.35-10.064 8.371-21.993-14.808a180.369 180.369 0 0 0-18.805 21.289l17.464 19.961-6.979 11.078-25.555-7.315a178.893 178.893 0 0 0-11.248 26.084l22.789 13.594-3.225 12.688-26.498.945a183.425 183.425 0 0 0-2.66 28.286l25.827 5.875.858 13.065-24.951 9.102z"/><path fill="#0E2E3B" d="M1095.668 644.056c42.537 51.368 35.374 127.505-15.991 170.045-48.475 40.14-118.967 36.01-162.506-7.73l-35.096 48.356c4.077 3.687 8.267 7.185 12.598 10.442l19.965-17.461 11.07 6.981-7.298 25.559a179.57 179.57 0 0 0 26.066 11.25l13.605-22.786 12.682 3.21.942 26.499a180.967 180.967 0 0 0 28.289 2.662l5.881-25.821 13.057-.869 9.103 24.96a180.226 180.226 0 0 0 27.715-6.188l-2.394-26.453 12.153-4.856 16.369 20.92a179.785 179.785 0 0 0 24.418-14.506l-10.443-24.375 10.082-8.349 21.995 14.805a179.823 179.823 0 0 0 18.809-21.283l-17.501-19.986 7.016-11.047 25.566 7.301c4.444-8.436 8.21-17.143 11.245-26.075l-22.819-13.607 3.24-12.677 26.51-.951a181.05 181.05 0 0 0 2.648-28.285l-25.85-5.872-.835-13.063 24.963-9.11a180.126 180.126 0 0 0-6.194-27.718l-26.471 2.405-4.836-12.16 20.911-16.377c-4.121-8.405-8.966-16.559-14.505-24.412l-24.364 10.442-8.362-10.084 14.813-21.996c-6.69-6.905-13.802-13.179-21.295-18.794l-19.966 17.49-11.066-7.016 2.309-8.086-24.646 33.966c14.358 7.265 27.497 17.513 38.418 30.7z"/><g><path fill="none" d="M1016.906 365.367c-10.763 15.917-6.581 37.551 9.345 48.311 7.812 5.273 16.987 6.939 25.583 5.403l-11.592-68.553c-9.167 1.468-17.729 6.538-23.336 14.839z"/><path fill="none" d="M1074.569 404.333c10.754-15.917 6.567-37.552-9.358-48.311-7.62-5.149-16.55-6.84-24.969-5.494l11.592 68.553c8.936-1.59 17.247-6.635 22.735-14.748z"/><path fill="#0C2630" d="M1010.5 436.985c-28.794-19.458-36.365-58.576-16.902-87.37 10.09-14.926 25.477-24.093 41.958-26.8l-4.2-24.836c-23.026 3.814-44.5 16.693-58.604 37.551-27.238 40.31-16.635 95.063 23.664 122.298 19.624 13.261 42.67 17.529 64.307 13.792l-4.195-24.822c-15.487 2.7-31.983-.315-46.028-9.813z"/><path fill="#091A21" d="M1118.711 434.168c27.229-40.301 16.637-95.06-23.664-122.295-19.441-13.139-42.235-17.45-63.691-13.893l4.2 24.836c15.302-2.516 31.55.531 45.414 9.901 28.794 19.458 36.36 58.576 16.895 87.37-9.966 14.746-25.093 23.881-41.338 26.713l4.195 24.822c22.789-3.943 44.013-16.777 57.989-37.454z"/><path fill="#091A21" d="m941.758 427.672-15.596 11.484a131.058 131.058 0 0 0 10.012 18.128l18.018-7.098 5.884 7.507-11.271 15.753a131.147 131.147 0 0 0 15.152 14.104l14.903-12.275 7.922 5.328-5.85 18.421c6.087 3.473 12.36 6.4 18.752 8.806l10.395-16.313 9.182 2.611.13 19.384a131.58 131.58 0 0 0 20.553 2.538l4.85-18.74 9.531-.35 6.093 18.356c2.513-.285 5.014-.667 7.51-1.093l-7.205-42.605c-21.637 3.738-44.683-.531-64.307-13.792-40.299-27.235-50.902-81.988-23.664-122.298 14.104-20.858 35.578-33.737 58.604-37.551l-7.205-42.61a135.343 135.343 0 0 0-13.456 2.953l1.181 19.291-8.967 3.267-11.496-15.598a130.676 130.676 0 0 0-18.116 10.022l7.101 18.015-7.519 5.884-15.739-11.276a131.85 131.85 0 0 0-14.127 15.155l12.292 14.906-5.33 7.928-18.425-5.861a130.493 130.493 0 0 0-8.797 18.751l16.313 10.395-2.62 9.187-19.378.118a130.312 130.312 0 0 0-2.533 20.559l18.738 4.848.344 9.54-18.351 6.09a132.39 132.39 0 0 0 3.933 20.341l19.28-1.174 3.279 8.964z"/><path fill="#0E2E3B" d="M1095.047 311.873c40.301 27.235 50.894 81.994 23.664 122.295-13.976 20.677-35.2 33.511-57.989 37.453l7.205 42.605c4.319-.743 8.61-1.675 12.84-2.846l-1.183-19.274 8.969-3.286 11.479 15.599a130.623 130.623 0 0 0 18.136-10.012l-7.103-18.02 7.51-5.887 15.747 11.282a130.065 130.065 0 0 0 14.116-15.155l-12.304-14.924 5.348-7.908 18.424 5.855a129.476 129.476 0 0 0 8.803-18.752l-16.34-10.403 2.647-9.167 19.39-.13a133.544 133.544 0 0 0 2.53-20.556l-18.767-4.853-.333-9.531 18.365-6.098a131.891 131.891 0 0 0-3.941-20.338l-19.294 1.18-3.266-8.972 15.604-11.487a130.63 130.63 0 0 0-10.017-18.134l-18.04 7.112-5.87-7.524 11.284-15.745a131.385 131.385 0 0 0-15.16-14.116l-14.918 12.304-7.91-5.345 5.855-18.43a130.158 130.158 0 0 0-18.758-8.786l-10.39 16.324-9.187-2.637-.124-19.378a129.051 129.051 0 0 0-20.553-2.535l-4.839 18.752-9.549.33-6.095-18.351c-2.307.26-4.6.607-6.886.985l7.205 42.61c21.46-3.557 44.253.754 63.695 13.894z"/><path fill="#091A21" d="M993.598 349.616c-19.463 28.794-11.892 67.912 16.902 87.37 14.045 9.498 30.541 12.513 46.026 9.813l-4.692-27.718c-8.596 1.536-17.771-.13-25.583-5.403-15.926-10.759-20.107-32.394-9.345-48.311 5.606-8.3 14.169-13.371 23.336-14.839l-4.687-27.712c-16.481 2.706-31.867 11.873-41.957 26.8z"/><path fill="#0C2630" d="M1065.211 356.021c15.926 10.759 20.112 32.394 9.358 48.311-5.488 8.114-13.8 13.159-22.735 14.748l4.692 27.718c16.245-2.832 31.372-11.967 41.338-26.713 19.466-28.794 11.899-67.912-16.895-87.37-13.864-9.37-30.112-12.417-45.414-9.901l4.687 27.712c8.419-1.345 17.349.346 24.969 5.495z"/></g><g><path fill="none" d="M416.383 464.565c-26.092-37.088-76.565-46.829-114.45-22.806l88.03 144.455c1.994-1.174 3.97-2.413 5.895-3.769 38.215-26.885 47.407-79.665 20.525-117.88z"/><path fill="none" d="M298.503 444.043c-38.215 26.885-47.402 79.666-20.519 117.877 25.524 36.289 74.388 46.385 111.979 24.293l-88.03-144.455a84.715 84.715 0 0 0-3.43 2.285z"/><path fill="#BCBEC0" d="M416.383 464.565c26.882 38.215 17.69 90.994-20.525 117.88-1.925 1.355-3.901 2.595-5.895 3.769l13.202 21.669c2.467-1.466 4.912-3.002 7.301-4.682 49.677-34.957 61.616-103.561 26.673-153.234-33.828-48.091-99.207-60.823-148.416-29.887l13.21 21.679c37.884-24.022 88.358-14.282 114.45 22.806z"/><path fill="#9D9FA1" d="M257.222 576.522c33.271 47.291 97.037 60.352 145.943 31.36l-13.202-21.669c-37.591 22.092-86.455 11.996-111.979-24.293-26.883-38.212-17.696-90.992 20.519-117.877a82.632 82.632 0 0 1 3.43-2.284l-13.21-21.679a111.905 111.905 0 0 0-4.822 3.205c-49.68 34.948-61.622 103.566-26.679 153.237z"/><path fill="#BCBEC0" d="M257.222 576.522c-34.942-49.672-23-118.29 26.68-153.238a112.22 112.22 0 0 1 4.822-3.205l-20.059-32.913 2.68 7.911-9.749 6.86-18.91-15.008a162.331 162.331 0 0 0-18.591 17.984l14.449 19.39-7.157 9.531-22.685-8.458a164.928 164.928 0 0 0-12.078 22.862l19.746 13.986-3.856 11.278-24.133-1.03a166.228 166.228 0 0 0-4.427 25.488l23.051 7.19-.178 11.917-23.314 6.487a163.601 163.601 0 0 0 3.65 25.606l24.203-.299 3.509 11.395-20.149 13.362a162.78 162.78 0 0 0 11.428 23.204l22.859-7.738 6.869 9.751-15.014 18.909a163.464 163.464 0 0 0 17.99 18.591l19.378-14.446 9.548 7.154-8.464 22.682a163.403 163.403 0 0 0 22.865 12.078l13.978-19.743 11.282 3.851-1.028 24.122a164.64 164.64 0 0 0 25.488 4.44l7.191-23.043 11.911.167 6.487 23.311a163.513 163.513 0 0 0 25.601-3.653l-.282-24.186 11.389-3.521 13.354 20.141a161.06 161.06 0 0 0 23.207-11.423l-.833-2.465-26.767-43.92c-48.905 28.993-112.67 15.932-145.941-31.359z"/><path fill="#9D9FA1" d="m487.539 509.42 23.306-6.487a162.967 162.967 0 0 0-3.647-25.592l-24.169.282-3.538-11.377 20.144-13.371a163.05 163.05 0 0 0-11.417-23.201l-22.845 7.713-6.886-9.723 15.011-18.91a163.342 163.342 0 0 0-17.981-18.602l-19.37 14.424-9.559-7.131 8.461-22.679a163.659 163.659 0 0 0-22.865-12.081l-13.98 19.72-11.281-3.825 1.039-24.122a164.18 164.18 0 0 0-25.493-4.444l-7.183 23.023-11.919-.144-6.488-23.314a164.164 164.164 0 0 0-25.604 3.647l.282 24.184-11.38 3.538-13.359-20.158a163.289 163.289 0 0 0-23.212 11.42l5.062 14.958 20.059 32.913c49.208-30.937 114.588-18.204 148.416 29.887 34.943 49.674 23.003 118.277-26.673 153.234-2.389 1.68-4.833 3.216-7.301 4.682l26.767 43.92-6.892-20.389 9.74-6.878 18.91 15.022a163.799 163.799 0 0 0 18.591-17.989l-14.426-19.373 7.123-9.548 22.688 8.461a164.734 164.734 0 0 0 12.072-22.873l-19.717-13.973 3.834-11.287 24.127 1.039a167.215 167.215 0 0 0 4.432-25.49l-23.026-7.191.147-11.915z"/></g><g><path fill="none" d="M307.859 777.898c12.868-12.526 13.145-33.125.615-45.998-11.772-12.098-30.666-13.072-43.584-2.75l42.515 49.146c.149-.138.307-.259.454-.398zM261.852 777.269c12.382 12.735 32.647 13.131 45.552 1.028L264.89 729.15a33.607 33.607 0 0 0-2.411 2.12c-12.883 12.527-13.156 33.127-.627 45.999z"/><path fill="#D9DBDE" d="M278.805 713.673c22.814-3.65 44.279 11.886 47.935 34.706 2.295 14.345-3.004 28.147-12.919 37.328l8.165 9.443a20.85 20.85 0 0 1 5.609-9.564 20.83 20.83 0 0 1 14.509-5.929 21.12 21.12 0 0 1 7.029 1.228l1.367.492.505-1.358a69.963 69.963 0 0 0 4.212-18.997l.11-1.42-1.423-.155c-10.57-1.127-18.58-10.025-18.639-20.706-.011-5.694 2.236-11.038 6.338-15.027a20.838 20.838 0 0 1 3.329-2.646l1.197-.773-.739-1.22a71.013 71.013 0 0 0-11.982-14.876l-1.183-.815-1.014.988c-3.936 3.822-9.108 5.954-14.573 5.982a20.807 20.807 0 0 1-14.816-6.102c-3.969-3.943-6.166-9.189-6.166-14.776-.017-.788.057-1.55.141-2.298l.155-1.423-1.431-.2a75.607 75.607 0 0 0-9.751-.67 70.715 70.715 0 0 0-9.726.743l-1.397.2.146 1.411c.085.751.141 1.522.152 2.296.012 5.729-2.247 11.078-6.335 15.073a20.892 20.892 0 0 1-14.537 5.934 20.862 20.862 0 0 1-4.76-.553l10.808 12.495c5.504-4.461 12.189-7.611 19.684-8.811z"/><path fill="#FFF" d="m219.143 780.507.522 1.366 1.363-.514a20.92 20.92 0 0 1 7.21-1.332 20.726 20.726 0 0 1 14.822 6.072 20.786 20.786 0 0 1 6.177 14.773 21.13 21.13 0 0 1-3.326 11.387l-.785 1.228 1.214.797a69.522 69.522 0 0 0 17.287 8.229l1.363.432.463-1.35a20.972 20.972 0 0 1 5.184-8.134c3.904-3.803 9.057-5.9 14.522-5.926 8.859-.017 16.801 5.587 19.751 13.952l.48 1.353 1.37-.446a70.23 70.23 0 0 0 17.43-8.467l1.191-.81-.776-1.215c-2.168-3.345-3.32-7.238-3.362-11.244 0-1.895.268-3.735.743-5.509l-8.165-9.443a41.64 41.64 0 0 1-21.787 10.602c-22.817 3.653-44.276-11.883-47.927-34.7-2.453-15.324 3.769-30.008 15.014-39.124l-10.808-12.495a20.887 20.887 0 0 1-10.002-5.475l-1.011-1.002-1.457 1.397a70.042 70.042 0 0 0-11.474 14.542l-.723 1.226 1.197.762c6.093 3.849 9.734 10.443 9.746 17.629a19.218 19.218 0 0 1-.39 4.094c-1.688 8.652-9.317 15.708-18.103 16.744l-1.423.163.124 1.421c.079.892.181 1.778.288 2.653a70.732 70.732 0 0 0 4.058 16.364z"/><path fill="#FFF" d="M326.74 748.379c-3.656-22.82-25.121-38.356-47.935-34.706-7.496 1.2-14.181 4.351-19.683 8.812l5.768 6.666c12.919-10.322 31.812-9.348 43.584 2.75 12.529 12.873 12.253 33.472-.615 45.998-.147.139-.305.26-.455.398l6.417 7.41c9.915-9.181 15.215-22.983 12.919-37.328z"/><path fill="#D9DBDE" d="M261.852 777.269c-12.529-12.871-12.256-33.472.626-45.998a33.607 33.607 0 0 1 2.411-2.12l-5.768-6.666c-11.245 9.116-17.467 23.8-15.014 39.124 3.65 22.817 25.11 38.354 47.927 34.7a41.632 41.632 0 0 0 21.787-10.602l-6.417-7.41c-12.904 12.102-33.17 11.707-45.552-1.028z"/></g></g><path fill="#CACBCD" d="M747.59 823.529H646.945l13.323-80.398h73.996z"/><path fill="#E2E3E4" d="M811.913 832.2c0-9.083-7.357-16.44-16.437-16.44H591.743c-9.074 0-16.434 7.357-16.434 16.44v2.746h236.604V832.2z"/><path fill="#FFF" d="M575.309 834.946v10.043c0 9.088 7.36 16.447 16.434 16.447h203.733c9.079 0 16.437-7.359 16.437-16.447v-10.043H575.309zM1016.361 729.396c0 9.088-7.366 16.448-16.445 16.448H387.312c-9.082 0-16.448-7.36-16.448-16.448V326.477c0-9.083 7.366-16.451 16.448-16.451h612.604c9.079 0 16.445 7.369 16.445 16.451v402.919z"/><path fill="#E2E3E4" d="M387.312 696.511a2.745 2.745 0 0 1-2.747-2.738V326.477a2.744 2.744 0 0 1 2.747-2.742h612.604a2.738 2.738 0 0 1 2.738 2.742v367.295a2.739 2.739 0 0 1-2.738 2.738H387.312z"/><path fill="#FFED87" d="M396.9 336.064h593.422v348.109H396.9z"/><path fill="#FFF" d="m857.112 450.966-.248-1.208-1.203.242a17.578 17.578 0 0 1-6.174.152 17.455 17.455 0 0 1-11.516-7.024 17.518 17.518 0 0 1-3.168-13.108 17.743 17.743 0 0 1 4.28-9.026l.813-.915-.903-.824a58.631 58.631 0 0 0-13.274-9.147l-1.078-.536-.565 1.059a17.706 17.706 0 0 1-5.392 6.073c-3.755 2.646-8.317 3.701-12.863 2.998a17.616 17.616 0 0 1-14.564-14.234l-.223-1.188-1.197.189a58.996 58.996 0 0 0-15.624 4.721l-1.098.514.482 1.112a17.699 17.699 0 0 1 1.299 9.802c-.763 4.76-3.337 8.91-7.29 11.685a17.55 17.55 0 0 1-12.851 3.001 17.867 17.867 0 0 1-5.681-1.959l-1.072-.59-.599 1.064a58.654 58.654 0 0 0-6.036 15.234l-.277 1.169 1.158.316c8.645 2.343 14.121 10.808 12.744 19.695-.746 4.74-3.326 8.885-7.271 11.657a17.694 17.694 0 0 1-3.119 1.756l-1.099.483.455 1.112c2.021 5 4.709 9.698 7.98 13.966l.879.836.971-.687c3.783-2.656 8.365-3.74 12.916-3.035a17.524 17.524 0 0 1 11.508 7.047 17.44 17.44 0 0 1 3.159 13.105 16.112 16.112 0 0 1-.418 1.892l-.327 1.163 1.165.358a63.216 63.216 0 0 0 8.021 1.855c2.795.417 5.468.641 8.187.675l1.191.02.063-1.194c.031-.633.085-1.282.181-1.926.751-4.766 3.343-8.915 7.272-11.69a17.582 17.582 0 0 1 12.874-3.001 17.61 17.61 0 0 1 11.477 6.979l.708.966 1.395-.966a59.029 59.029 0 0 0 11.479-10.567l.768-.92-.897-.796c-4.551-4.012-6.702-9.975-5.76-15.954.167-1.129.464-2.259.87-3.354 2.552-6.968 9.836-11.821 17.283-11.51l1.203.051.088-1.194a66.83 66.83 0 0 0 .115-2.247 59.38 59.38 0 0 0-1.197-14.147zm-58.508 47.628c-19.457 0-35.233-15.776-35.233-35.24 0-19.458 15.776-35.233 35.233-35.233 19.46 0 35.239 15.776 35.239 35.233.001 19.463-15.779 35.24-35.239 35.24z"/><path fill="#144565" d="m205.43 683.18-.189-.92-.92.184a13.388 13.388 0 0 1-4.718.112 13.337 13.337 0 0 1-8.808-5.366 13.393 13.393 0 0 1-2.422-10.022 13.58 13.58 0 0 1 3.275-6.9l.618-.703-.686-.626a45.072 45.072 0 0 0-10.152-6.999l-.824-.406-.432.807a13.571 13.571 0 0 1-4.122 4.645 13.434 13.434 0 0 1-9.839 2.292 13.464 13.464 0 0 1-11.132-10.883l-.172-.909-.915.146a45.047 45.047 0 0 0-11.948 3.608l-.839.39.367.853a13.51 13.51 0 0 1 .997 7.495c-.584 3.637-2.555 6.813-5.573 8.933a13.418 13.418 0 0 1-9.827 2.296 13.637 13.637 0 0 1-4.342-1.499l-.821-.449-.458.813a44.707 44.707 0 0 0-4.613 11.648l-.211.895.881.237c6.612 1.793 10.801 8.267 9.748 15.062-.57 3.625-2.546 6.793-5.562 8.913-.743.522-1.547.977-2.386 1.344l-.838.367.35.853a45.672 45.672 0 0 0 6.101 10.678l.669.635.743-.522c2.894-2.029 6.397-2.859 9.875-2.317 3.554.559 6.68 2.47 8.8 5.387a13.341 13.341 0 0 1 2.098 11.464l-.251.89.889.276a48.555 48.555 0 0 0 6.135 1.417c2.137.319 4.181.488 6.259.517l.912.015.045-.912c.023-.485.068-.982.142-1.471a13.413 13.413 0 0 1 5.559-8.941 13.433 13.433 0 0 1 9.842-2.293 13.431 13.431 0 0 1 8.774 5.334l.548.742 1.062-.742a45.193 45.193 0 0 0 8.777-8.08l.587-.7-.683-.61a13.41 13.41 0 0 1-4.407-12.201c.127-.861.358-1.723.663-2.564 1.954-5.327 7.524-9.034 13.218-8.803l.917.043.068-.912c.042-.579.071-1.154.087-1.719a45.598 45.598 0 0 0-.916-10.822zm-44.733 36.417c-14.878 0-26.942-12.063-26.942-26.945 0-14.878 12.063-26.938 26.942-26.938 14.875 0 26.944 12.061 26.944 26.938 0 14.881-12.069 26.945-26.944 26.945z"/><path fill="none" d="M782.998 441.322c-12.371 8.701-15.342 25.793-6.635 38.17 8.701 12.374 25.793 15.347 38.164 6.646 12.377-8.704 15.347-25.795 6.641-38.167-8.701-12.38-25.793-15.356-38.17-6.649z"/><path fill="#E0E0E0" d="M798.604 428.121c-19.457 0-35.233 15.776-35.233 35.233 0 19.463 15.776 35.24 35.233 35.24 19.46 0 35.239-15.776 35.239-35.24.001-19.458-15.779-35.233-35.239-35.233zm15.923 58.016c-12.371 8.702-29.463 5.728-38.164-6.646-8.707-12.377-5.736-29.469 6.635-38.17 12.377-8.707 29.469-5.731 38.17 6.649 8.706 12.372 5.736 29.464-6.641 38.167z"/><path fill="#A2C8DB" d="M578.378 143.652c-.045 0-.09 0-.136.003-6.764-25.406-27.249-44.093-52.353-48.994L477.064 261.84h101.313c32.583 0 59.09-26.51 59.09-59.095.001-32.583-26.507-59.093-59.089-59.093z"/><path fill="#BDEAFF" d="M512.761 93.345c-36.958 0-67.113 29.703-67.831 66.495a50.663 50.663 0 0 0-9.271-.881c-28.362 0-51.439 23.077-51.439 51.441 0 28.362 23.077 51.439 51.439 51.439h41.405L525.889 94.66c-4.263-.832-8.642-1.315-13.128-1.315z"/><path fill="#E6E8E7" d="M693.615 136.411c-.031 0-.065 0-.096.002a47.382 47.382 0 0 0-36.767-34.406L622.468 219.41h71.147c22.882 0 41.495-18.616 41.495-41.498 0-22.885-18.613-41.501-41.495-41.501z"/><path fill="#FBFDFC" d="M647.535 101.084c-25.954 0-47.133 20.86-47.636 46.695a35.666 35.666 0 0 0-6.511-.618c-19.917 0-36.123 16.205-36.123 36.126 0 19.917 16.205 36.123 36.123 36.123h29.079l34.285-117.403c-2.992-.585-6.066-.923-9.217-.923z"/><path fill="#144565" d="M1282.572 492.098h-.034a17.09 17.09 0 0 0-13.261-12.408 17.201 17.201 0 0 0-3.323-.333c-9.361 0-16.998 7.521-17.179 16.84a13.004 13.004 0 0 0-2.349-.223c-7.183 0-13.026 5.844-13.026 13.026 0 7.182 5.844 13.026 13.026 13.026h36.145c8.249 0 14.963-6.714 14.963-14.966.001-8.249-6.713-14.962-14.962-14.962zM1230.819 551.972h-.054a26.904 26.904 0 0 0-20.871-19.531 27.104 27.104 0 0 0-5.229-.522c-14.734 0-26.756 11.838-27.041 26.505a20.342 20.342 0 0 0-3.695-.351c-11.305 0-20.502 9.198-20.502 20.502 0 11.305 9.197 20.503 20.502 20.503h56.89c12.984 0 23.552-10.564 23.552-23.555 0-12.984-10.567-23.551-23.552-23.551z"/><defs><path id="a" d="M396.9 336.064h593.422v348.109H396.9z"/></defs><clipPath id="b"><use xlink:href="#a" overflow="visible"/></clipPath><g clip-path="url(#b)"><path fill="#0E2E3B" d="M665.609 557.397c27.419 38.975 18.051 92.793-20.926 120.21-15.115 10.632-32.464 15.711-49.643 15.696v34.479c24.045.021 48.328-7.086 69.484-21.97 54.561-38.373 67.664-113.71 29.294-168.257-23.489-33.394-60.829-51.227-98.778-51.261v34.483c27.109.024 53.788 12.762 70.569 36.62z"/><path fill="#091A21" d="M525.556 508.266c-54.544 38.376-67.664 113.713-29.293 168.263 23.495 33.393 60.837 51.222 98.778 51.255v-34.479c-27.105-.022-53.785-12.761-70.569-36.619-27.416-38.972-18.046-92.796 20.931-120.21 15.116-10.635 32.464-15.711 49.638-15.696v-34.483c-24.037-.021-48.322 7.085-69.485 21.969z"/><path fill="#0B222B" d="m749.17 602.84 25.584-7.117a178.945 178.945 0 0 0-4.003-28.104l-26.544.305-3.885-12.493 22.123-14.686a179.938 179.938 0 0 0-12.541-25.469l-25.081 8.476-7.555-10.688 16.476-20.759a180.304 180.304 0 0 0-19.745-20.426l-21.273 15.841-10.488-7.829 9.283-24.903a178.963 178.963 0 0 0-25.104-13.267l-15.35 21.648-12.391-4.195 1.141-26.49a180.341 180.341 0 0 0-27.995-4.879l-7.888 25.282-8.893-.11v33.319c37.949.034 75.289 17.868 98.778 51.261 38.37 54.547 25.267 129.884-29.294 168.257-21.157 14.884-45.439 21.99-69.484 21.97v33.32l4.207.059 7.128 25.593a180.05 180.05 0 0 0 28.105-4.009l-.316-26.556 12.507-3.87 14.669 22.122a179.144 179.144 0 0 0 25.482-12.543l-8.481-25.096 10.691-7.552 20.762 16.487a180.19 180.19 0 0 0 20.42-19.748l-15.844-21.271 7.826-10.493 24.903 9.296a179.434 179.434 0 0 0 13.261-25.12l-21.651-15.339 4.21-12.396 26.487 1.138a182.247 182.247 0 0 0 4.873-27.989l-25.285-7.885.175-13.092z"/><path fill="#0E2E3B" d="M496.262 676.528c-38.37-54.55-25.25-129.887 29.293-168.263 21.163-14.884 45.448-21.99 69.485-21.97v-33.319l-4.195-.051-7.115-25.595a180.539 180.539 0 0 0-28.113 3.992l.311 26.561-12.498 3.89-14.678-22.142a180.07 180.07 0 0 0-25.479 12.543l8.495 25.118-10.703 7.532-20.765-16.487a179.74 179.74 0 0 0-20.42 19.743l15.875 21.298-7.86 10.463-24.915-9.285a180.931 180.931 0 0 0-13.261 25.109l21.683 15.358-4.229 12.382-26.499-1.132a181.315 181.315 0 0 0-4.861 27.989l25.307 7.885-.192 13.089-25.601 7.123a179.652 179.652 0 0 0 4.003 28.119l26.575-.322 3.865 12.504-22.134 14.684c3.453 8.704 7.64 17.21 12.546 25.474l25.11-8.495 7.543 10.709-16.493 20.765a179.859 179.859 0 0 0 19.751 20.409l21.281-15.87 10.48 7.863-9.28 24.906a178.374 178.374 0 0 0 25.098 13.258l15.35-21.671 12.399 4.229-1.141 26.487a182.205 182.205 0 0 0 27.989 4.873l7.888-25.305 8.882.128v-33.32c-37.939-.034-75.282-17.863-98.777-51.256z"/><path fill="#091A21" d="M644.684 677.607c38.977-27.417 48.345-81.235 20.926-120.21-16.781-23.858-43.46-36.597-70.569-36.619v38.585c14.991.014 29.742 7.035 39.022 20.228 15.161 21.553 9.978 51.309-11.572 66.47-8.359 5.881-17.953 8.664-27.45 8.656v38.587c17.179.014 34.527-5.065 49.643-15.697z"/><path fill="#0C2630" d="M556.018 634.491c-15.158-21.55-9.983-51.312 11.572-66.476 8.36-5.881 17.953-8.664 27.45-8.652v-38.585c-17.173-.015-34.522 5.062-49.638 15.696-38.977 27.414-48.347 81.238-20.931 120.21 16.784 23.858 43.463 36.597 70.569 36.619v-38.587c-14.985-.011-29.739-7.032-39.022-20.225z"/></g><g clip-path="url(#b)"><path fill="#BCBEC0" d="M898.727 629.003c22.907 32.56 15.076 77.527-17.487 100.438-12.631 8.885-27.125 13.123-41.478 13.111v21.614c18.661.018 37.503-5.494 53.923-17.043 42.325-29.782 52.5-88.234 22.727-130.56-18.227-25.908-47.204-39.748-76.649-39.776v21.62c22.651.021 44.941 10.664 58.964 30.596z"/><path fill="#9D9FA1" d="M785.85 593.831c-42.331 29.776-52.506 88.242-22.732 130.562 18.227 25.912 47.204 39.748 76.645 39.773v-21.614c-22.648-.02-44.935-10.666-58.957-30.601-22.905-32.558-15.079-77.525 17.483-100.433 12.629-8.882 27.126-13.122 41.474-13.111v-21.62c-18.655-.016-37.496 5.494-53.913 17.044z"/><path fill="#A2A4A6" d="m959.352 667.221 19.858-5.525a138.718 138.718 0 0 0-3.105-21.81l-20.598.24-3.01-9.692 17.159-11.392a138.617 138.617 0 0 0-9.729-19.771l-19.463 6.575-5.866-8.286 12.792-16.109a138.683 138.683 0 0 0-15.322-15.85l-16.504 12.29-8.143-6.075 7.211-19.325a140.276 140.276 0 0 0-19.486-10.294l-11.908 16.802-9.615-3.259.886-20.553a140.465 140.465 0 0 0-21.722-3.786l-6.12 19.616-6.905-.082v25.852c29.445.028 58.423 13.868 76.649 39.776 29.773 42.325 19.599 100.777-22.727 130.56-16.42 11.549-35.262 17.061-53.923 17.043v25.855l3.263.045 5.531 19.858a139.21 139.21 0 0 0 21.812-3.111l-.245-20.606 9.706-2.998 11.377 17.156a137.047 137.047 0 0 0 19.774-9.731l-6.578-19.472 8.294-5.858 16.109 12.798a139.25 139.25 0 0 0 15.844-15.327l-12.289-16.505 6.067-8.139 19.327 7.21a140.242 140.242 0 0 0 10.288-19.488l-16.798-11.902 3.266-9.616 20.557.887a141.895 141.895 0 0 0 3.771-21.725l-19.615-6.123.13-10.153z"/><path fill="#BCBEC0" d="M763.117 724.393c-29.773-42.319-19.599-100.785 22.732-130.562 16.417-11.55 35.259-17.061 53.912-17.044v-25.852l-3.253-.039-5.524-19.861a139.838 139.838 0 0 0-21.815 3.103l.237 20.606-9.695 3.012-11.38-17.173a139.162 139.162 0 0 0-19.776 9.731l6.595 19.485-8.306 5.847-16.115-12.791a138.88 138.88 0 0 0-15.838 15.321l12.309 16.521-6.095 8.122-19.33-7.208a140.664 140.664 0 0 0-10.288 19.48l16.823 11.917-3.283 9.61-20.564-.881a141.345 141.345 0 0 0-3.771 21.719l19.638 6.126-.152 10.152-19.858 5.527a138.522 138.522 0 0 0 3.108 21.818l20.624-.254 2.986 9.706-17.165 11.386a138.28 138.28 0 0 0 9.734 19.771l19.48-6.592 5.855 8.306-12.798 16.112a138.877 138.877 0 0 0 15.327 15.841l16.51-12.31 8.137 6.096-7.21 19.327a138.663 138.663 0 0 0 19.479 10.288l11.908-16.817 9.616 3.28-.875 20.553a140.611 140.611 0 0 0 21.716 3.783l6.121-19.633 6.889.097v-25.855c-29.441-.023-58.418-13.859-76.645-39.771z"/></g><path fill="#FFF" d="m918.416 156.399 2.235.327-.279 22.405-2.459 51.58-125.514 14.539zM920.928 132.89l-.023 2.069L792.399 245.25 918.731 71.398l2.268 63.42.031.026-.125.115z"/><path fill="#949494" d="m954.765 161.757-34.393 17.374.279-22.405z"/><path fill="#CCC" d="m920.905 134.959.125-.115 33.735 26.913-34.114-5.031-2.235-.327-126.017 88.851z"/><g><path fill="#FFF" d="M976.491 151.509a1.446 1.446 0 0 1-.692-2.715 616.768 616.768 0 0 1 15.375-8.117 1.445 1.445 0 0 1 1.31 2.577 608.18 608.18 0 0 0-15.302 8.08 1.442 1.442 0 0 1-.691.175zM1121.957 517.512a1.445 1.445 0 0 1-.627-2.747c10.957-5.288 21.677-10.979 31.86-16.919a1.437 1.437 0 0 1 1.976.519c.404.689.17 1.576-.52 1.977a462.767 462.767 0 0 1-32.063 17.026 1.402 1.402 0 0 1-.626.144zm62.438-36.488a1.444 1.444 0 0 1-.829-2.628 427.988 427.988 0 0 0 20.474-15.304 648.966 648.966 0 0 0 8.182-6.624 1.439 1.439 0 0 1 2.035.195 1.448 1.448 0 0 1-.194 2.036 629.333 629.333 0 0 1-8.222 6.654 430.848 430.848 0 0 1-20.615 15.409 1.435 1.435 0 0 1-.831.262zm55.657-46.198a1.446 1.446 0 0 1-1.022-2.467c9.162-9.147 16.866-18.026 23.552-27.151a1.445 1.445 0 1 1 2.332 1.708c-6.776 9.246-14.573 18.235-23.84 27.487a1.443 1.443 0 0 1-1.022.423zm41.958-58.489a1.448 1.448 0 0 1-1.321-2.033 146.877 146.877 0 0 0 5.02-12.862c2.284-6.79 4.227-13.958 5.771-21.307a1.456 1.456 0 0 1 1.711-1.118 1.444 1.444 0 0 1 1.118 1.711c-1.566 7.461-3.537 14.74-5.86 21.637-1.477 4.39-3.199 8.8-5.116 13.114-.241.537-.77.858-1.323.858zm15.31-70.354h-.063a1.445 1.445 0 0 1-1.383-1.505c.144-3.34.215-6.756.215-10.152 0-8.543-.458-17.219-1.361-25.787a1.444 1.444 0 0 1 1.284-1.589 1.432 1.432 0 0 1 1.59 1.288 249.48 249.48 0 0 1 1.378 26.089c0 3.436-.073 6.895-.215 10.274a1.444 1.444 0 0 1-1.445 1.382zm-7.597-71.743c-.644 0-1.23-.429-1.4-1.082a218.94 218.94 0 0 0-5.395-17.71 149.501 149.501 0 0 0-6.714-16.024 1.447 1.447 0 0 1 .663-1.934 1.45 1.45 0 0 1 1.935.664 152.411 152.411 0 0 1 6.843 16.335 222.857 222.857 0 0 1 5.469 17.944 1.446 1.446 0 0 1-1.401 1.807zm-31.939-64.239a1.45 1.45 0 0 1-1.106-.514c-7.572-8.983-16.353-17.216-26.098-24.472a1.444 1.444 0 1 1 1.727-2.317c9.924 7.386 18.867 15.773 26.583 24.926a1.448 1.448 0 0 1-1.106 2.377zm-233.072-41.732c-.57 0-1.109-.339-1.338-.904a1.439 1.439 0 0 1 .793-1.88c11.937-4.862 23.187-8.712 34.396-11.77a1.446 1.446 0 0 1 .761 2.789c-11.095 3.027-22.241 6.841-34.067 11.657a1.439 1.439 0 0 1-.545.108zm175.634-1.384a1.39 1.39 0 0 1-.606-.136c-10.646-4.932-22.026-8.972-33.828-12.01a1.445 1.445 0 1 1 .724-2.801c11.97 3.083 23.517 7.182 34.318 12.19a1.447 1.447 0 0 1 .706 1.92 1.451 1.451 0 0 1-1.314.837zm-105.901-17.191a1.447 1.447 0 0 1-.156-2.882c12.198-1.347 24.406-1.604 36.402-.759a1.446 1.446 0 0 1 1.341 1.544c-.054.799-.811 1.412-1.545 1.338-11.823-.833-23.858-.576-35.883.751a1.376 1.376 0 0 1-.159.008zM1072.531 538.381a1.447 1.447 0 0 1-.52-2.795c5.246-2.013 10.485-4.029 15.705-6.102l.464-.183a1.446 1.446 0 0 1 1.05 2.692l-.273.107c-5.404 2.148-10.655 4.165-15.906 6.184a1.45 1.45 0 0 1-.52.097z"/></g><g><path fill="#EB6364" d="m434.217 761.055 84.126-83.389H287.188l84.122 83.389z"/><path fill="#F66" d="M402.727 577.609 287.188 677.666h231.073z"/><path fill="#FFF" d="M308.361 616.956h188.728v182.145H308.361z"/><path fill="#74BDE9" d="M329.248 633.616h82.302v7.721h-82.302zM329.248 654.459h147.029v7.717H329.248zM329.248 675.301h147.029v7.713H329.248zM329.248 696.139h147.029v7.716H329.248zM329.248 716.977h147.029v7.716H329.248zM329.248 737.817h57.432v7.719h-57.432z"/><path fill="#DE5E5F" d="M287.188 677.666v159.469l84.122-76.08z"/><path fill="#F66" d="m371.31 761.055-84.122 76.08h231.155l-84.126-76.08z"/><path fill="#DE5E5F" d="m434.217 761.055 84.126 76.08V677.666z"/></g><g><path fill="#FFF" d="M1091.04 739.909c8.461 0 15.319 6.86 15.319 15.319h22.419c0-8.459 6.86-15.319 15.321-15.319 8.458 0 15.318 6.86 15.318 15.319h22.416c0-8.459 6.861-15.319 15.322-15.319 8.458 0 15.318 6.86 15.318 15.319h32.924v-46.354c0-10.036-8.139-18.173-18.173-18.173h-166.255c-10.037 0-18.174 8.137-18.174 18.173v46.354h32.925c.002-8.458 6.862-15.319 15.32-15.319z"/><path fill="#EBEBEC" d="M1212.475 755.229c0 8.461-6.86 15.321-15.318 15.321-8.461 0-15.322-6.86-15.322-15.321h-22.416c0 8.461-6.86 15.321-15.318 15.321-8.461 0-15.321-6.86-15.321-15.321h-22.419c0 8.461-6.858 15.321-15.319 15.321-8.458 0-15.318-6.86-15.318-15.321h-32.925v44.062c0 10.036 8.137 18.173 18.174 18.173h124.87l29.4 37.105v-37.105h11.984c10.034 0 18.173-8.137 18.173-18.173v-44.062h-32.925z"/><path fill="#F79446" d="M1091.04 739.909c-8.458 0-15.318 6.86-15.318 15.319h30.638c-.001-8.458-6.859-15.319-15.32-15.319z"/><path fill="#E08740" d="M1091.04 770.55c8.461 0 15.319-6.86 15.319-15.321h-30.638c.001 8.46 6.861 15.321 15.319 15.321zM1144.1 770.55c8.458 0 15.318-6.86 15.318-15.321h-30.64c0 8.46 6.861 15.321 15.322 15.321z"/><path fill="#F79446" d="M1144.1 739.909c-8.461 0-15.321 6.86-15.321 15.319h30.64c-.001-8.458-6.861-15.319-15.319-15.319z"/><path fill="#E08740" d="M1197.156 770.55c8.458 0 15.318-6.86 15.318-15.321h-30.641c.001 8.46 6.862 15.321 15.323 15.321z"/><path fill="#F79446" d="M1197.156 739.909c-8.461 0-15.322 6.86-15.322 15.319h30.641c0-8.458-6.861-15.319-15.319-15.319z"/></g><g><path fill="#646467" d="M311.529 180.512a18.04 18.04 0 0 1 3.061 10.07v271.056c0 10.005-8.103 18.111-18.108 18.111H106.178c-3.605 0-6.945-1.082-9.771-2.902 3.252 4.85 8.777 8.043 15.047 8.043h190.307c10.002 0 18.105-8.111 18.105-18.111V195.72c0-6.397-3.331-11.987-8.337-15.208z"/><path fill="#58595B" d="M296.481 479.749c10.005 0 18.108-8.105 18.108-18.111V190.582a18.03 18.03 0 0 0-3.061-10.07c-2.823-1.815-6.166-2.896-9.768-2.896H111.454c-10 0-18.11 8.103-18.11 18.105V466.78c0 3.727 1.132 7.19 3.063 10.067 2.826 1.821 6.166 2.902 9.771 2.902h190.303z"/><path fill="#505153" d="M112.68 197.798v273.78h135.417l59.629-59.03v-214.75z"/><path fill="#FFF" d="M304.126 194.359H109.083v273.778h135.415l59.628-59.028z"/><path fill="#EFEFF0" d="M133.947 225.014h45.411v44.945h-45.411zM133.947 308.778h45.411v44.948h-45.411zM133.947 392.542h45.411v44.951h-45.411zM280.748 228.783h-85.145a1.884 1.884 0 0 1 0-3.769h85.145a1.88 1.88 0 0 1 1.886 1.88 1.884 1.884 0 0 1-1.886 1.889zM280.748 250.857h-85.145a1.886 1.886 0 0 1 0-3.769h85.145c1.047 0 1.886.844 1.886 1.88a1.882 1.882 0 0 1-1.886 1.889zM280.748 272.935h-85.145a1.886 1.886 0 0 1 0-3.772h85.145c1.047 0 1.886.844 1.886 1.88a1.884 1.884 0 0 1-1.886 1.892zM280.748 311.062h-85.145a1.884 1.884 0 0 1 0-3.769h85.145a1.88 1.88 0 0 1 1.886 1.88 1.884 1.884 0 0 1-1.886 1.889zM280.748 333.131h-85.145a1.88 1.88 0 1 1 0-3.763h85.145c1.047 0 1.886.839 1.886 1.883s-.839 1.88-1.886 1.88zM280.748 355.208h-85.145a1.884 1.884 0 0 1 0-3.769h85.145c1.047 0 1.886.844 1.886 1.889a1.88 1.88 0 0 1-1.886 1.88zM280.748 393.339h-85.145a1.884 1.884 0 0 1 0-3.766h85.145c1.047 0 1.886.838 1.886 1.886a1.88 1.88 0 0 1-1.886 1.88zM244.385 415.416h-48.782a1.886 1.886 0 0 1 0-3.772h48.782c1.042 0 1.883.841 1.883 1.889a1.882 1.882 0 0 1-1.883 1.883zM244.385 437.494h-48.782a1.884 1.884 0 0 1-1.883-1.883 1.89 1.89 0 0 1 1.883-1.889h48.782c1.042 0 1.883.847 1.883 1.889a1.881 1.881 0 0 1-1.883 1.883z"/><path fill="#44A2CC" d="M195.309 172.344v17.859h23.379v-18.509c-3.261 2.801-7.445 4.557-12.083 4.557-4.269 0-8.157-1.493-11.296-3.907z"/><path fill="#4DB8E9" d="M206.604 180.088c-4.915 0-9.63-1.626-13.633-4.701-5.613-4.317-8.831-10.791-8.831-17.761 0-12.385 10.079-22.461 22.464-22.461 12.388 0 22.464 10.076 22.464 22.461 0 6.488-2.874 12.676-7.882 16.979-4.11 3.532-9.288 5.483-14.582 5.483zm0-37.246c-8.156 0-14.791 6.634-14.791 14.785 0 4.568 2.128 8.828 5.833 11.674a14.663 14.663 0 0 0 18.537-.517c3.309-2.843 5.206-6.911 5.206-11.157.001-8.151-6.634-14.785-14.785-14.785z"/><path fill="#45A5CF" d="M168.548 215.149h76.116c6.889 0 12.476-5.584 12.476-12.473H156.075c0 6.889 5.584 12.473 12.473 12.473z"/><path fill="#4DB8E9" d="M244.664 190.204h-76.116c-6.889 0-12.473 5.584-12.473 12.473H257.14c0-6.889-5.587-12.473-12.476-12.473z"/><g><path fill="#EFEFF0" d="m244.498 468.137 59.628-59.028h-59.628z"/></g></g></svg>