<svg xmlns="http://www.w3.org/2000/svg" width="2000pt" height="2000pt" viewBox="0 0 2000 2000"><path style="fill:none" d="M0 0h2000v2000H0z"/><path style="stroke:none;fill-rule:nonzero;fill:#a4dded;fill-opacity:1" d="M1416.559 720 1120 423.441C1105.121 408.56 1084.488 400 1063.441 400H640c-44.102 0-80 35.898-80 80v1040c0 44.102 35.898 80 80 80h720c44.102 0 80-35.898 80-80V776.559c0-21.047-8.55-41.68-23.441-56.559"/><path style="stroke:none;fill-rule:nonzero;fill:#e0aa5a;fill-opacity:1" d="M1120.5 481.441C1105.621 466.56 1084.988 458 1063.941 458H1040.5v300.012c0 55.117 44.871 99.988 99.988 99.988H1440.5v-23.441c0-21.047-8.55-41.68-23.441-56.559L1120.5 481.441"/><path style="stroke:none;fill-rule:nonzero;fill:#e0aa5a;fill-opacity:1" d="M1416.559 720 1120 423.441a79.04 79.04 0 0 0-9.77-8.27L1357.06 662c14.89 14.879 23.441 35.512 23.441 56.559V1462c0 44.102-35.898 80-80 80h-720c-6.184 0-12.2-.73-17.984-2.059C571.398 1574.43 602.777 1600 640 1600h720c44.102 0 80-35.898 80-80V776.559c0-21.047-8.55-41.68-23.441-56.559"/><path style="stroke:none;fill-rule:nonzero;fill:#fff0c1;fill-opacity:1" d="M608.5 1578V538c0-44.102 35.898-80 80-80h423.441c21.047 0 41.68 8.559 56.559 23.441l265.89 265.88c-4.011-10.173-10.038-19.532-17.831-27.321L1120 423.441C1105.121 408.56 1084.488 400 1063.441 400H640c-44.102 0-80 35.898-80 80v1040c0 33.55 20.79 62.34 50.152 74.2a79.957 79.957 0 0 1-1.652-16.2"/><path style="stroke:none;fill-rule:nonzero;fill:#23256e;fill-opacity:1" d="M640 417.5c-34.465 0-62.5 28.04-62.5 62.5v1040c0 34.46 28.035 62.5 62.5 62.5h720c34.46 0 62.5-28.04 62.5-62.5V776.559c0-16.438-6.672-32.547-18.309-44.188L1107.63 435.81c-11.64-11.637-27.75-18.309-44.188-18.309Zm720 1200H640c-53.762 0-97.5-43.738-97.5-97.5V480c0-53.762 43.738-97.5 97.5-97.5h423.441c25.66 0 50.778 10.41 68.93 28.559l296.57 296.57c18.149 18.152 28.559 43.27 28.559 68.93V1520c0 53.762-43.738 97.5-97.5 97.5"/><path style="stroke:none;fill-rule:nonzero;fill:#89c1ce;fill-opacity:1" d="M1120 423.441C1105.121 408.56 1084.488 400 1063.441 400H1040v300.012c0 55.117 44.871 99.988 99.988 99.988H1440v-23.441c0-21.047-8.55-41.68-23.441-56.559L1120 423.441"/><path style="stroke:none;fill-rule:nonzero;fill:#ab6751;fill-opacity:1" d="M1194.488 748c-55.117 0-99.988-44.871-99.988-99.988V406.34c-9.781-4.121-20.36-6.34-31.059-6.34H1040v300.012c0 55.117 44.871 99.988 99.988 99.988H1440v-23.441c0-9.79-1.871-19.489-5.352-28.559h-240.16"/><path style="stroke:none;fill-rule:nonzero;fill:#23256e;fill-opacity:1" d="M1057.5 417.5v282.512c0 45.488 37 82.488 82.488 82.488H1422.5v-5.941c0-16.438-6.672-32.547-18.309-44.188L1107.63 435.81c-11.64-11.637-27.75-18.309-44.188-18.309Zm382.5 400h-300.012c-64.789 0-117.488-52.7-117.488-117.488V400c0-9.66 7.828-17.5 17.5-17.5h23.441c25.66 0 50.778 10.41 68.93 28.559l296.57 296.57c18.149 18.152 28.559 43.27 28.559 68.93V800c0 9.66-7.828 17.5-17.5 17.5"/><path style="stroke:none;fill-rule:nonzero;fill:#6fb6c1;fill-opacity:1" d="M1223.34 1111.012 1104.82 959.21c-31.09-39.691-95.55-39.73-126.64.039l-118.516 151.762c-20.351 26.047-23.945 60.86-9.336 90.816 13.672 28.05 40.86 45.621 71.172 46.172v160c0 44.102 35.898 80 80 80h80c44.102 0 80-35.898 80-80v-160c30.309-.55 57.5-18.121 71.172-46.172 14.61-29.957 11.02-64.77-9.332-90.816"/><path style="stroke:none;fill-rule:nonzero;fill:#f3825b;fill-opacity:1" d="M1181.84 1063.012 1063.32 911.21c-31.09-39.691-95.547-39.73-126.64.039l-118.516 151.762c-20.351 26.047-23.945 60.86-9.336 90.816 13.672 28.05 40.86 45.621 71.172 46.172v160c0 44.102 35.898 80 80 80h80c44.102 0 80-35.898 80-80v-160c30.309-.55 57.5-18.121 71.172-46.172 14.61-29.957 11.02-64.77-9.332-90.816"/><path style="stroke:none;fill-rule:nonzero;fill:#d35f57;fill-opacity:1" d="M817.5 1157c-2.457-.04-4.89-.21-7.297-.48a84.477 84.477 0 0 0 7.297 11.43V1157M1181.84 1063.012 1063.32 911.21c-12.98-16.57-31.78-26.223-51.539-28.961l107.559 137.762c20.351 26.047 23.941 60.86 9.332 90.816-9.23 18.934-24.613 33.094-42.961 40.461-17.18 6.91-28.211 23.852-28.211 42.371V1317c0 44.18-35.82 80-80 80h-80a82.86 82.86 0 0 1-8.633-.469C902.164 1422.31 929.055 1440 960 1440h80c44.18 0 80-35.82 80-80v-160c30.309-.55 57.5-18.121 71.172-46.172 14.61-29.957 11.02-64.77-9.332-90.816"/><path style="stroke:none;fill-rule:nonzero;fill:#23256e;fill-opacity:1" d="M1000 898.941h-.031c-19.992 0-38.035 8.418-49.504 23.09l-118.508 151.75c-16.215 20.758-19.047 48.489-7.398 72.38 10.718 21.987 32.086 35.917 55.757 36.339 9.54.172 17.184 7.96 17.184 17.5v160c0 34.46 28.035 62.5 62.5 62.5h80c34.46 0 62.5-28.04 62.5-62.5v-160c0-9.54 7.64-17.328 17.18-17.5 23.68-.422 45.039-14.352 55.761-36.34 11.649-23.89 8.82-51.62-7.402-72.379l-118.508-151.8C1038.06 907.34 1020 898.94 1000 898.94Zm40 558.559h-80c-53.762 0-97.5-43.738-97.5-97.5v-144.352c-29.793-5.918-55.504-25.636-69.402-54.148-17.559-36.012-13.239-77.879 11.273-109.262L922.887 900.48c18.148-23.21 46.234-36.53 77.062-36.539h.051c30.828 0 58.93 13.29 77.102 36.48l118.527 151.817c24.512 31.383 28.832 73.25 11.27 109.262-13.899 28.512-39.61 48.23-69.399 54.148V1360c0 53.762-43.738 97.5-97.5 97.5"/></svg>