<svg xmlns="http://www.w3.org/2000/svg" width="425.2pt" height="425.2pt" viewBox="0 0 425.2 425.2"><defs><clipPath id="a"><path d="M0 0h425.2v425.2H0Zm0 0"/></clipPath></defs><g clip-path="url(#a)"><path style="stroke:none;fill-rule:nonzero;fill:#beb0d6;fill-opacity:1" d="M425.2 425.2H0V0h425.2v425.2M212.601 45.562c-90.801 0-164.407 74.785-164.407 167.039 0 92.25 73.606 167.039 164.407 167.039 90.796 0 164.402-74.79 164.402-167.04 0-92.253-73.606-167.038-164.402-167.038"/></g><path style="stroke:none;fill-rule:nonzero;fill:#c9bede;fill-opacity:1" d="M212.602 379.64c-90.801 0-164.407-74.788-164.407-167.038 0-92.254 73.606-167.04 164.407-167.04 90.796 0 164.402 74.786 164.402 167.04 0 92.25-73.606 167.039-164.402 167.039m90.386-83.121h.039c10.164-.012 18.399-3.649 18.399-8.13l16.64-97.488c1.188-12.175-6.453-18.687-16.636-18.687v-21.297c0-5.625-8.258-10.191-18.442-10.191H197.73c-.257-6.747-2.796-12.047-5.894-12.047h-78.652c-3.27 0-5.918 5.898-5.918 13.175v20.747h-13.29c-3.265 0-6.964 4.078-6.964 9.886l2.199 14.969 1.187 7.344 16.868 93.59.007.218c.145 4.387 4.645 7.91 10.18 7.91h185.531"/><path style="stroke:none;fill-rule:nonzero;fill:#8980bc;fill-opacity:1" d="M302.988 140.727H197.73c-.257-6.747-2.796-12.047-5.894-12.047h-78.652c-3.27 0-5.918 5.898-5.918 13.175v144.48l.007.27c.149 5.5 4.649 9.915 10.18 9.915h185.535c10.184 0 18.442-4.56 18.442-10.184V150.918c0-5.625-8.258-10.191-18.442-10.191"/><path style="stroke:none;fill-rule:nonzero;fill:#2e3092;fill-opacity:1" d="M121.29 135.04a2.659 2.659 0 0 1-2.665 2.66 2.659 2.659 0 0 1-2.664-2.66 2.66 2.66 0 0 1 2.664-2.665 2.66 2.66 0 0 1 2.664 2.664M129.406 135.04a2.659 2.659 0 0 1-2.664 2.66 2.659 2.659 0 0 1-2.664-2.66 2.66 2.66 0 0 1 2.664-2.665 2.66 2.66 0 0 1 2.664 2.664M137.379 135.04a2.662 2.662 0 0 1-2.668 2.66 2.662 2.662 0 1 1 0-5.325 2.663 2.663 0 0 1 2.668 2.664"/><path style="stroke:none;fill-rule:nonzero;fill:#fff;fill-opacity:1" d="M321.426 172.215h-123.7c-.253-5.38-2.796-9.613-5.89-9.613h-97.86c-3.265 0-6.964 4.078-6.964 9.886l2.199 14.969 1.187 7.344 16.868 93.59.007.218c.145 4.387 4.645 7.91 10.18 7.91h185.531c10.184 0 18.442-3.64 18.442-8.128l16.64-97.489c1.188-12.175-6.457-18.687-16.64-18.687"/><path style="stroke:none;fill-rule:nonzero;fill:#dcd7eb;fill-opacity:1" d="M257.586 209.293c-30.371 0-41.328-14.203-41.332-14.211-.008.008-10.965 14.211-41.336 14.211 0 0-6.844 67.434 41.336 80.27 48.18-12.836 41.332-80.27 41.332-80.27"/><path style="stroke:none;fill-rule:nonzero;fill:#fff;fill-opacity:1" d="M252.578 212.809c-26.691 0-36.32-12.48-36.324-12.489-.008.008-9.637 12.489-36.328 12.489 0 0-6.02 60.238 36.328 71.515 42.344-11.277 36.324-71.515 36.324-71.515"/><path style="stroke:none;fill-rule:nonzero;fill:#ddd7eb;fill-opacity:1" d="M216.254 289.563c-37.524-9.997-41.672-53.11-41.668-71.696-.004 18.586 4.144 61.7 41.668 71.696.023-.004.043-.012.066-.016-.02.004-.043.012-.066.015m-41.336-80.269h.047-.047m.066 0h.028-.028m.047 0h.028-.028m.047 0h.027-.027m.05 0h.024-.023m.043 0h.027-.027m.047-.004h.027-.027m.047 0h.027-.027m.047 0h.027-.028m.043 0h.04-.04m.047 0h.094-.094m.102 0h.043-.043m.043 0h.047-.047m.05 0h.044-.043m.05 0h.036-.036m.047 0h.035-.035m.047 0h.035-.035m.047 0h.043-.043m.047 0c7.848-.074 14.371-1.105 19.723-2.578-5.348 1.473-11.875 2.504-19.723 2.578"/><path style="stroke:none;fill-rule:nonzero;fill:#c3bbdc;fill-opacity:1" d="M216.254 289.563c-37.524-9.997-41.672-53.11-41.668-71.696 0-5.277.332-8.574.332-8.574h.281l.02-.004H175.836c7.848-.074 14.375-1.105 19.723-2.578.91 1.258 1.82 2.516 2.734 3.77-4.926 1.378-10.996 2.328-18.367 2.328 0 0-6.02 60.238 36.328 71.515 10.762-2.867 18.398-8.894 23.809-16.297a541.281 541.281 0 0 1 2.68 3.961c-6.102 7.938-14.602 14.39-26.423 17.559-.023.004-.043.012-.066.015"/><path style="stroke:none;fill-rule:nonzero;fill:#ddd7eb;fill-opacity:1" d="M216.254 284.324c-42.348-11.277-36.328-71.515-36.328-71.515 7.37 0 13.441-.95 18.367-2.329 11.32 15.54 22.96 30.856 34.094 46.536a700.4 700.4 0 0 1 7.675 11.011c-5.41 7.403-13.046 13.43-23.808 16.297"/><path style="stroke:none;fill-rule:nonzero;fill:#8dc63f;fill-opacity:1" d="m214.527 259.582-17.644-13.566 1.93-2.512 17.644 13.562-1.93 2.516"/><path style="stroke:none;fill-rule:nonzero;fill:#8dc63f;fill-opacity:1" d="m214.5 259.582 28.145-32.238-2.38-2.09-28.144 32.238 2.379 2.09"/></svg>