<svg xmlns="http://www.w3.org/2000/svg" viewBox="0 0 100 100" width="500" height="500"><path fill="#c7ede6" d="M88.494 56.039c.299-.614.563-1.259.792-1.935 2.622-7.739-1.343-17.008-9.693-19.245-.903-11.338-8.87-19.115-17.867-20.442-10.298-1.519-19.733 5.023-22.872 15.422-3.784-1.34-7.471-1.177-10.945.853-1.576.729-3.018 1.805-4.312 3.22-1.9 2.077-3.134 4.7-3.637 7.465-.745.117-1.477.235-2.167.482-4.023 1.443-6.562 4.413-7.258 8.886-.434 2.785.441 5.564.929 6.687 1.927 4.436 6.396 6.952 10.936 6.286.226-.033.554.069.749.232.24 7.091 3.683 13.362 8.848 16.944 8.287 5.748 18.949 3.977 25.675-3.905 2.882 2.948 6.312 4.38 10.342 3.86 4.006-.517 7.117-2.728 9.387-6.322 1.048.282 2.043.689 3.071.801 4.025.44 7.294-1.161 9.692-4.78.918-1.385 1.786-3.181 1.786-6.328 0-3.245-1.288-6.2-3.456-8.181z"/><path fill="#fdfcef" d="M77.024 48.447h11.714a4.868 4.868 0 0 0 1-9.634 5.15 5.15 0 0 0 .043-.625 5.042 5.042 0 0 0-5.042-5.042 5.03 5.03 0 0 0-4.02 2.008 5.561 5.561 0 0 0-6.244-5.095c-2.369.29-4.328 2.121-4.764 4.467a5.657 5.657 0 0 0 .014 2.168 3.464 3.464 0 0 0-2.546-1.115 3.475 3.475 0 0 0-3.466 3.248 4.673 4.673 0 0 0-2.706.187c-1.832.688-3.137 2.413-3.214 4.369a4.869 4.869 0 0 0 4.864 5.064H73.88"/><path fill="#472b29" d="M88.738 48.947H77.024a.5.5 0 0 1 0-1h11.714a4.374 4.374 0 0 0 4.369-4.369 4.383 4.383 0 0 0-3.47-4.275.5.5 0 0 1-.394-.551c.023-.185.039-.373.039-.564a4.547 4.547 0 0 0-4.542-4.542 4.51 4.51 0 0 0-3.622 1.81.49.49 0 0 1-.54.178.499.499 0 0 1-.357-.441 5.084 5.084 0 0 0-1.842-3.533 5.043 5.043 0 0 0-3.843-1.104c-2.156.264-3.938 1.934-4.333 4.062a5.16 5.16 0 0 0 .012 1.978.5.5 0 0 1-.856.44 2.946 2.946 0 0 0-2.18-.955 2.982 2.982 0 0 0-2.967 2.78.502.502 0 0 1-.607.455 4.143 4.143 0 0 0-2.422.167c-1.661.623-2.822 2.199-2.89 3.92a4.337 4.337 0 0 0 1.216 3.204 4.334 4.334 0 0 0 3.148 1.34H73.88a.5.5 0 0 1 0 1H62.658c-1.474 0-2.848-.585-3.869-1.647s-1.552-2.46-1.495-3.936c.083-2.118 1.504-4.054 3.537-4.817.798-.298 1.623-.398 2.457-.298a3.986 3.986 0 0 1 3.891-3.168 3.97 3.97 0 0 1 1.934.506c0-.382.035-.767.106-1.151.475-2.553 2.611-4.556 5.195-4.872a6.02 6.02 0 0 1 4.598 1.323 6.107 6.107 0 0 1 2.03 3.178 5.48 5.48 0 0 1 3.697-1.417 5.548 5.548 0 0 1 5.535 5.788 5.392 5.392 0 0 1 3.832 5.144 5.373 5.373 0 0 1-5.368 5.367z"/><path fill="#fdfcef" d="M72.775 38.951c-1.801-.118-3.351 1.126-3.462 2.778-.014.205-.005.407.025.604a2.116 2.116 0 0 0-1.452-.697c-1.08-.071-2.013.643-2.149 1.613a3.077 3.077 0 0 0-.614-.104c-1.576-.103-2.932.985-3.029 2.431"/><path fill="#472b29" d="M62.095 45.825h-.017a.25.25 0 0 1-.233-.266c.106-1.582 1.575-2.783 3.295-2.664.134.009.27.026.406.052.274-.963 1.261-1.628 2.356-1.562.423.028.82.159 1.158.38l.003-.053c.12-1.787 1.785-3.13 3.728-3.011a.25.25 0 0 1 .233.266.244.244 0 0 1-.266.233c-1.659-.116-3.095 1.033-3.196 2.545-.012.183-.004.368.023.549a.25.25 0 0 1-.434.203 1.858 1.858 0 0 0-1.281-.614c-.935-.065-1.768.553-1.885 1.398a.25.25 0 0 1-.314.206 2.798 2.798 0 0 0-.564-.096c-1.427-.088-2.675.892-2.764 2.198a.25.25 0 0 1-.248.236z"/><path fill="#fdfcef" d="M90.709 39.384c-1.692-.798-3.649-.233-4.371 1.262-.09.186-.156.377-.2.571"/><path fill="#472b29" d="M86.138 41.467a.25.25 0 0 1-.244-.305c.05-.217.123-.427.219-.624.781-1.615 2.891-2.232 4.702-1.379a.25.25 0 0 1-.213.453c-1.567-.738-3.378-.225-4.039 1.145-.079.164-.14.338-.182.518a.249.249 0 0 1-.243.192z"/><path fill="#fff" d="M21.823 47h-9.99a.5.5 0 0 1 0-1h9.989a.5.5 0 0 1 .001 1zm2.869 0h-1.439a.5.5 0 0 1 0-1h1.439a.5.5 0 0 1 0 1zm4.038 0h-2.536a.5.5 0 0 1 0-1h2.536a.5.5 0 0 1 0 1zm0 2h-9.577a.5.5 0 0 1 0-1h9.577a.5.5 0 0 1 0 1zm-11.301 0h-.578a.5.5 0 0 1 0-1h.578a.5.5 0 0 1 0 1zm-2.368 0h-1.45a.5.5 0 0 1 0-1h1.45a.5.5 0 0 1 0 1zM24.16 45h-5.007a.5.5 0 0 1 0-1h5.007a.5.5 0 0 1 0 1zM24.16 43h-1.252a.5.5 0 0 1 0-1h1.252a.5.5 0 0 1 0 1zM20.905 51h-1.751a.5.5 0 0 1 0-1h1.751a.5.5 0 0 1 0 1zM68.408 25h-9.989a.5.5 0 0 1 0-1h9.989a.5.5 0 0 1 0 1zm2.869 0h-1.44a.5.5 0 0 1 0-1h1.44a.5.5 0 0 1 0 1zm4.038 0h-2.536a.5.5 0 0 1 0-1h2.536a.5.5 0 0 1 0 1zm-2.018-4H63.72a.5.5 0 0 1 0-1h9.577a.5.5 0 0 1 0 1zm-11.301 0h-.578a.5.5 0 0 1 0-1h.578a.5.5 0 0 1 0 1zm-2.367 0h-1.45a.5.5 0 0 1 0-1h1.45a.5.5 0 0 1 0 1zM70.744 23h-5.007a.5.5 0 0 1 0-1h5.007a.5.5 0 0 1 0 1z"/><path fill="#fff" d="M70.744 21h-1.252a.5.5 0 0 1 0-1h1.252a.5.5 0 0 1 0 1zM64.288 23h-1.751a.5.5 0 0 1 0-1h1.751a.5.5 0 0 1 0 1z"/><path fill="#cdcbbd" d="M34.443 69.3c-.485 0-1.086-.136-1.427-1.199-.265-.826-.265-1.847-.264-2.522L32.7 39.251v-3.649c0-1.6 1.278-2.901 2.849-2.901h17.179c1.605 0 2.911 1.375 2.911 3.066v1.393c0 1.205.951 2.187 2.119 2.187h15.634c.396 0 .718.353.718.787v22.5c0 .305.01.681.021 1.102.044 1.634.114 4.276-.436 5.565H34.443z"/><path fill="#472b29" d="M52.728 33.4c1.219 0 2.211 1.061 2.211 2.366v1.393c0 1.592 1.264 2.887 2.819 2.887l15.617-.004c.007.004.035.033.035.091v22.501c0 .31.01.692.021 1.12.033 1.228.096 3.56-.236 4.847H34.443c-.261 0-.531 0-.76-.714-.231-.721-.231-1.676-.23-2.307v-.088l-.053-26.24v-3.651c0-1.214.964-2.202 2.149-2.202h17.179m0-1.399H35.549C33.597 32 32 33.621 32 35.602v3.651l.052 26.242C32.052 66.853 32 70 34.443 70h39.672c1.027-1.571.695-5.631.695-7.367V40.132c0-.821-.635-1.487-1.419-1.487H57.757c-.783 0-1.419-.666-1.419-1.487v-1.393c.001-2.07-1.624-3.765-3.61-3.765z"/><path fill="#fdfcee" d="M34.745 69.3c-.045-.013-.109-.086-.16-.17 1.146-.366 1.247-2.478 1.247-4.981v-20.96c0-.27.203-.488.453-.488h39.563c.25 0 .453.219.453.488v22.77c0 1.843-1.444 3.342-3.221 3.342H34.745z"/><path fill="#472b29" d="M75.6 43.4v22.558c0 1.457-1.131 2.642-2.52 2.642H36.03c.501-1.162.501-2.919.501-4.451V43.4H75.6m.247-1.4H36.284c-.637 0-1.153.532-1.153 1.189v20.96c0 2.683-.178 4.337-.927 4.337-.809 0-.268 1.514.54 1.514H73.08c2.165 0 3.92-1.81 3.92-4.042V43.189c0-.657-.516-1.189-1.153-1.189z"/><g><path fill="#472b29" d="M45.5 37h-10a.5.5 0 0 1 0-1h10a.5.5 0 0 1 0 1z"/></g><g><path fill="#472b29" d="M52.5 37h-4a.5.5 0 0 1 0-1h4a.5.5 0 0 1 0 1z"/></g><g><path fill="#472b29" d="M53.5 52h-13a.5.5 0 0 1-.5-.5v-5a.5.5 0 0 1 .5-.5h13a.5.5 0 0 1 .5.5v5a.5.5 0 0 1-.5.5zM41 51h12v-4H41v4z"/></g><g><path fill="#fdfcef" d="M38.986 75.493h3.526c2.101 0 3.805-1.667 3.805-3.724 0-1.794-1.297-3.292-3.023-3.645.02-.157.033-.316.033-.478 0-2.13-1.764-3.857-3.941-3.857a3.96 3.96 0 0 0-3.142 1.536c-.184-2.371-2.348-4.2-4.88-3.897-1.851.222-3.383 1.622-3.723 3.417a4.241 4.241 0 0 0 .011 1.659 2.735 2.735 0 0 0-1.99-.853c-1.44 0-2.616 1.097-2.709 2.484a3.727 3.727 0 0 0-2.115.143c-1.432.526-2.452 1.846-2.512 3.342-.085 2.125 1.65 3.873 3.802 3.873H30.899m1.636 0h.358"/><path fill="#472b29" d="M42.512 75.993h-3.526a.5.5 0 0 1 0-1h3.526c1.822 0 3.305-1.446 3.305-3.224 0-1.517-1.103-2.844-2.623-3.155a.5.5 0 0 1-.396-.553 3.17 3.17 0 0 0 .03-.416c0-1.851-1.543-3.357-3.441-3.357a3.444 3.444 0 0 0-2.747 1.342.5.5 0 0 1-.894-.267 3.703 3.703 0 0 0-1.363-2.591 3.874 3.874 0 0 0-2.959-.848c-1.639.196-2.992 1.436-3.292 3.014-.094.492-.09.984.009 1.464a.5.5 0 0 1-.852.445 2.22 2.22 0 0 0-1.627-.696c-1.163 0-2.134.886-2.21 2.018a.502.502 0 0 1-.605.455 3.2 3.2 0 0 0-1.836.124c-1.256.461-2.134 1.624-2.185 2.893a3.154 3.154 0 0 0 .891 2.333 3.311 3.311 0 0 0 2.412 1.02H30.9a.5.5 0 0 1 0 1h-8.771a4.363 4.363 0 0 1-3.133-1.327 4.15 4.15 0 0 1-1.168-3.066c.066-1.668 1.207-3.192 2.839-3.791a4.216 4.216 0 0 1 1.872-.244c.344-1.39 1.624-2.414 3.124-2.414.49 0 .971.112 1.406.32a4.9 4.9 0 0 1 .082-.72c.379-2.001 2.088-3.573 4.155-3.82 1.359-.161 2.675.217 3.712 1.068a4.717 4.717 0 0 1 1.54 2.29 4.445 4.445 0 0 1 2.83-1.001c2.449 0 4.441 1.955 4.441 4.357l-.001.101c1.757.553 2.991 2.18 2.991 4.022-.003 2.329-1.934 4.224-4.307 4.224zm-9.619 0h-.358a.5.5 0 0 1 0-1h.358a.5.5 0 0 1 0 1z"/><path fill="#472b29" d="M40.811 70.213a.25.25 0 0 1-.244-.305c.037-.165.094-.325.169-.477.602-1.219 2.263-1.671 3.708-1.003a.25.25 0 0 1-.21.454c-1.197-.554-2.566-.208-3.05.771a1.634 1.634 0 0 0-.129.365.25.25 0 0 1-.244.195zM35.673 75.993H34.57a.5.5 0 0 1 0-1h1.103a.5.5 0 0 1 0 1z"/></g></svg>