<svg xmlns="http://www.w3.org/2000/svg" width="2122pt" height="2122pt" viewBox="0 0 2122 2122"><path style="stroke:none;fill-rule:nonzero;fill:#fff;fill-opacity:1" d="M524.941 748.762h670.547v-88.09c0-26.813 21.73-48.543 48.543-48.543h352.348c26.812 0 48.531 21.73 48.531 48.543V1494.8c0 26.808-21.719 48.539-48.531 48.539H524.94c-26.8 0-48.543-21.73-48.543-48.54V797.3c0-26.812 21.743-48.538 48.543-48.538"/><path style="fill:none;stroke-width:449.009;stroke-linecap:round;stroke-linejoin:round;stroke:#04aa6d;stroke-opacity:1;stroke-miterlimit:10" d="M5249.414 13732.383h6705.469v880.898c0 268.125 217.305 485.43 485.43 485.43h3523.476c268.125 0 485.313-217.305 485.313-485.43V6271.992c0-268.086-217.188-485.39-485.313-485.39H5249.414c-268.008 0-485.43 217.304-485.43 485.39v6975c0 268.125 217.422 485.39 485.43 485.39Zm0 0" transform="matrix(.1 0 0 -.1 0 2122)"/><path style="stroke:none;fill-rule:nonzero;fill:#fff;fill-opacity:1" d="M1427.07 1288.07H597.172V449.441h829.898v838.63"/><path style="fill:none;stroke-width:449.009;stroke-linecap:round;stroke-linejoin:round;stroke:#04aa6d;stroke-opacity:1;stroke-miterlimit:10" d="M14270.703 8339.297H5971.72v8386.289h8298.984ZM7451.64 15449.219h5339.141M7451.64 14370.586h5339.141M7451.64 13291.914h5339.141" transform="matrix(.1 0 0 -.1 0 2122)"/><path style="stroke:none;fill-rule:nonzero;fill:#fff;fill-opacity:1" d="M1596.379 877.3h-670.54v-88.09c0-26.812-21.734-48.538-48.546-48.538H524.957c-26.805 0-48.547 21.726-48.547 48.539v834.129c0 26.808 21.742 48.539 48.547 48.539h1071.422c26.812 0 48.531-21.73 48.531-48.54v-697.5c0-26.808-21.719-48.538-48.531-48.538"/><path style="fill:none;stroke-width:449.009;stroke-linecap:round;stroke-linejoin:round;stroke:#04aa6d;stroke-opacity:1;stroke-miterlimit:10" d="M15963.79 12446.992H9258.397v880.899c0 268.125-217.343 485.39-485.468 485.39H5249.57c-268.047 0-485.468-217.265-485.468-485.39V4986.6c0-268.085 217.421-485.39 485.468-485.39h10714.22c268.124 0 485.312 217.305 485.312 485.39v6975c0 268.086-217.188 485.391-485.313 485.391Zm0 0" transform="matrix(.1 0 0 -.1 0 2122)"/><path style="stroke:none;fill-rule:nonzero;fill:#04aa6d;fill-opacity:1" d="M1321.14 1266.71c0 143.84-116.6 260.45-260.46 260.45-143.84 0-260.453-116.61-260.453-260.45 0-143.85 116.613-260.46 260.453-260.46 143.86 0 260.46 116.61 260.46 260.46"/><path style="stroke:none;fill-rule:nonzero;fill:#fff;fill-opacity:1" d="M1220.73 1206.48h-99.8v-99.808c0-3.813-3.09-6.89-6.88-6.89h-106.71a6.884 6.884 0 0 0-6.89 6.89v99.808h-99.79a6.882 6.882 0 0 0-6.89 6.88v106.69a6.887 6.887 0 0 0 6.89 6.891h99.79v99.809c0 3.8 3.081 6.879 6.89 6.879h106.71a6.884 6.884 0 0 0 6.88-6.879v-99.809h99.8c3.79 0 6.88-3.082 6.88-6.89v-106.692c0-3.8-3.09-6.879-6.88-6.879"/></svg>