<svg xmlns="http://www.w3.org/2000/svg" width="2122pt" height="2122pt" viewBox="0 0 2122 2122"><path style="stroke:none;fill-rule:nonzero;fill:#ffc836;fill-opacity:1" d="M747.684 571.77H324.94v905.761l60.942-141.02V815.899c0-30.308 24.57-54.878 54.879-54.878h1038.297c30.3 0 54.87 24.57 54.87 54.878v32.614l60.95-.832V692.8l-773.941 12.74-73.254-133.77"/><path style="stroke:none;fill-rule:nonzero;fill:#fff;fill-opacity:1" d="M440.762 1209.531 577.129 893.97c8.582-19.84 28.012-32.797 49.629-33.098l852.3-11.61v-33.363H440.763v393.633"/><path style="stroke:none;fill-rule:nonzero;fill:#ffc836;fill-opacity:1" d="m1611.691 1549.55 184.688-649.73-1168.871 15.918-273.906 633.813h1258.09"/><path style="stroke:none;fill-rule:nonzero;fill:#202759;fill-opacity:1" d="m627.508 915.738 1168.87-15.918-184.687 649.73H353.601Zm851.55-66.476-852.3 11.61c-21.617.3-41.047 13.257-49.63 33.097L440.763 1209.53V815.898h1038.297Zm115.82-1.582-60.948.832v-32.614c0-30.308-24.57-54.878-54.871-54.878H440.762c-30.309 0-54.88 24.57-54.88 54.878v520.614l-60.94 141.02V571.77h422.742l73.254 133.77 773.94-12.74Zm245.063 18.761a54.88 54.88 0 0 0-43.562-21.5c-.25 0-.5 0-.75.008l-145.867 1.98V692.802a54.882 54.882 0 0 0-54.883-54.88c-.3 0-.598 0-.91.009L853.16 650.12l-57.344-104.71a54.881 54.881 0 0 0-48.132-28.52H324.94c-30.308 0-54.878 24.57-54.878 54.879v977.78c0 30.31 24.57 54.88 54.878 54.88h1286.75c24.528 0 46.079-16.282 52.79-39.88l184.69-649.722a54.9 54.9 0 0 0-9.23-48.387"/></svg>