<?xml version="1.0" encoding="UTF-8"?>
<svg xmlns="http://www.w3.org/2000/svg" xmlns:xlink="http://www.w3.org/1999/xlink" width="2122pt" height="2122pt" viewBox="0 0 2122 2122" version="1.1">
<g id="surface1">
<path style=" stroke:none;fill-rule:nonzero;fill:rgb(100%,78.399658%,21.199036%);fill-opacity:1;" d="M 747.683594 571.769531 L 324.941406 571.769531 L 324.941406 1477.53125 L 385.882813 1336.511719 L 385.882813 815.898438 C 385.882813 785.589844 410.453125 761.019531 440.761719 761.019531 L 1479.058594 761.019531 C 1509.359375 761.019531 1533.929688 785.589844 1533.929688 815.898438 L 1533.929688 848.511719 L 1594.878906 847.679688 L 1594.878906 692.800781 L 820.9375 705.539063 L 747.683594 571.769531 "/>
<path style=" stroke:none;fill-rule:nonzero;fill:rgb(100%,100%,100%);fill-opacity:1;" d="M 440.761719 1209.53125 L 577.128906 893.96875 C 585.710938 874.128906 605.140625 861.171875 626.757813 860.871094 L 1479.058594 849.261719 L 1479.058594 815.898438 L 440.761719 815.898438 L 440.761719 1209.53125 "/>
<path style=" stroke:none;fill-rule:nonzero;fill:rgb(100%,78.399658%,21.199036%);fill-opacity:1;" d="M 1611.691406 1549.550781 L 1796.378906 899.820313 L 627.507813 915.738281 L 353.601563 1549.550781 L 1611.691406 1549.550781 "/>
<path style=" stroke:none;fill-rule:nonzero;fill:rgb(12.5%,15.299988%,34.899902%);fill-opacity:1;" d="M 627.507813 915.738281 L 1796.378906 899.820313 L 1611.691406 1549.550781 L 353.601563 1549.550781 Z M 1479.058594 849.261719 L 626.757813 860.871094 C 605.140625 861.171875 585.710938 874.128906 577.128906 893.96875 L 440.761719 1209.53125 L 440.761719 815.898438 L 1479.058594 815.898438 Z M 1594.878906 847.679688 L 1533.929688 848.511719 L 1533.929688 815.898438 C 1533.929688 785.589844 1509.359375 761.019531 1479.058594 761.019531 L 440.761719 761.019531 C 410.453125 761.019531 385.882813 785.589844 385.882813 815.898438 L 385.882813 1336.511719 L 324.941406 1477.53125 L 324.941406 571.769531 L 747.683594 571.769531 L 820.9375 705.539063 L 1594.878906 692.800781 Z M 1839.941406 866.441406 C 1829.550781 852.878906 1813.441406 844.941406 1796.378906 844.941406 C 1796.128906 844.941406 1795.878906 844.941406 1795.628906 844.949219 L 1649.761719 846.929688 L 1649.761719 692.800781 C 1649.761719 678.089844 1643.851563 663.988281 1633.359375 653.671875 C 1623.089844 643.570313 1609.261719 637.921875 1594.878906 637.921875 C 1594.578125 637.921875 1594.28125 637.921875 1593.96875 637.929688 L 853.160156 650.121094 L 795.816406 545.410156 C 786.1875 527.828125 767.734375 516.890625 747.683594 516.890625 L 324.941406 516.890625 C 294.632813 516.890625 270.0625 541.460938 270.0625 571.769531 L 270.0625 1549.550781 C 270.0625 1579.859375 294.632813 1604.429688 324.941406 1604.429688 L 1611.691406 1604.429688 C 1636.21875 1604.429688 1657.769531 1588.148438 1664.480469 1564.550781 L 1849.171875 914.828125 C 1853.910156 898.148438 1850.488281 880.210938 1839.941406 866.441406 "/>
</g>
</svg>
