<?xml version="1.0" encoding="UTF-8"?>
<svg xmlns="http://www.w3.org/2000/svg" xmlns:xlink="http://www.w3.org/1999/xlink" width="425.2pt" height="425.2pt" viewBox="0 0 425.2 425.2" version="1.1">
<defs>
<clipPath id="clip1">
  <path d="M 0 0 L 425.199219 0 L 425.199219 425.199219 L 0 425.199219 Z M 0 0 "/>
</clipPath>
</defs>
<g id="surface1">
<g clip-path="url(#clip1)" clip-rule="nonzero">
<path style=" stroke:none;fill-rule:nonzero;fill:rgb(74.499512%,68.998718%,83.898926%);fill-opacity:1;" d="M 425.199219 425.199219 L 0 425.199219 L 0 0 L 425.199219 0 L 425.199219 425.199219 M 212.601563 45.5625 C 121.800781 45.5625 48.195313 120.347656 48.195313 212.601563 C 48.195313 304.851563 121.800781 379.640625 212.601563 379.640625 C 303.398438 379.640625 377.003906 304.851563 377.003906 212.601563 C 377.003906 120.347656 303.398438 45.5625 212.601563 45.5625 "/>
</g>
<path style=" stroke:none;fill-rule:nonzero;fill:rgb(78.799438%,74.499512%,87.098694%);fill-opacity:1;" d="M 212.601563 379.640625 C 121.800781 379.640625 48.195313 304.851563 48.195313 212.601563 C 48.195313 120.347656 121.800781 45.5625 212.601563 45.5625 C 303.398438 45.5625 377.003906 120.347656 377.003906 212.601563 C 377.003906 304.851563 303.398438 379.640625 212.601563 379.640625 M 302.988281 296.519531 C 302.996094 296.519531 303.003906 296.519531 303.011719 296.519531 C 303.011719 296.519531 303.015625 296.519531 303.015625 296.519531 C 303.019531 296.519531 303.023438 296.519531 303.027344 296.519531 C 313.191406 296.507813 321.425781 292.871094 321.425781 288.390625 L 338.066406 190.902344 C 339.253906 178.726563 331.613281 172.214844 321.429688 172.214844 L 321.429688 150.917969 C 321.429688 145.292969 313.171875 140.726563 302.988281 140.726563 L 197.730469 140.726563 C 197.472656 133.980469 194.933594 128.679688 191.835938 128.679688 L 113.183594 128.679688 C 109.914063 128.679688 107.265625 134.578125 107.265625 141.855469 L 107.265625 162.601563 L 93.976563 162.601563 C 90.710938 162.601563 87.011719 166.679688 87.011719 172.488281 L 89.210938 187.457031 L 90.398438 194.800781 L 107.265625 288.390625 L 107.273438 288.609375 C 107.417969 292.996094 111.917969 296.519531 117.453125 296.519531 L 302.984375 296.519531 "/>
<path style=" stroke:none;fill-rule:nonzero;fill:rgb(53.69873%,50.19989%,73.699951%);fill-opacity:1;" d="M 302.988281 140.726563 L 197.730469 140.726563 C 197.472656 133.980469 194.933594 128.679688 191.835938 128.679688 L 113.183594 128.679688 C 109.914063 128.679688 107.265625 134.578125 107.265625 141.855469 L 107.265625 286.335938 L 107.273438 286.605469 C 107.421875 292.105469 111.921875 296.519531 117.453125 296.519531 L 302.988281 296.519531 C 313.171875 296.519531 321.429688 291.960938 321.429688 286.335938 L 321.429688 150.917969 C 321.429688 145.292969 313.171875 140.726563 302.988281 140.726563 "/>
<path style=" stroke:none;fill-rule:nonzero;fill:rgb(17.999268%,18.798828%,57.299805%);fill-opacity:1;" d="M 121.289063 135.039063 C 121.289063 136.511719 120.097656 137.699219 118.625 137.699219 C 117.152344 137.699219 115.960938 136.511719 115.960938 135.039063 C 115.960938 133.5625 117.152344 132.375 118.625 132.375 C 120.097656 132.375 121.289063 133.5625 121.289063 135.039063 "/>
<path style=" stroke:none;fill-rule:nonzero;fill:rgb(17.999268%,18.798828%,57.299805%);fill-opacity:1;" d="M 129.40625 135.039063 C 129.40625 136.511719 128.214844 137.699219 126.742188 137.699219 C 125.269531 137.699219 124.078125 136.511719 124.078125 135.039063 C 124.078125 133.5625 125.269531 132.375 126.742188 132.375 C 128.214844 132.375 129.40625 133.5625 129.40625 135.039063 "/>
<path style=" stroke:none;fill-rule:nonzero;fill:rgb(17.999268%,18.798828%,57.299805%);fill-opacity:1;" d="M 137.378906 135.039063 C 137.378906 136.511719 136.183594 137.699219 134.710938 137.699219 C 133.242188 137.699219 132.046875 136.511719 132.046875 135.039063 C 132.046875 133.5625 133.242188 132.375 134.710938 132.375 C 136.183594 132.375 137.378906 133.5625 137.378906 135.039063 "/>
<path style=" stroke:none;fill-rule:nonzero;fill:rgb(100%,100%,100%);fill-opacity:1;" d="M 321.425781 172.214844 L 197.726563 172.214844 C 197.472656 166.835938 194.929688 162.601563 191.835938 162.601563 L 93.976563 162.601563 C 90.710938 162.601563 87.011719 166.679688 87.011719 172.488281 L 89.210938 187.457031 L 90.398438 194.800781 L 107.265625 288.390625 L 107.273438 288.609375 C 107.417969 292.996094 111.917969 296.519531 117.453125 296.519531 L 302.984375 296.519531 C 313.167969 296.519531 321.425781 292.878906 321.425781 288.390625 L 338.066406 190.902344 C 339.253906 178.726563 331.609375 172.214844 321.425781 172.214844 "/>
<path style=" stroke:none;fill-rule:nonzero;fill:rgb(100%,100%,100%);fill-opacity:1;" d="M 288.253906 298.566406 C 288.175781 297.925781 288.148438 297.566406 288.148438 297.566406 C 288.148438 297.566406 288.125 297.925781 288.046875 298.566406 C 287.359375 304.109375 282.621094 330.847656 254.871094 330.847656 C 254.871094 330.847656 288.148438 331.390625 288.148438 364.929688 C 288.148438 331.390625 321.429688 330.847656 321.429688 330.847656 C 293.679688 330.847656 288.9375 304.109375 288.253906 298.566406 "/>
<path style=" stroke:none;fill-rule:nonzero;fill:rgb(100%,100%,100%);fill-opacity:1;" d="M 126.851563 59.480469 C 126.769531 58.8125 126.742188 58.4375 126.742188 58.4375 C 126.742188 58.4375 126.71875 58.8125 126.636719 59.480469 C 125.921875 65.261719 120.976563 93.140625 92.039063 93.140625 C 92.039063 93.140625 126.742188 93.707031 126.742188 128.679688 C 126.742188 93.707031 161.445313 93.140625 161.445313 93.140625 C 132.511719 93.140625 127.566406 65.261719 126.851563 59.480469 "/>
<path style=" stroke:none;fill-rule:nonzero;fill:rgb(100%,100%,100%);fill-opacity:1;" d="M 101.167969 291.808594 C 101.121094 291.425781 101.105469 291.214844 101.105469 291.214844 C 101.105469 291.214844 101.09375 291.425781 101.046875 291.808594 C 100.636719 295.101563 97.820313 310.992188 81.328125 310.992188 C 81.328125 310.992188 101.105469 311.316406 101.105469 331.25 C 101.105469 311.316406 120.886719 310.992188 120.886719 310.992188 C 104.394531 310.992188 101.574219 295.101563 101.167969 291.808594 "/>
<path style=" stroke:none;fill-rule:nonzero;fill:rgb(100%,100%,100%);fill-opacity:1;" d="M 277.902344 98.792969 C 277.871094 98.535156 277.859375 98.390625 277.859375 98.390625 C 277.859375 98.390625 277.851563 98.535156 277.820313 98.792969 C 277.542969 101.019531 275.640625 111.746094 264.503906 111.746094 C 264.503906 111.746094 277.859375 111.964844 277.859375 125.425781 C 277.859375 111.964844 291.21875 111.746094 291.21875 111.746094 C 280.082031 111.746094 278.179688 101.019531 277.902344 98.792969 "/>
<path style=" stroke:none;fill-rule:nonzero;fill:rgb(86.299133%,84.298706%,92.199707%);fill-opacity:1;" d="M 257.585938 209.292969 C 227.214844 209.292969 216.257813 195.089844 216.253906 195.082031 C 216.246094 195.089844 205.289063 209.292969 174.917969 209.292969 C 174.917969 209.292969 168.074219 276.726563 216.253906 289.5625 C 264.433594 276.726563 257.585938 209.292969 257.585938 209.292969 "/>
<path style=" stroke:none;fill-rule:nonzero;fill:rgb(100%,100%,100%);fill-opacity:1;" d="M 252.578125 212.808594 C 225.886719 212.808594 216.257813 200.328125 216.253906 200.320313 C 216.246094 200.328125 206.617188 212.808594 179.925781 212.808594 C 179.925781 212.808594 173.90625 273.046875 216.253906 284.324219 C 258.597656 273.046875 252.578125 212.808594 252.578125 212.808594 "/>
<path style=" stroke:none;fill-rule:nonzero;fill:rgb(86.698914%,84.298706%,92.199707%);fill-opacity:1;" d="M 216.253906 289.5625 C 178.730469 279.566406 174.582031 236.453125 174.585938 217.867188 C 174.582031 236.453125 178.730469 279.566406 216.253906 289.5625 C 216.277344 289.558594 216.296875 289.550781 216.320313 289.546875 C 216.300781 289.550781 216.277344 289.558594 216.253906 289.5625 M 174.917969 209.292969 C 174.933594 209.292969 174.949219 209.292969 174.964844 209.292969 C 174.949219 209.292969 174.933594 209.292969 174.917969 209.292969 M 174.984375 209.292969 C 174.992188 209.292969 175.003906 209.292969 175.011719 209.292969 C 175 209.292969 174.992188 209.292969 174.984375 209.292969 M 175.03125 209.292969 C 175.039063 209.292969 175.050781 209.292969 175.058594 209.292969 C 175.050781 209.292969 175.039063 209.292969 175.03125 209.292969 M 175.078125 209.292969 C 175.085938 209.292969 175.097656 209.292969 175.105469 209.292969 C 175.097656 209.292969 175.085938 209.292969 175.078125 209.292969 M 175.128906 209.292969 C 175.136719 209.292969 175.144531 209.292969 175.152344 209.292969 C 175.144531 209.292969 175.136719 209.292969 175.128906 209.292969 M 175.171875 209.292969 C 175.179688 209.292969 175.191406 209.292969 175.199219 209.292969 C 175.191406 209.292969 175.179688 209.292969 175.171875 209.292969 M 175.21875 209.289063 C 175.226563 209.289063 175.238281 209.289063 175.246094 209.289063 C 175.234375 209.289063 175.230469 209.289063 175.21875 209.289063 M 175.265625 209.289063 C 175.273438 209.289063 175.28125 209.289063 175.292969 209.289063 C 175.28125 209.289063 175.273438 209.289063 175.265625 209.289063 M 175.3125 209.289063 C 175.320313 209.289063 175.332031 209.289063 175.339844 209.289063 C 175.328125 209.289063 175.320313 209.289063 175.3125 209.289063 M 175.355469 209.289063 C 175.371094 209.289063 175.382813 209.289063 175.394531 209.289063 C 175.382813 209.289063 175.371094 209.289063 175.355469 209.289063 M 175.402344 209.289063 C 175.433594 209.289063 175.464844 209.289063 175.496094 209.289063 C 175.464844 209.289063 175.433594 209.289063 175.402344 209.289063 M 175.503906 209.289063 C 175.515625 209.289063 175.53125 209.289063 175.546875 209.289063 C 175.53125 209.289063 175.515625 209.289063 175.503906 209.289063 M 175.546875 209.289063 C 175.5625 209.289063 175.578125 209.289063 175.59375 209.289063 C 175.578125 209.289063 175.5625 209.289063 175.546875 209.289063 M 175.597656 209.289063 C 175.613281 209.289063 175.625 209.289063 175.640625 209.289063 C 175.628906 209.289063 175.613281 209.289063 175.597656 209.289063 M 175.648438 209.289063 C 175.660156 209.289063 175.671875 209.289063 175.683594 209.289063 C 175.671875 209.289063 175.660156 209.289063 175.648438 209.289063 M 175.695313 209.289063 C 175.707031 209.289063 175.71875 209.289063 175.730469 209.289063 C 175.71875 209.289063 175.707031 209.289063 175.695313 209.289063 M 175.742188 209.289063 C 175.757813 209.289063 175.765625 209.289063 175.777344 209.289063 C 175.769531 209.289063 175.753906 209.289063 175.742188 209.289063 M 175.789063 209.289063 C 175.804688 209.289063 175.816406 209.289063 175.832031 209.289063 C 175.816406 209.289063 175.804688 209.289063 175.789063 209.289063 M 175.835938 209.289063 C 183.683594 209.214844 190.207031 208.183594 195.558594 206.710938 C 190.210938 208.183594 183.683594 209.214844 175.835938 209.289063 "/>
<path style=" stroke:none;fill-rule:nonzero;fill:rgb(76.499939%,73.298645%,86.299133%);fill-opacity:1;" d="M 216.253906 289.5625 C 178.730469 279.566406 174.582031 236.453125 174.585938 217.867188 C 174.585938 212.589844 174.917969 209.292969 174.917969 209.292969 C 174.933594 209.292969 174.949219 209.292969 174.964844 209.292969 C 174.972656 209.292969 174.976563 209.292969 174.984375 209.292969 C 174.992188 209.292969 175 209.292969 175.011719 209.292969 C 175.019531 209.292969 175.027344 209.292969 175.03125 209.292969 C 175.039063 209.292969 175.050781 209.292969 175.058594 209.292969 C 175.066406 209.292969 175.070313 209.292969 175.078125 209.292969 C 175.085938 209.292969 175.097656 209.292969 175.105469 209.292969 C 175.113281 209.292969 175.121094 209.292969 175.128906 209.292969 C 175.136719 209.292969 175.144531 209.292969 175.152344 209.292969 C 175.15625 209.292969 175.164063 209.292969 175.171875 209.292969 C 175.179688 209.292969 175.191406 209.292969 175.199219 209.292969 C 175.203125 209.292969 175.214844 209.289063 175.21875 209.289063 C 175.230469 209.289063 175.234375 209.289063 175.246094 209.289063 C 175.253906 209.289063 175.257813 209.289063 175.265625 209.289063 C 175.273438 209.289063 175.28125 209.289063 175.292969 209.289063 C 175.300781 209.289063 175.304688 209.289063 175.3125 209.289063 C 175.320313 209.289063 175.328125 209.289063 175.339844 209.289063 C 175.34375 209.289063 175.351563 209.289063 175.355469 209.289063 C 175.371094 209.289063 175.382813 209.289063 175.394531 209.289063 C 175.398438 209.289063 175.398438 209.289063 175.402344 209.289063 C 175.433594 209.289063 175.464844 209.289063 175.496094 209.289063 C 175.5 209.289063 175.5 209.289063 175.503906 209.289063 C 175.515625 209.289063 175.53125 209.289063 175.546875 209.289063 C 175.5625 209.289063 175.578125 209.289063 175.59375 209.289063 C 175.59375 209.289063 175.597656 209.289063 175.597656 209.289063 C 175.613281 209.289063 175.628906 209.289063 175.640625 209.289063 C 175.640625 209.289063 175.644531 209.289063 175.648438 209.289063 C 175.660156 209.289063 175.671875 209.289063 175.683594 209.289063 C 175.6875 209.289063 175.691406 209.289063 175.695313 209.289063 C 175.707031 209.289063 175.71875 209.289063 175.730469 209.289063 C 175.734375 209.289063 175.738281 209.289063 175.742188 209.289063 C 175.753906 209.289063 175.769531 209.289063 175.777344 209.289063 C 175.78125 209.289063 175.785156 209.289063 175.789063 209.289063 C 175.804688 209.289063 175.816406 209.289063 175.832031 209.289063 C 175.832031 209.289063 175.832031 209.289063 175.835938 209.289063 C 183.683594 209.214844 190.210938 208.183594 195.558594 206.710938 C 196.46875 207.96875 197.378906 209.226563 198.292969 210.480469 C 193.367188 211.859375 187.296875 212.808594 179.925781 212.808594 C 179.925781 212.808594 173.90625 273.046875 216.253906 284.324219 C 227.015625 281.457031 234.652344 275.429688 240.0625 268.027344 C 240.960938 269.34375 241.855469 270.664063 242.742188 271.988281 C 236.640625 279.925781 228.140625 286.378906 216.320313 289.546875 C 216.296875 289.550781 216.277344 289.558594 216.253906 289.5625 "/>
<path style=" stroke:none;fill-rule:nonzero;fill:rgb(86.698914%,84.298706%,92.199707%);fill-opacity:1;" d="M 216.253906 284.324219 C 173.90625 273.046875 179.925781 212.808594 179.925781 212.808594 C 187.296875 212.808594 193.367188 211.859375 198.292969 210.480469 C 209.613281 226.019531 221.253906 241.335938 232.386719 257.015625 C 234.976563 260.660156 237.539063 264.328125 240.0625 268.027344 C 234.652344 275.429688 227.015625 281.457031 216.253906 284.324219 "/>
<path style=" stroke:none;fill-rule:nonzero;fill:rgb(55.299377%,77.598572%,24.699402%);fill-opacity:1;" d="M 214.527344 259.582031 L 196.882813 246.015625 L 198.8125 243.503906 L 216.457031 257.066406 L 214.527344 259.582031 "/>
<path style=" stroke:none;fill-rule:nonzero;fill:rgb(55.299377%,77.598572%,24.699402%);fill-opacity:1;" d="M 214.5 259.582031 L 242.644531 227.34375 L 240.265625 225.253906 L 212.121094 257.492188 L 214.5 259.582031 "/>
</g>
</svg>
